<svg width="14" height="14" viewBox="0 0 14 14" fill="none" xmlns="http://www.w3.org/2000/svg">
<path d="M6.88324 7.9975C7.11093 8.225 7.47873 8.225 7.70642 7.9975L9.9191 5.83333H8.16764V1.16667H6.41618V5.83333H4.66472L6.8774 7.9975H6.88324Z" fill="#E0E5EC"/>
<path d="M9.34112 2.91667V4.66667H11.6939L10.5613 8.75H4.32611C4.18015 8.75 4.05755 8.63917 4.0342 8.49917L3.52043 4.66667H5.25438V2.91667H3.28691L3.13511 1.77333C3.00083 0.764167 2.13094 0 1.10926 0H0V1.75H1.10926C1.25521 1.75 1.37782 1.86083 1.40117 2.00083L2.30025 8.72667C2.43453 9.73583 3.30442 10.5 4.32611 10.5H11.8982L14 2.91667H9.34112Z" fill="#E0E5EC"/>
<path d="M9.92494 14C10.5698 14 11.0926 13.4777 11.0926 12.8333C11.0926 12.189 10.5698 11.6667 9.92494 11.6667C9.28007 11.6667 8.7573 12.189 8.7573 12.8333C8.7573 13.4777 9.28007 14 9.92494 14Z" fill="#E0E5EC"/>
<path d="M4.08674 14C4.73161 14 5.25438 13.4777 5.25438 12.8333C5.25438 12.189 4.73161 11.6667 4.08674 11.6667C3.44187 11.6667 2.9191 12.189 2.9191 12.8333C2.9191 13.4777 3.44187 14 4.08674 14Z" fill="#E0E5EC"/>
</svg>
