<svg width="111" height="110" viewBox="0 0 111 110" fill="none" xmlns="http://www.w3.org/2000/svg">
<g clip-path="url(#clip0_2359_720)">
<mask id="mask0_2359_720" style="mask-type:luminance" maskUnits="userSpaceOnUse" x="0" y="0" width="111" height="110">
<path d="M110.928 0H0.98801V109.99H110.928V0Z" fill="white"/>
</mask>
<g mask="url(#mask0_2359_720)">
<path d="M51.9711 101.185C52.422 101.345 68.0436 102.687 68.6549 102.525C69.074 102.413 80.8649 101.178 80.744 100.316C80.6699 99.7871 78.7559 92.1606 77.5315 91.486C76.6623 91.0072 69.4011 88.0254 68.4616 88.2767C66.3751 88.8351 54.8409 91.437 54.3337 91.7788C53.9841 92.0534 50.5012 99.0083 50.4839 99.4418C50.4667 99.8676 51.6002 101.054 51.9711 101.185Z" fill="url(#paint0_linear_2359_720)"/>
<path d="M51.9711 101.185C52.422 101.345 68.0436 102.687 68.6549 102.525C69.074 102.413 80.8649 101.178 80.744 100.316C80.6699 99.7871 78.7559 92.1606 77.5315 91.486C76.6623 91.0072 69.4011 88.0254 68.4616 88.2767C66.3751 88.8351 54.8409 91.437 54.3337 91.7788C53.9841 92.0534 50.5012 99.0083 50.4839 99.4418C50.4667 99.8676 51.6002 101.054 51.9711 101.185Z" stroke="url(#paint1_linear_2359_720)" stroke-width="1.7186" stroke-linecap="round" stroke-linejoin="round"/>
<path d="M52.1988 100.499C52.8443 100.486 67.9097 101.777 68.3215 101.818C68.681 101.853 79.7424 100.3 79.6885 100.092C79.6523 99.9511 77.214 93.2588 77.0648 93.12C76.951 92.9961 69.2627 89.8008 68.8231 89.8165C68.2655 89.8364 55.9883 92.5254 55.5612 92.766C55.3941 93.0498 54.0523 95.9499 53.7869 96.4131C53.5883 96.7598 51.8733 100.506 52.1988 100.499Z" fill="url(#paint2_linear_2359_720)"/>
<path d="M67.9316 101.752C68.1796 101.778 70.8002 96.6487 70.8942 96.3898C70.9762 96.1638 54.2963 96.3533 54.0145 96.401C53.2591 97.4005 51.7318 100.649 52.0221 100.68C53.7305 100.865 67.5462 101.713 67.9316 101.752Z" fill="url(#paint3_radial_2359_720)"/>
<path d="M79.6092 100.167C79.9594 99.8716 77.3718 93.2638 76.9782 93.0586C76.8307 93.1563 72.0332 96.1907 71.712 96.3727C71.5769 96.6472 68.8095 101.588 68.9049 101.538C71.3798 100.863 78.9103 100.756 79.6092 100.167Z" fill="url(#paint4_radial_2359_720)"/>
<path d="M66.0288 72.4283C69.5122 72.3884 77.0726 71.1519 84.0999 71.4223C90.2505 71.462 92.3513 69.464 97.0567 69.3234C101.959 69.381 103.425 70.0066 104.302 68.2058C105.605 67.032 106.671 65.1413 106.454 65.2204C105.476 63.6538 102.002 62.4273 98.6354 62.3252C94.2461 62.0905 90.6229 62.9349 86.4747 62.2286C82.1371 61.8055 74.7558 59.7338 69.3732 63.6661C65.3968 66.8997 64.3622 72.7727 66.0288 72.4283Z" fill="url(#paint5_linear_2359_720)"/>
<path d="M66.0288 72.4283C69.5122 72.3884 77.0726 71.1519 84.0999 71.4223C90.2505 71.462 92.3513 69.464 97.0567 69.3234C101.959 69.381 103.425 70.0066 104.302 68.2058C105.605 67.032 106.671 65.1413 106.454 65.2204C105.476 63.6538 102.002 62.4273 98.6354 62.3252C94.2461 62.0905 90.6229 62.9349 86.4747 62.2286C82.1371 61.8055 74.7558 59.7338 69.3732 63.6661C65.3968 66.8997 64.3622 72.7727 66.0288 72.4283Z" fill="url(#paint6_linear_2359_720)"/>
<path d="M66.0288 72.4283C69.5122 72.3884 77.0726 71.1519 84.0999 71.4223C90.2505 71.462 92.3513 69.464 97.0567 69.3234C101.959 69.381 103.425 70.0066 104.302 68.2058C105.605 67.032 106.671 65.1413 106.454 65.2204C105.476 63.6538 102.002 62.4273 98.6354 62.3252C94.2461 62.0905 90.6229 62.9349 86.4747 62.2286C82.1371 61.8055 74.7558 59.7338 69.3732 63.6661C65.3968 66.8997 64.3622 72.7727 66.0288 72.4283Z" stroke="#111010" stroke-width="1.7186" stroke-linecap="round" stroke-linejoin="round"/>
<path d="M66.0011 71.8258C69.5212 70.8672 78.1651 70.4907 84.1398 70.603C89.5026 70.4535 92.1093 68.8441 96.5349 68.4406C100.861 68.2786 102.155 69.9693 103.398 68.735C104.539 67.8804 105.609 66.579 105.27 66.6447C103.664 66.0031 101.214 65.0056 97.9559 64.7345C94.2599 64.7157 90.1965 64.6346 86.7002 64.5758C82.6581 64.6393 76.4669 61.7947 70.7483 64.2002C66.0064 66.5479 64.4886 72.3565 66.0011 71.8258Z" fill="url(#paint7_linear_2359_720)"/>
<path d="M66.5452 64.5621C71.9767 65.0016 77.4951 67.6656 77.6299 74.5016C77.8704 81.0538 78.3463 84.8977 80.3267 85.9329C82.5737 87.3695 86.8274 86.0613 87.5879 87.5623C91.6908 94.5108 85.5936 91.4304 86.9013 94.8077C88.7626 95.9052 92.9443 89.954 94.2839 85.0727C95.8559 80.3634 90.8248 83.573 88.5034 74.3403C86.9672 63.9619 84.6624 57.7415 73.405 56.1531C71.5927 55.8289 65.4455 62.4825 66.5452 64.5621Z" fill="url(#paint8_linear_2359_720)"/>
<path d="M66.5452 64.5621C71.9767 65.0016 77.4951 67.6656 77.6299 74.5016C77.8704 81.0538 78.3463 84.8977 80.3268 85.9329C82.5737 87.3695 86.8274 86.0613 87.5879 87.5623C91.6908 94.5108 85.5936 91.4304 86.9013 94.8077C88.7626 95.9052 92.9443 89.954 94.2839 85.0727C95.8559 80.3634 90.8248 83.573 88.5034 74.3403C86.9672 63.9619 84.6624 57.7415 73.405 56.1531C71.5927 55.8289 65.4455 62.4825 66.5452 64.5621Z" stroke="#111010" stroke-width="1.7186" stroke-linecap="round" stroke-linejoin="round"/>
<path d="M67.438 64.1522C72.9907 64.2511 78.0325 67.552 78.2763 74.4048C78.4122 80.6988 78.6891 84.5632 80.4981 85.7184C82.2772 87.2474 87.1816 85.3849 87.9295 86.8047C92.171 93.2919 86.2013 91.8982 87.3761 93.7817C88.8841 93.8612 92.8878 87.8926 93.069 84.2893C93.2672 81.469 85.3149 86.4975 85.9651 75.127C86.4283 66.4717 81.0674 59.1825 72.4595 57.8541C70.6052 57.5405 66.376 62.1621 67.438 64.1522Z" fill="url(#paint9_linear_2359_720)"/>
<path d="M48.1396 69.0265C50.3073 66.5366 51.5247 59.0139 49.0818 56.3908C47.1062 54.2693 43.1915 53.9164 41.0942 55.8003C37.5828 58.9542 39.5696 62.8786 40.2029 63.4441C40.2297 64.2858 40.7544 67.4271 41.6907 68.6393C43.2975 70.7199 46.6182 70.7741 48.1396 69.0265Z" fill="url(#paint10_linear_2359_720)"/>
<path d="M48.1396 69.0265C50.3073 66.5366 51.5247 59.0139 49.0818 56.3908C47.1062 54.2693 43.1915 53.9164 41.0942 55.8003C37.5828 58.9542 39.5696 62.8786 40.2029 63.4441C40.2297 64.2858 40.7544 67.4271 41.6907 68.6393C43.2975 70.7199 46.6182 70.7741 48.1396 69.0265Z" stroke="#A46F3B" stroke-width="1.7186" stroke-linecap="round" stroke-linejoin="round"/>
<path d="M42.1076 63.7863C41.5901 65.7506 42.5911 66.298 43.7918 66.3086C45.447 66.3233 48.3229 65.1046 47.8033 60.9932C47.6213 59.5519 42.9553 60.5682 42.1076 63.7863Z" fill="url(#paint11_linear_2359_720)"/>
<path d="M43.3818 62.4497C41.5537 63.2372 42.1036 65.5546 43.3121 65.3834C44.5407 65.2094 44.8283 61.8266 43.3818 62.4497Z" fill="#FFEBD4"/>
<path d="M43.6734 66.6555C40.2572 68.1936 40.6511 72.4806 38.393 74.2291C37.8284 74.6661 36.3924 75.642 35.6678 76.5027C34.9097 77.4033 34.5978 77.9198 34.7734 78.2719C35.5104 79.8615 37.2777 81.5232 38.7543 80.917C39.9396 80.4304 41.496 78.6262 41.8881 78.0324C42.7392 76.7439 49.5193 74.1302 49.5544 68.9175" fill="url(#paint12_linear_2359_720)"/>
<path d="M43.6734 66.6555C40.2572 68.1936 40.6511 72.4806 38.393 74.2291C37.8284 74.6661 36.3924 75.642 35.6678 76.5027C34.9097 77.4033 34.5978 77.9198 34.7734 78.2719C35.5104 79.8615 37.2777 81.5232 38.7543 80.917C39.9396 80.4304 41.496 78.6262 41.8881 78.0324C42.7392 76.7439 49.5193 74.1302 49.5544 68.9175" fill="url(#paint13_linear_2359_720)"/>
<path d="M43.6734 66.6555C40.2572 68.1936 40.6511 72.4806 38.393 74.2291C37.8284 74.6661 36.3924 75.642 35.6678 76.5027C34.9097 77.4033 34.5978 77.9198 34.7734 78.2719C35.5104 79.8615 37.2777 81.5232 38.7543 80.917C39.9396 80.4304 41.496 78.6262 41.8881 78.0324C42.7392 76.7439 49.5193 74.1302 49.5544 68.9175" stroke="#A46F3B" stroke-width="1.7186" stroke-linecap="round" stroke-linejoin="round"/>
<path d="M45.2097 71.6661C46.2203 70.3145 44.5713 68.2043 43.605 68.599C42.2726 69.1429 40.9263 71.3 41.0182 73.6765C41.0547 74.6205 44.0605 73.2029 45.2097 71.6661Z" fill="url(#paint14_linear_2359_720)"/>
<path d="M44.4698 68.8477C43.8216 67.666 41.5906 69.3202 41.2522 71.8107C41.1784 72.3528 41.7579 71.3262 42.5366 70.3281C43.3873 69.2377 44.6058 69.0952 44.4698 68.8477Z" fill="#FFEBD4"/>
<path d="M44.027 61.8542C42.2251 61.7752 47.0705 69.7929 45.3485 72.9217C44.2048 74.9758 62.5408 76.8378 63.9053 75.3507C66.9738 72.1009 70.9569 61.313 68.6085 61.1019C65.7569 60.8452 46.1913 61.9494 44.027 61.8542Z" fill="url(#paint15_linear_2359_720)"/>
<path d="M44.027 61.8542C42.2251 61.7752 47.0705 69.7929 45.3485 72.9217C44.2048 74.9758 62.5408 76.8378 63.9053 75.3507C66.9738 72.1009 70.9569 61.313 68.6085 61.1019C65.7569 60.8452 46.1913 61.9494 44.027 61.8542Z" stroke="#A46F3B" stroke-width="1.7186" stroke-linecap="round" stroke-linejoin="round"/>
<path d="M48.0563 66.1671C46.9363 66.7557 48.1083 70.1701 47.8425 71.9227C47.7029 72.8517 60.7997 74.182 62.3824 72.5333C63.4762 71.3563 64.521 67.4947 61.4987 67.4247C51.2013 67.1248 51.1352 64.7094 48.0563 66.1671Z" fill="url(#paint16_linear_2359_720)"/>
<path d="M49.2489 70.8933C49.1668 72.4328 54.1383 73.9194 54.1835 72.8879C54.236 71.6951 49.3215 69.5634 49.2489 70.8933Z" fill="#FFEBD4"/>
<path d="M49.4866 67.3341C49.4716 69.5204 54.7084 70.961 54.8493 69.7483C55.0285 68.2098 49.503 65.3067 49.4866 67.3341Z" fill="#FFEBD4"/>
<path d="M48.3293 70.8193C48.1472 71.8782 46.5717 72.2674 46.794 71.2601C47.051 70.0952 48.5545 69.5092 48.3293 70.8193Z" fill="#FFEBD4"/>
<path d="M48.3759 67.2167C48.1437 68.6806 46.3206 69.2733 46.4936 67.8627C46.6887 66.273 48.6631 65.4055 48.3759 67.2167Z" fill="#FFEBD4"/>
<path d="M47.5393 69.2099C48.8304 68.746 48.7989 67.6348 48.924 67.6412C49.0652 67.6709 48.5722 70.2363 54.9752 71.1138" stroke="#D8A16B" stroke-width="1.7186" stroke-linecap="round" stroke-linejoin="round"/>
<path d="M47.779 72.036C48.7756 71.9623 48.7899 70.9865 48.8667 70.9909C48.9365 71.0044 48.6217 73.133 53.9904 73.7069" stroke="#C7925E" stroke-width="1.7186" stroke-linecap="round" stroke-linejoin="round"/>
<path d="M62.4115 72.4726C63.3581 72.9692 58.8653 75.0966 57.5425 72.3797C57.0253 71.3189 60.9273 71.6877 62.4115 72.4726Z" fill="#FFEBD4"/>
<path d="M61.4935 69.4969C62.6787 69.9338 58.2508 71.9615 57.2238 69.6384C56.6574 68.3607 60.3408 69.0729 61.4935 69.4969Z" fill="#FFEBD4"/>
<path d="M60.9437 71.4082C62.5127 70.8556 63.4249 70.5113 64.2226 69.5772" stroke="#C48F5B" stroke-width="1.7186" stroke-linecap="round" stroke-linejoin="round"/>
<path d="M60.5637 68.5445C62.4792 68.1156 62.921 67.7218 63.9168 66.6888" stroke="#DEA975" stroke-width="1.7186" stroke-linecap="round" stroke-linejoin="round"/>
<path d="M46.0217 64.8435C45.2176 64.7868 42.8457 64.4825 42.0177 63.4389C41.2319 62.4449 40.31 56.855 41.6075 54.1094C42.6071 51.9945 65.0361 54.3046 65.5732 56.3837C66.2141 58.8618 64.1248 64.695 62.4669 66.0804C61.1008 67.2116 55.4698 66.5094 53.2249 65.811" fill="url(#paint17_linear_2359_720)"/>
<path d="M46.0217 64.8435C45.2176 64.7868 42.8457 64.4825 42.0177 63.4389C41.2319 62.4449 40.31 56.855 41.6075 54.1094C42.6071 51.9945 65.0361 54.3046 65.5732 56.3836C66.2141 58.8618 64.1248 64.695 62.4669 66.0804C61.1008 67.2116 55.4698 66.5094 53.2249 65.811" stroke="#A46F3B" stroke-width="1.7186" stroke-linecap="round" stroke-linejoin="round"/>
<path d="M49.1342 58.7919C48.9548 59.9227 48.8394 61.3149 48.736 62.5276" stroke="#C7925E" stroke-width="1.7186" stroke-linecap="round" stroke-linejoin="round"/>
<path d="M47.5532 58.8064C47.6407 59.6763 47.603 62.5395 47.0316 62.9219C45.7197 63.7999 43.8109 63.0705 43.2393 61.9727C42.7108 60.9574 42.1517 57.7813 43.06 56.8168C43.9837 55.8361 47.3399 56.6866 47.5532 58.8064Z" fill="url(#paint18_linear_2359_720)"/>
<path d="M50.4786 59.1764C50.0651 61.1651 49.9078 63.0123 50.4207 63.4598C51.7284 64.6013 60.3932 65.6416 61.1661 64.5407C61.8807 63.5223 63.5246 59.6941 62.7854 58.4719C62.0335 57.2291 50.96 56.8596 50.4786 59.1764Z" fill="url(#paint19_linear_2359_720)"/>
<path d="M47.6186 58.5142C45.7312 59.1463 46.0128 63.1855 47.2317 63.1157C48.4707 63.0447 49.1121 58.014 47.6186 58.5142Z" fill="#FFEBD4"/>
<path d="M52.9098 59.104C51.0224 59.7361 51.3039 63.7754 52.5228 63.7055C53.7618 63.6345 54.4033 58.6038 52.9098 59.104Z" fill="#FFEBD4"/>
<path d="M30.3513 104.404C30.8881 104.564 46.5629 105.101 47.2906 104.938C47.7897 104.827 61.4502 101.819 61.3063 100.957C61.218 100.428 55.0745 96.9909 53.6169 96.3163C52.5821 95.8375 40.1804 96.0244 39.0621 96.2757C36.5781 96.8341 31.1026 98.523 30.4988 98.8648C30.0826 99.1393 27.2912 102.469 27.2706 102.903C27.2502 103.328 29.9098 104.273 30.3513 104.404Z" fill="url(#paint20_linear_2359_720)"/>
<path d="M30.3513 104.404C30.8881 104.564 46.5629 105.101 47.2906 104.938C47.7897 104.827 61.4502 101.819 61.3063 100.957C61.218 100.428 55.0745 96.9909 53.6169 96.3163C52.5821 95.8375 40.1804 96.0244 39.0621 96.2757C36.5781 96.8341 31.1026 98.523 30.4988 98.8648C30.0826 99.1393 27.2912 102.469 27.2706 102.903C27.2502 103.328 29.9098 104.273 30.3513 104.404Z" stroke="url(#paint21_linear_2359_720)" stroke-width="1.7186" stroke-linecap="round" stroke-linejoin="round"/>
<path d="M30.6189 103.716C31.3872 103.702 46.4005 104.188 46.8907 104.229C47.3187 104.264 56.2509 99.8107 56.1867 99.6028C56.1435 99.4617 53.2359 98.0863 53.0583 97.9476C52.9228 97.8236 40.0124 97.797 39.4891 97.8127C38.8254 97.8326 32.4654 99.6086 31.9569 99.8492C31.5307 100.267 29.036 102.84 29.3463 103.067C29.7055 103.329 30.2314 103.722 30.6189 103.716Z" fill="url(#paint22_linear_2359_720)"/>
<path d="M46.428 104.163C46.7232 104.188 43.5584 102.17 43.1948 101.942C42.9655 101.798 33.1686 100.939 32.8332 100.986C31.9339 101.986 30.0647 103.865 30.4102 103.896C32.4439 104.08 45.9691 104.124 46.428 104.163Z" fill="url(#paint23_radial_2359_720)"/>
<path d="M59.9546 100.814C60.3716 100.519 56.6264 99.8184 56.1578 99.6133C55.9822 99.711 45.1117 101.913 44.7763 101.961C45.2727 102.343 47.4737 104.008 47.5872 103.958C50.5335 103.282 59.1226 101.403 59.9546 100.814Z" fill="url(#paint24_radial_2359_720)"/>
<g opacity="0.75">
<path d="M51.3143 97.401C50.7843 97.3112 35.4812 99.6182 35.7197 99.656C39.4266 100.245 43.6861 100.421 43.9331 100.407C49.8917 100.05 59.9839 98.8689 51.3143 97.401Z" fill="#592910"/>
</g>
<path d="M44.8658 75.812C44.5269 75.757 44.0627 77.5632 43.0563 78.7808C42.2571 79.7479 38.1087 82.5689 38.0805 85.055C38.0601 87.382 39.4479 87.9607 40.5267 89.1874C40.9831 89.7068 49.1243 89.2712 49.0683 88.5733C48.9736 87.3944 48.3364 87.6739 49.0723 86.9424C49.6898 86.3322 51.3939 85.5973 51.6083 85.5898C51.9601 85.665 53.4452 86.3015 53.9238 87.2548C54.5638 88.5175 56.1002 90.8522 56.2006 92.1921C56.229 92.5707 65.7373 92.1132 65.8106 91.5337C65.9779 90.2113 65.899 87.8119 66.1722 86.3999C66.672 83.8259 65.5929 83.1743 65.8443 80.1279C66.0161 78.0481 64.7802 76.4438 64.348 76.57C60.154 77.7955 50.1343 76.6677 44.8658 75.812Z" fill="url(#paint25_radial_2359_720)"/>
<path d="M44.8658 75.812C44.5269 75.757 44.0627 77.5632 43.0563 78.7808C42.2571 79.7479 38.1087 82.5689 38.0805 85.055C38.0601 87.382 39.4479 87.9607 40.5267 89.1874C40.9831 89.7068 49.1243 89.2712 49.0683 88.5733C48.9736 87.3944 48.3364 87.6739 49.0723 86.9424C49.6898 86.3322 51.3939 85.5973 51.6083 85.5898C51.9601 85.665 53.4452 86.3015 53.9238 87.2548C54.5638 88.5175 56.1002 90.8522 56.2006 92.1921C56.229 92.5707 65.7373 92.1132 65.8106 91.5337C65.9779 90.2113 65.899 87.8119 66.1722 86.3999C66.672 83.8259 65.5929 83.1743 65.8443 80.1279C66.0161 78.0481 64.7802 76.4438 64.348 76.57C60.154 77.7955 50.1343 76.6677 44.8658 75.812Z" fill="url(#paint26_radial_2359_720)"/>
<path d="M44.8658 75.812C44.5269 75.757 44.0627 77.5632 43.0563 78.7808C42.2571 79.7479 38.1087 82.5689 38.0805 85.055C38.0601 87.382 39.4479 87.9607 40.5267 89.1874C40.9831 89.7068 49.1243 89.2712 49.0683 88.5733C48.9736 87.3944 48.3364 87.6739 49.0723 86.9424C49.6898 86.3322 51.3939 85.5973 51.6083 85.5898C51.9601 85.665 53.4452 86.3015 53.9238 87.2548C54.5638 88.5175 56.1002 90.8522 56.2006 92.1921C56.229 92.5707 65.7373 92.1132 65.8106 91.5337C65.9779 90.2113 65.899 87.8119 66.1722 86.3999C66.672 83.8259 65.5929 83.1743 65.8443 80.1279C66.0161 78.0481 64.7802 76.4438 64.348 76.57C60.154 77.7955 50.1343 76.6677 44.8658 75.812Z" fill="url(#paint27_linear_2359_720)"/>
<path d="M44.8658 75.812C44.5269 75.757 44.0627 77.5632 43.0563 78.7808C42.2571 79.7479 38.1087 82.5689 38.0805 85.055C38.0601 87.382 39.4479 87.9607 40.5267 89.1874C40.9831 89.7068 49.1243 89.2712 49.0683 88.5733C48.9736 87.3944 48.3364 87.6739 49.0723 86.9424C49.6898 86.3322 51.3939 85.5973 51.6083 85.5898C51.9601 85.665 53.4452 86.3015 53.9238 87.2548C54.5638 88.5175 56.1002 90.8522 56.2006 92.1921C56.229 92.5707 65.7373 92.1132 65.8106 91.5337C65.9779 90.2113 65.899 87.8119 66.1722 86.3999C66.672 83.8259 65.5929 83.1743 65.8443 80.1279C66.0161 78.0481 64.7802 76.4438 64.348 76.57C60.154 77.7955 50.1343 76.6677 44.8658 75.812Z" stroke="#111010" stroke-width="1.38558" stroke-linecap="round" stroke-linejoin="round"/>
<path d="M41.9465 88.9509C41.5685 88.948 41.4432 89.106 41.0762 89.0387C39.1419 86.1847 38.3255 85.7808 39.3654 83.8247C39.5573 83.4626 40.8581 83.0714 40.606 83.5477C39.4845 85.6669 40.2309 85.9366 41.9465 88.9509Z" fill="url(#paint28_linear_2359_720)" fill-opacity="0.85"/>
<path d="M64.5228 91.2435C64.8888 91.2146 64.9952 91.1838 65.346 91.0914C64.8662 86.1351 66.563 86.0566 65.1499 82.0227C65.0146 81.6364 65.7647 79.6049 64.7943 77.775C64.9077 77.598 63.7515 77.9065 63.7995 78.0487C64.5342 80.1819 63.71 80.7841 64.1201 82.1311C65.4906 86.633 63.5719 85.8032 64.5228 91.2435Z" fill="url(#paint29_linear_2359_720)" fill-opacity="0.85"/>
<path d="M46.7399 76.6176C45.2727 78.8931 38.61 82.1227 39.2765 83.0477C40.6531 83.7171 51.5967 81.5608 54.2026 77.9103C54.4589 77.5512 46.9928 76.2253 46.7399 76.6176Z" fill="url(#paint30_linear_2359_720)"/>
<path d="M46.7399 76.6176C45.2727 78.8931 38.61 82.1227 39.2765 83.0477C40.6531 83.7171 51.5967 81.5608 54.2026 77.9103C54.4589 77.5512 46.9928 76.2253 46.7399 76.6176Z" stroke="#111010" stroke-width="1.7186" stroke-linecap="round" stroke-linejoin="round"/>
<path d="M55.2783 78.1914C57.8785 81.3746 60.0279 82.0427 61.8493 85.7546C62.1941 86.1673 65.5772 86.2524 66.0385 86.2362" stroke="#111010" stroke-width="1.7186" stroke-linecap="round" stroke-linejoin="round"/>
<path d="M38.1363 83.9863C38.7947 85.6884 59.1936 82.9761 66.1405 83.0683C66.1306 82.7361 66.1065 81.373 65.9392 81.2826C63.2315 81.3392 40.4049 82.2785 45.0085 75.6971C45.1298 75.5237 43.3682 77.6665 42.9577 78.5518C42.6864 79.1369 38.0432 82.1173 38.1363 83.9863Z" fill="url(#paint31_linear_2359_720)"/>
<path d="M38.1363 83.9863C38.7947 85.6884 59.1936 82.9761 66.1405 83.0683C66.1306 82.7361 66.1065 81.373 65.9392 81.2826C63.2315 81.3392 40.4049 82.2785 45.0085 75.6971C45.1298 75.5237 43.3682 77.6665 42.9577 78.5518C42.6864 79.1369 38.0432 82.1173 38.1363 83.9863Z" stroke="#111010" stroke-width="1.7186" stroke-linecap="round" stroke-linejoin="round"/>
<path d="M39.2429 83.523C40.8177 84.2881 55.9333 82.3473 56.284 82.2548C54.6232 82.102 41.2031 83.4861 40.7601 82.9034C40.5124 82.5776 43.4318 80.7818 44.2727 79.3577C44.3565 79.2908 44.1015 78.9287 43.956 78.5284C43.8695 78.2898 43.7656 78.5798 43.507 78.9273C43.0692 79.5156 39.1923 82.5038 39.2429 83.523Z" fill="url(#paint32_linear_2359_720)"/>
<path d="M44.8173 73.4296C45.2954 74.9512 44.4346 75.272 44.9396 75.827C46.7976 77.8742 58.8671 78.4794 64.5469 76.766C65.3732 76.5012 64.2795 75.5271 65.0975 74.3746C58.1555 75.7843 48.776 75.4116 44.8173 73.4296Z" fill="#514F4D"/>
<path d="M44.8173 73.4296C45.2954 74.9512 44.4346 75.272 44.9396 75.827C46.7976 77.8742 58.8671 78.4794 64.5469 76.766C65.3732 76.5012 64.2795 75.5271 65.0975 74.3746C58.1555 75.7843 48.776 75.4116 44.8173 73.4296Z" stroke="#111010" stroke-width="1.7186" stroke-linecap="round" stroke-linejoin="round"/>
<path d="M45.9374 74.3402C46.1101 74.9083 45.397 75.4607 45.7763 76.2733" stroke="#111010" stroke-width="1.7186" stroke-linecap="round" stroke-linejoin="round"/>
<path d="M48.2101 75.006C48.3828 75.574 47.8555 76.1707 48.2348 76.9833" stroke="#111010" stroke-width="1.7186" stroke-linecap="round" stroke-linejoin="round"/>
<path d="M50.7554 75.3176C50.9281 75.8856 50.2402 76.4393 50.6194 77.2519" stroke="#111010" stroke-width="1.7186" stroke-linecap="round" stroke-linejoin="round"/>
<path d="M53.3957 75.5583C53.5684 76.1263 52.8291 76.5511 53.2084 77.3637" stroke="#111010" stroke-width="1.7186" stroke-linecap="round" stroke-linejoin="round"/>
<path d="M61.6151 75.1824C61.8282 75.7272 61.2535 76.4124 61.6812 77.1779" stroke="#111010" stroke-width="1.7186" stroke-linecap="round" stroke-linejoin="round"/>
<path d="M58.8958 75.5231C59.1091 76.0697 58.5596 76.6523 58.9876 77.4203" stroke="#111010" stroke-width="1.7186" stroke-linecap="round" stroke-linejoin="round"/>
<path d="M56.0402 75.6659C56.2532 76.2127 55.7825 76.8454 56.2101 77.6137" stroke="#111010" stroke-width="1.7186" stroke-linecap="round" stroke-linejoin="round"/>
<path d="M56.7338 92.5192C56.6776 92.2948 59.2615 92.1546 59.345 92.317C60.2988 94.1712 60.3001 97.288 60.7748 100.54C60.7925 100.661 57.5552 100.573 57.5728 100.401C57.7775 98.3972 57.7082 96.4113 56.7338 92.5192Z" fill="url(#paint33_linear_2359_720)"/>
<path d="M56.7338 92.5192C56.6776 92.2948 59.2615 92.1546 59.345 92.317C60.2988 94.1712 60.3001 97.288 60.7748 100.54C60.7925 100.661 57.5552 100.573 57.5728 100.401C57.7775 98.3972 57.7082 96.4113 56.7338 92.5192Z" stroke="url(#paint34_linear_2359_720)" stroke-width="1.7186" stroke-linecap="round" stroke-linejoin="round"/>
<path d="M66.3309 95.4427C66.6647 97.3119 67.6018 99.8272 67.5259 102.882C67.3949 108.451 54.9773 108.419 56.6419 102.292C56.8407 101.569 57.1738 99.3366 57.0462 97.2743C57.009 96.6724 56.1973 92.8721 56.3294 92.3363C56.7996 90.4289 65.6595 90.3342 65.9941 91.7152C66.1186 92.2287 66.2193 94.8175 66.3309 95.4427Z" fill="url(#paint35_radial_2359_720)"/>
<path d="M66.3309 95.4427C66.6647 97.3119 67.6018 99.8272 67.5259 102.882C67.3949 108.451 54.9773 108.419 56.6419 102.292C56.8407 101.569 57.1738 99.3366 57.0462 97.2743C57.009 96.6724 56.1973 92.8721 56.3294 92.3363C56.7996 90.4289 65.6595 90.3342 65.9941 91.7152C66.1186 92.2287 66.2193 94.8175 66.3309 95.4427Z" stroke="url(#paint36_linear_2359_720)" stroke-width="1.7186" stroke-linecap="round" stroke-linejoin="round"/>
<path d="M65.0329 92.8088C63.6071 92.4212 58.9904 92.9316 57.458 93.4258C57.3595 93.4576 57.2798 92.6533 57.4718 92.6053C59.0709 91.6429 63.2313 91.4547 64.923 92.0492C65.1383 92.1248 65.298 92.9315 65.0329 92.8088Z" fill="url(#paint37_linear_2359_720)"/>
<path d="M65.8275 96.875C63.2412 97.7218 58.9619 97.8959 57.6888 97.3638L65.8275 96.875Z" fill="#262323"/>
<path d="M65.8275 96.875C63.2412 97.7218 58.9619 97.8959 57.6888 97.3638" stroke="#787473" stroke-width="1.7186"/>
<path d="M65.4376 93.7773C63.7853 94.8527 58.9633 94.8413 57.1519 94.4694" stroke="#787473" stroke-width="1.7186"/>
<path d="M66.7755 102.281C64.9169 100.42 58.1532 100.339 57.042 102.898" stroke="#787472" stroke-width="1.7186" stroke-linecap="round" stroke-linejoin="round"/>
<path d="M66.7528 97.0664C64.2669 98.1741 58.9638 98.4402 57.0298 97.6188L66.7528 97.0664Z" fill="#262323"/>
<path d="M66.7528 97.0664C64.2669 98.1741 58.9638 98.4402 57.0298 97.6188" stroke="#111010" stroke-width="1.7186"/>
<path d="M66.1425 94.082C65.0278 94.7032 59.3644 95.6159 56.735 94.76L66.1425 94.082Z" fill="#262323"/>
<path d="M66.1425 94.082C65.0278 94.7032 59.3644 95.6159 56.735 94.76" stroke="#111010" stroke-width="1.7186"/>
<path d="M67.4536 102.799C67.0012 99.4524 57.4191 99.0495 56.7274 103.248" stroke="#111010" stroke-width="1.7186" stroke-linecap="round" stroke-linejoin="round"/>
<path d="M67.5916 103.866C67.7316 103.519 67.7505 105.371 67.632 105.583C65.7975 108.857 57.6998 108.392 56.5141 106.05C56.4218 105.867 56.3075 104.309 56.4869 104.549C58.7198 107.532 66.3341 106.978 67.5916 103.866Z" fill="#262323"/>
<path d="M67.5916 103.866C67.7316 103.519 67.7505 105.371 67.632 105.583C65.7975 108.857 57.6998 108.392 56.5141 106.05C56.4218 105.867 56.3075 104.309 56.4869 104.549C58.7198 107.532 66.3341 106.978 67.5916 103.866Z" stroke="#201F1F" stroke-width="1.7186" stroke-linecap="round" stroke-linejoin="round"/>
<path d="M67.623 105.578C65.7698 108.933 57.7244 108.376 56.567 106.043" stroke="#373534" stroke-width="1.28895" stroke-linecap="round" stroke-linejoin="round"/>
<path d="M48.6486 88.2825C48.6418 88.0664 44.09 89.3589 44.069 89.5284C43.8304 91.463 45.8259 94.5533 45.7412 97.6233C45.7381 97.7376 50.6493 96.9658 50.6428 96.8037C50.5666 94.9205 48.7927 92.7821 48.6486 88.2825Z" fill="url(#paint38_linear_2359_720)"/>
<path d="M48.6486 88.2825C48.6418 88.0664 44.09 89.3589 44.069 89.5284C43.8304 91.463 45.8259 94.5533 45.7412 97.6233C45.7381 97.7376 50.6493 96.9658 50.6428 96.8037C50.5666 94.9205 48.7927 92.7821 48.6486 88.2825Z" stroke="url(#paint39_linear_2359_720)" stroke-width="1.7186" stroke-linecap="round" stroke-linejoin="round"/>
<path d="M41.178 93.5309C41.3573 94.5325 35.5049 93.1396 35.5329 97.2412C35.5528 100.111 43.3044 99.1223 45.9144 97.747C46.0837 97.6577 45.612 95.2518 45.1024 93.3899C44.9537 92.8465 44.1407 89.1989 43.6376 89.0838C41.6814 88.6364 39.3698 88.4481 39.5001 89.5102C39.6191 90.4806 41.0733 92.9467 41.178 93.5309Z" fill="url(#paint40_radial_2359_720)"/>
<path d="M41.178 93.5309C41.3573 94.5325 35.5049 93.1396 35.5329 97.2412C35.5528 100.111 43.3044 99.1223 45.9144 97.747C46.0837 97.6577 45.612 95.2518 45.1024 93.3899C44.9537 92.8465 44.1407 89.1989 43.6376 89.0838C41.6814 88.6364 39.3698 88.4481 39.5001 89.5102C39.6191 90.4806 41.0733 92.9467 41.178 93.5309Z" stroke="url(#paint41_linear_2359_720)" stroke-width="1.7186" stroke-linecap="round" stroke-linejoin="round"/>
<path d="M40.6067 90.1455C41.299 89.8501 43.1455 90.2082 43.7848 90.2645C43.8877 90.2753 43.7372 89.7735 43.5406 89.7948C42.1239 89.4547 41.0048 89.3006 40.4875 89.5807C40.2869 89.6893 40.5213 90.1937 40.6067 90.1455Z" fill="url(#paint42_linear_2359_720)"/>
<path d="M41.6774 93.4844C44.3447 93.5689 46.6972 93.2004 48.8619 92.7786L41.6774 93.4844Z" fill="#262323"/>
<path d="M41.6774 93.4844C44.3447 93.5689 46.6972 93.2004 48.8619 92.7786" stroke="#787473" stroke-width="1.7186"/>
<path d="M40.9359 91.582C42.5838 91.5143 45.8822 91.1457 48.1946 90.4545" stroke="#787473" stroke-width="1.7186"/>
<path d="M39.3172 95.0859C40.7585 95.5077 40.6935 96.8263 40.7032 97.6827" stroke="#787472" stroke-width="1.7186" stroke-linecap="round" stroke-linejoin="round"/>
<path d="M41.117 93.6133C45.5787 94.4249 49.5905 92.302 52.1467 92.5927L41.117 93.6133Z" fill="#262323"/>
<path d="M41.117 93.6133C45.5787 94.4249 49.5905 92.302 52.1467 92.5927" stroke="#111010" stroke-width="1.7186"/>
<path d="M40.4991 91.6367C41.4904 91.8956 46.6688 91.7112 51.2561 89.3464L40.4991 91.6367Z" fill="#262323"/>
<path d="M40.4991 91.6367C41.4904 91.8956 46.6688 91.7112 51.2561 89.3464" stroke="#111010" stroke-width="1.7186"/>
<path d="M38.9709 94.2148C40.4842 94.2149 41.2806 95.9107 41.5759 97.6485" stroke="#111010" stroke-width="1.7186" stroke-linecap="round" stroke-linejoin="round"/>
<path d="M35.4603 97.4802C35.1195 97.4009 35.3843 98.9472 35.5832 99.0561C36.78 99.7117 44.442 100.368 50.8591 98.0722C51.0392 98.0077 51.0136 96.594 50.7448 96.674C44.2947 98.5931 38.7261 98.2406 35.4603 97.4802Z" fill="#262323"/>
<path d="M35.4603 97.4802C35.1195 97.4009 35.3843 98.9472 35.5832 99.0561C36.78 99.7117 44.442 100.368 50.8591 98.0722C51.0392 98.0077 51.0136 96.594 50.7448 96.674C44.2947 98.5931 38.7261 98.2406 35.4603 97.4802Z" stroke="#201F1F" stroke-width="1.7186" stroke-linecap="round" stroke-linejoin="round"/>
<path d="M35.5917 99.0547C37.1926 100.004 47.1884 99.6106 50.8097 98.0758" stroke="#373534" stroke-width="1.28895" stroke-linecap="round" stroke-linejoin="round"/>
<path d="M44.1104 89.8366C44.5775 91.2061 45.0288 92.6872 45.3332 94.2831" stroke="#111010" stroke-width="1.7186" stroke-linecap="round" stroke-linejoin="round"/>
<path d="M71.1388 69.8023C68.7366 68.5734 66.6129 68.3131 64.8719 65.2816C64.1352 63.9945 63.9694 61.4664 64.1205 60.2286C64.3004 58.5708 64.779 56.8959 66.0853 55.9563C67.079 55.238 69.9117 54.5591 71.0803 54.638C75.9878 54.97 76.9082 58.9679 76.4316 60.4414C77.1049 61.9318 78.1825 66.3027 77.567 68.4128C76.8625 70.8997 73.1977 70.8421 71.1388 69.8023Z" fill="url(#paint43_linear_2359_720)"/>
<path d="M71.1388 69.8023C68.7366 68.5734 66.6129 68.3132 64.8719 65.2816C64.1352 63.9945 63.9694 61.4664 64.1205 60.2286C64.3004 58.5708 64.779 56.8959 66.0853 55.9563C67.079 55.238 69.9117 54.5591 71.0803 54.638C75.9878 54.97 76.9082 58.9679 76.4316 60.4414C77.1049 61.9318 78.1825 66.3027 77.567 68.4128C76.8625 70.8997 73.1977 70.8421 71.1388 69.8023Z" stroke="#A46F3B" stroke-width="1.7186" stroke-linecap="round" stroke-linejoin="round"/>
<path d="M74.7922 60.9159C75.4698 62.4644 76.733 66.2339 75.469 66.5696C72.4962 67.2821 68.8618 65.2811 68.3024 62.2091C68.0806 60.9905 68.512 56.5331 72.1348 57.2164C75.3317 57.7745 74.5133 60.2512 74.7922 60.9159Z" fill="url(#paint44_linear_2359_720)"/>
<path d="M71.4986 56.6326C73.4222 56.1236 75.5905 58.9752 74.5449 59.6046C73.7305 60.0949 69.9764 57.0354 71.4986 56.6326Z" fill="#FFEBD4"/>
<path d="M73.7114 61.3772C75.6359 60.8681 76.4869 64.7284 75.436 65.3498C74.5043 65.8992 72.1886 61.78 73.7114 61.3772Z" fill="#FFEBD4"/>
<path d="M69.1937 80.6317C68.6404 80.7435 67.7418 80.7102 67.4234 81.0046C67.116 81.2806 66.7594 82.8203 65.7542 82.4847C65.0217 82.1997 65.338 80.2823 65.9959 79.578C66.758 78.6583 68.0673 78.7813 69.4315 78.5034" fill="url(#paint45_linear_2359_720)"/>
<path d="M69.1937 80.6317C68.6404 80.7435 67.7418 80.7102 67.4234 81.0046C67.116 81.2806 66.7594 82.8203 65.7542 82.4847C65.0217 82.1997 65.338 80.2823 65.9959 79.578C66.758 78.6583 68.0673 78.7813 69.4315 78.5034" stroke="#A46F3B" stroke-width="1.7186" stroke-linecap="round" stroke-linejoin="round"/>
<path d="M77.1046 67.0725C79.7027 72.2517 74.665 77.3464 74.3678 79.3657C74.2479 80.0159 74.0404 80.8305 74.0841 81.8451C74.0131 83.4795 72.6643 85.7651 71.8187 86.1531C70.2713 86.8315 67.6985 86.4364 66.8266 85.017C65.8129 83.5296 68.8742 79.3129 69.1781 78.7026C70.2059 76.7963 67.6103 71.5832 70.4539 68.3768" fill="url(#paint46_linear_2359_720)"/>
<path d="M77.1046 67.0725C79.7027 72.2517 74.665 77.3464 74.3678 79.3657C74.2479 80.0159 74.0404 80.8305 74.0841 81.8451C74.0131 83.4795 72.6643 85.7651 71.8187 86.1531C70.2713 86.8315 67.6985 86.4364 66.8266 85.017C65.8129 83.5296 68.8742 79.3129 69.1781 78.7026C70.2059 76.7963 67.6103 71.5832 70.4539 68.3768" fill="url(#paint47_linear_2359_720)"/>
<path d="M77.1046 67.0725C79.7027 72.2517 74.665 77.3464 74.3678 79.3657C74.2479 80.0159 74.0404 80.8305 74.0841 81.8451C74.0131 83.4795 72.6643 85.7651 71.8187 86.1531C70.2713 86.8315 67.6985 86.4364 66.8266 85.017C65.8129 83.5296 68.8742 79.3129 69.1781 78.7026C70.2059 76.7963 67.6103 71.5832 70.4539 68.3768" stroke="#A46F3B" stroke-width="1.7186" stroke-linecap="round" stroke-linejoin="round"/>
<path d="M71.5225 70.2369C72.1525 68.6796 74.4602 68.612 75.1459 70.2517C75.6325 71.4153 73.9607 75.9268 72.0339 77.2952C71.0768 78.1226 70.5709 72.383 71.5225 70.2369Z" fill="url(#paint48_linear_2359_720)"/>
<path d="M71.4795 72.2244C70.6901 69.872 73.882 67.8138 75.067 69.7301C75.2467 70.0589 74.6268 69.9002 73.4237 70.3386C72.2074 70.7817 71.4531 72.469 71.4795 72.2244Z" fill="#FFEBD4"/>
<g opacity="0.638695">
<path d="M69.6242 78.2592C69.0829 78.523 66.7194 78.7032 66.0427 79.8757C65.4617 80.8823 65.5961 82.9835 66.3021 83.0117C67.4627 83.0581 67.2461 81.589 67.7233 81.0784C68.0381 80.7415 68.1329 80.7449 68.3608 80.5516" fill="url(#paint49_linear_2359_720)"/>
<path d="M69.6242 78.2592C69.0829 78.523 66.7194 78.7032 66.0427 79.8757C65.4617 80.8823 65.5961 82.9835 66.3021 83.0117C67.4627 83.0581 67.2461 81.589 67.7233 81.0784C68.0381 80.7415 68.1329 80.7449 68.3608 80.5516" stroke="#A46F3B" stroke-width="1.7186" stroke-linecap="round" stroke-linejoin="round"/>
</g>
<path d="M39.325 74.0908C38.2994 74.3953 37.0584 75.0126 36.2999 75.3968C35.2053 75.931 33.7634 77.3135 33.7212 78.1362C33.6053 79.4812 35.8763 81.6261 37.4424 81.4457C38.5548 81.2781 39.464 80.5062 40.3131 79.7835C40.6967 79.3584 41.5695 78.886 42.0676 77.8281" fill="url(#paint50_linear_2359_720)"/>
<path d="M39.325 74.0908C38.2994 74.3953 37.0584 75.0126 36.2999 75.3968C35.2053 75.931 33.7634 77.3135 33.7212 78.1362C33.6053 79.4812 35.8763 81.6261 37.4424 81.4457C38.5548 81.2781 39.464 80.5062 40.3131 79.7835C40.6967 79.3584 41.5695 78.886 42.0676 77.8281" fill="url(#paint51_linear_2359_720)"/>
<path d="M39.325 74.0908C38.2994 74.3953 37.0584 75.0126 36.2999 75.3968C35.2053 75.931 33.7634 77.3135 33.7212 78.1362C33.6053 79.4812 35.8763 81.6261 37.4424 81.4457C38.5548 81.2781 39.464 80.5062 40.3131 79.7835C40.6967 79.3584 41.5695 78.886 42.0676 77.8281" stroke="#A46F3B" stroke-width="1.7186" stroke-linecap="round" stroke-linejoin="round"/>
<path d="M39.8878 75.9284C39.4495 76.3632 38.7518 76.7904 38.4211 77.1184C38.0111 77.5888 36.8691 78.7667 35.9918 77.9347C35.2514 77.1846 36.0338 76.0493 37.1659 75.2847C38.0552 74.5947 38.7192 74.0396 39.617 73.7119" fill="url(#paint52_linear_2359_720)"/>
<path d="M39.8878 75.9284C39.4495 76.3632 38.7518 76.7904 38.4211 77.1184C38.0111 77.5888 36.8691 78.7667 35.9918 77.9347C35.2514 77.1846 36.0338 76.0493 37.1659 75.2847C38.0552 74.5947 38.7192 74.0396 39.617 73.7119" stroke="#A46F3B" stroke-width="1.7186" stroke-linecap="round" stroke-linejoin="round"/>
<path d="M57.8908 81.4748C50.7124 81.263 41.8581 80.1894 44.8883 75.8573C45.0096 75.6839 43.2482 77.8265 42.8377 78.7118C42.5664 79.2969 37.923 82.2774 38.0161 84.1465C38.4957 85.3865 49.4525 84.2838 58.0523 83.6291" fill="url(#paint53_linear_2359_720)"/>
<path d="M57.8908 81.4748C50.7124 81.263 41.8581 80.1894 44.8883 75.8573C45.0096 75.6839 43.2482 77.8265 42.8377 78.7118C42.5664 79.2969 37.923 82.2774 38.0161 84.1465C38.4957 85.3865 49.4525 84.2838 58.0523 83.6291" stroke="#111010" stroke-width="1.7186" stroke-linecap="round" stroke-linejoin="round"/>
<path d="M39.1203 83.6714C40.6951 84.4366 55.9324 82.347 56.2831 82.2546C54.6222 82.1018 41.0805 83.6345 40.6375 83.0518C40.3898 82.726 43.3094 80.9303 44.1503 79.5062C44.2341 79.4392 43.9789 79.0771 43.8334 78.6768C43.7469 78.4383 43.6431 78.7282 43.3846 79.0758C42.9468 79.6641 39.0697 82.6522 39.1203 83.6714Z" fill="url(#paint54_linear_2359_720)"/>
<path d="M74.6197 50.1504C83.7663 58.8754 58.3471 60.0876 55.0178 61.1727C50.2738 62.719 45.4098 66.5909 43.3099 66.9795C41.2907 67.3878 38.3216 61.094 38.9319 57.6343C39.6346 53.792 43.3755 53.3843 44.425 53.4677C50.6235 54.0456 72.8669 48.4908 74.6197 50.1504Z" fill="url(#paint55_linear_2359_720)"/>
<path d="M74.6197 50.1504C83.7663 58.8754 58.3471 60.0876 55.0178 61.1727C50.2738 62.719 45.4098 66.5909 43.3099 66.9795C41.2907 67.3878 38.3216 61.094 38.9319 57.6343C39.6346 53.792 43.3755 53.3843 44.425 53.4677C50.6235 54.0456 72.8669 48.4908 74.6197 50.1504Z" stroke="#111010" stroke-width="1.7186" stroke-linecap="round" stroke-linejoin="round"/>
<path d="M54.5903 55.0298C59.7926 57.9866 48.5209 64.2421 45.0023 64.2382C41.9816 64.2386 39.0735 55.2961 44.1404 54.2101C45.3386 53.9533 52.8425 54.029 54.5903 55.0298Z" fill="url(#paint56_linear_2359_720)"/>
<path d="M74.7823 50.0899C83.8381 58.8983 60.852 58.9002 55.2373 61.3511C46.3149 65.2535 46.6247 70.2286 44.0244 69.0527C40.3664 67.3789 34.7022 58.3914 44.1519 55.6747C46.8995 55.226 73.1233 48.4752 74.7823 50.0899Z" fill="url(#paint57_linear_2359_720)"/>
<path d="M74.7823 50.0899C83.8381 58.8983 60.852 58.9002 55.2373 61.3511C46.3149 65.2535 46.6247 70.2286 44.0244 69.0527C40.3664 67.3789 34.7022 58.3914 44.1519 55.6747C46.8995 55.226 73.1233 48.4752 74.7823 50.0899Z" stroke="#111010" stroke-width="1.7186" stroke-linecap="round" stroke-linejoin="round"/>
<path d="M73.184 50.8149C79.8574 56.8579 58.2365 58.9568 55.2055 59.5328C50.8867 60.3537 47.9043 64.1439 45.2256 65.748C42.8248 67.3737 40.1255 59.5338 43.0515 57.2087C45.5474 54.8325 71.6919 49.4873 73.184 50.8149Z" fill="url(#paint58_linear_2359_720)"/>
<path d="M46.8466 62.1158C45.9257 63.8618 43.8277 65.0219 45.2479 68.2992" stroke="#111010" stroke-width="1.7186" stroke-linecap="round" stroke-linejoin="round"/>
<path d="M27.9131 36.6262C29.8741 34.6427 33.277 36.3784 34.7036 39.7841C36.2162 43.3948 35.058 46.2757 32.7368 46.7158C29.4312 47.3428 24.3662 40.2136 27.9131 36.6262Z" fill="url(#paint59_linear_2359_720)"/>
<path d="M27.9131 36.6262C29.8741 34.6427 33.277 36.3784 34.7036 39.7841C36.2162 43.3948 35.058 46.2757 32.7368 46.7158C29.4312 47.3428 24.3662 40.2136 27.9131 36.6262Z" stroke="#A46F3B" stroke-width="1.7186" stroke-linecap="round" stroke-linejoin="round"/>
<path d="M76.4964 49.5527C76.4964 49.5527 69.5755 53.0659 64.0891 54.3621C58.9987 55.5647 38.1187 56.7266 38.1187 56.7266C32.9603 56.8344 28.0447 53.2249 26.8363 46.8394L24.2612 33.2321C23.0528 26.8468 25.6827 20.271 31.1494 19.9C31.1494 19.9 53.4498 18.1288 57.8773 17.187C62.1566 16.2768 69.5271 12.7261 69.5271 12.7261C73.4596 11.0079 78.6886 16.401 79.897 22.7863L82.4721 36.3934C83.6805 42.7787 81.2433 47.2706 76.4964 49.5527Z" fill="url(#paint60_linear_2359_720)"/>
<path d="M76.4964 49.5527C76.4964 49.5527 69.5755 53.0659 64.0891 54.3621C58.9987 55.5647 38.1187 56.7266 38.1187 56.7266C32.9603 56.8344 28.0447 53.2249 26.8363 46.8394L24.2612 33.2321C23.0528 26.8468 25.6827 20.271 31.1494 19.9C31.1494 19.9 53.4498 18.1287 57.8773 17.187C62.1566 16.2768 69.5271 12.7261 69.5271 12.7261C73.4596 11.0079 78.6886 16.401 79.897 22.7863L82.4721 36.3934C83.6805 42.7787 81.2433 47.2706 76.4964 49.5527Z" stroke="#A46F3B" stroke-width="1.7186" stroke-linecap="round" stroke-linejoin="round"/>
<path d="M74.9551 47.1586C73.0325 48.1156 66.043 50.9304 64.1671 51.2421C62.9942 51.4251 40.9683 53.7525 40.9683 53.7525C34.0261 54.2861 31.1287 51.5365 29.9203 45.1513L27.9019 34.4854C27.4262 31.7815 27.3054 27.9369 30.5552 28.4485C30.5552 28.4485 34.0981 29.0023 36.0971 28.6462C42.918 27.472 46.2031 23.7233 49.3966 23.4271C62.1619 22.242 68.074 18.9905 68.128 18.9664C72.9698 16.8625 75.8478 19.8775 77.0451 26.2043L79.6652 38.0885C80.3671 42.097 77.971 45.7138 74.9551 47.1586Z" fill="url(#paint61_linear_2359_720)"/>
<g opacity="0.85">
<path d="M34.1284 50.9361C34.5302 50.8271 34.9716 50.6996 35.4875 50.5991" stroke="#402B1E" stroke-width="1.7186" stroke-linecap="round" stroke-linejoin="round"/>
<path d="M38.0287 50.1641C39.4858 50.0137 41.5315 50.0288 42.7394 50.163" stroke="#402B1E" stroke-width="1.7186" stroke-linecap="round" stroke-linejoin="round"/>
<path d="M34.4738 52.8104C34.3776 52.9991 34.872 54.0217 35.1097 54.1745C35.6848 54.5495 40.8009 54.6565 42.1417 54.0611C42.6328 53.843 42.8603 52.2912 42.6882 52.1769C42.581 52.0944 43.2838 54.225 39.2408 54.1802C37.4965 54.1606 37.5386 52.5084 37.4343 52.5052C37.3333 52.5026 37.7078 53.8528 36.9352 54.0376C34.0851 54.7139 34.6269 52.5101 34.4738 52.8104Z" stroke="url(#paint62_linear_2359_720)" stroke-width="1.7186"/>
<path d="M34.4738 52.8104C34.3776 52.9991 34.872 54.0217 35.1097 54.1745C35.6848 54.5495 40.8009 54.6565 42.1417 54.0611C42.6328 53.843 42.8603 52.2912 42.6882 52.1769C42.581 52.0944 43.2838 54.225 39.2408 54.1802C37.4965 54.1606 37.5386 52.5084 37.4343 52.5052C37.3333 52.5026 37.7078 53.8528 36.9352 54.0376C34.0851 54.7139 34.6269 52.5101 34.4738 52.8104Z" stroke="#402B1E" stroke-width="1.7186" stroke-linecap="round" stroke-linejoin="round"/>
</g>
<path d="M34.891 49.1172C35.2074 49.0572 38.0072 48.554 38.0072 48.554" stroke="#FFEBD4" stroke-width="1.28895" stroke-linecap="round"/>
<path d="M35.4733 43.4508C35.4733 43.4508 35.0939 46.592 34.7926 48.6072L37.9334 48.0282C36.9723 46.2701 35.4733 43.4508 35.4733 43.4508Z" fill="#FFE4C4"/>
<path d="M35.4733 43.4508C35.4733 43.4508 35.0939 46.592 34.7926 48.6072L37.9334 48.0282C36.9723 46.2701 35.4733 43.4508 35.4733 43.4508Z" stroke="#F6C694" stroke-width="1.28895" stroke-linecap="round" stroke-linejoin="round"/>
<path d="M34.7946 48.6172C35.111 48.5572 37.9108 48.054 37.9108 48.054" stroke="#D8A16C" stroke-width="1.28895" stroke-linecap="round"/>
<path d="M29.5155 42.6621C29.9164 44.7796 29.4977 46.417 28.6267 46.582C27.7557 46.7471 26.7623 45.3774 26.3614 43.2598C25.9605 41.1423 26.3415 39.292 27.2125 39.1269C28.0835 38.9619 29.1146 40.5445 29.5155 42.6621Z" fill="#FFEBD4"/>
<path d="M29.2796 41.4348C29.6261 43.1687 28.7166 43.0977 27.8107 43.2694C26.9048 43.4411 26.3115 43.7096 25.9993 42.0564C25.5993 39.9388 26.0077 38.0835 26.9136 37.9118C27.8195 37.7402 28.8575 39.3221 29.2796 41.4348Z" fill="#D79F6A"/>
<path d="M29.3965 42.0835C29.5864 43.0823 28.7317 42.901 27.7972 43.0781C26.8627 43.2552 26.1919 43.6509 26.0126 42.7247C25.6031 40.6097 26.0809 38.9424 27.0153 38.7653C27.9498 38.5882 28.9942 39.9668 29.3965 42.0835Z" fill="url(#paint63_radial_2359_720)"/>
<path d="M29.3967 42.0817C29.929 43.3053 29.3481 44.8278 27.9872 45.0299C26.9004 45.1958 25.9822 43.9679 25.9176 42.741C25.9011 41.3475 26.4471 41.0375 27.2003 40.8961C28.2905 40.692 28.784 40.7818 29.3967 42.0817Z" fill="#05090E"/>
<g opacity="0.196146">
<path d="M28.1829 43.5283C27.273 43.56 26.2893 42.8309 26.5609 43.769C26.6903 44.2852 27.0973 44.6864 27.5753 44.6307C28.28 44.5499 28.5746 43.5147 28.1829 43.5283Z" fill="url(#paint64_radial_2359_720)"/>
</g>
<g opacity="0.392293">
<path d="M28.1226 42.2583C28.2926 43.0046 27.8793 43.0951 27.3568 43.169C26.8276 43.2435 26.3627 43.1604 26.2327 42.3856C26.0961 41.5379 26.4977 41.3602 27.0152 41.3215C27.5793 41.2854 27.9616 41.5349 28.1226 42.2583Z" fill="url(#paint65_radial_2359_720)"/>
</g>
<path d="M55.3453 39.9326C55.8554 42.6281 54.0845 45.2273 51.3896 45.7382C48.6947 46.2492 46.0967 44.4784 45.5866 41.7828C45.0765 39.0873 46.8475 36.4882 49.5424 35.9772C52.2373 35.4663 54.8352 37.2371 55.3453 39.9326Z" fill="#FFEBD4"/>
<path d="M54.9863 38.077C55.4569 40.2787 52.8271 40.4675 50.1323 40.9784C47.4375 41.4893 45.624 42.0319 45.2279 39.9272C44.7206 37.2313 46.4887 34.6327 49.1835 34.1218C51.8783 33.6109 54.4129 35.3945 54.9863 38.077Z" fill="#D79F6A"/>
<path d="M55.1004 39.1235C55.2285 40.1538 53.4222 40.7177 50.6698 41.2396C47.9174 41.7614 45.7949 42.4227 45.4278 40.9412C44.7689 38.2821 46.1945 35.652 49.368 35.0824C52.1253 34.5876 54.776 36.5132 55.1004 39.1235Z" fill="url(#paint66_radial_2359_720)"/>
<path d="M55.1641 39.0242C55.9369 40.8139 53.8761 42.9799 50.4547 43.468C47.5453 43.8955 45.4097 42.7788 45.4059 40.8743C45.4013 38.9728 46.5618 38.6915 49.5204 38.2029C52.9929 37.6377 54.3642 37.204 55.1641 39.0242Z" fill="#05090E"/>
<g opacity="0.206655">
<path d="M51.5998 41.3263C48.9008 41.8429 46.9225 41.1642 47.0352 42.0104C47.1069 42.5629 48.2598 42.9916 49.5919 42.7932C51.3816 42.5202 52.1706 41.2419 51.5998 41.3263Z" fill="url(#paint67_radial_2359_720)"/>
</g>
<g opacity="0.459886">
<path d="M51.6565 39.4041C51.9211 40.439 50.7356 40.6795 49.2768 40.9393C47.8028 41.2016 46.5766 41.2679 46.4084 40.1912C46.3244 39.252 47.398 39.3494 48.8379 39.1293C50.3827 38.8996 51.4258 38.5015 51.6565 39.4041Z" fill="url(#paint68_radial_2359_720)"/>
</g>
<path d="M24.4125 37.0309C25.2025 36.3679 25.3827 36.2908 26.0458 36.2084C26.7538 36.1205 27.4616 36.7767 28.8472 36.7801C29.0689 36.7806 29.2241 38.0093 26.401 36.4041C26.094 36.2297 25.6311 36.2652 25.294 36.3907" stroke="#3E2617" stroke-width="0.909568" stroke-linecap="round" stroke-linejoin="round"/>
<path d="M54.6216 31.5314C52.0897 31.3578 51.5664 31.4023 49.7877 31.7945C47.8893 32.2131 46.5352 33.4761 42.9473 34.4947C42.3735 34.6577 42.8702 36.1653 49.0109 32.2766C49.6786 31.8539 50.904 31.5552 51.8693 31.4507" stroke="#3E2617" stroke-width="1.7186" stroke-linecap="round" stroke-linejoin="round"/>
<path d="M72.8866 31.4166C74.1634 29.9646 77.2837 30.1712 77.7053 30.3141C81.4561 31.5866 80.3599 38.2732 77.0471 41.0642C76.0743 41.8837 73.6744 42.2342 73.0944 40.6324" fill="#E3AE7A"/>
<path d="M67.8681 38.8536C66.9168 39.1529 65.5186 31.6825 64.7909 31.3345C63.636 30.7819 64.9823 24.3617 56.5892 21.4031C51.8523 19.7293 47.6142 22.3382 45.5528 22.0542C42.9294 21.6927 38.0927 26.3781 33.6196 27.0877C30.9584 27.5075 27.249 24.8218 24.4704 25.9694C23.7425 26.4172 23.7951 27.0119 23.6597 27.302C23.4507 27.7499 23.6858 28.8271 23.6548 29.4774C23.6162 29.6013 23.4231 30.3574 23.1408 29.3167C22.8317 29.0656 22.4089 28.6674 22.4001 28.0107C22.39 27.5274 21.8656 27.6137 22.0069 26.6659C22.049 26.3761 21.4991 24.6753 21.5558 24.102C21.5859 23.7982 21.8969 23.002 22.089 22.7071C22.2563 22.4502 21.648 21.9046 21.9271 21.6933C22.1659 21.5126 19.5604 14.1791 25.6629 12.6024C26.0073 12.5126 25.3239 6.9412 38.0613 7.0439C38.3356 7.04611 38.7248 7.39882 39.2644 6.22762C39.4365 5.87625 40.5669 1.26127 57.0463 4.25411C57.24 4.29865 58.5851 0.345659 62.7158 3.70998C62.9825 3.92599 62.8537 4.06513 63.2339 3.93955C63.4581 3.79056 66.0836 3.02563 67.3408 3.38605C68.9502 3.91466 68.0744 5.48138 68.329 5.47082C76.7353 5.12421 79.6576 13.1337 79.3843 14.7844C81.5822 16.0919 82.9793 23.1391 81.998 25.5929C82.0076 25.6507 83.5852 35.1994 82.7745 35.9198C78.4789 38.8014 78.3803 26.4044 69.82 28.8428C66.2343 30.0722 69.615 38.3212 67.8681 38.8536Z" fill="url(#paint69_linear_2359_720)"/>
<path d="M67.8681 38.8536C66.9168 39.1529 65.5186 31.6825 64.7909 31.3345C63.636 30.7819 64.9823 24.3617 56.5892 21.4031C51.8523 19.7293 47.6142 22.3382 45.5528 22.0542C42.9294 21.6927 38.0928 26.3781 33.6196 27.0877C30.9584 27.5075 27.249 24.8218 24.4704 25.9694C23.7425 26.4172 23.7951 27.0119 23.6597 27.302C23.4507 27.7499 23.6858 28.8271 23.6548 29.4774C23.6162 29.6013 23.4231 30.3574 23.1408 29.3167C22.8317 29.0656 22.4089 28.6674 22.4001 28.0107C22.39 27.5274 21.8656 27.6137 22.0069 26.6659C22.049 26.3761 21.4991 24.6753 21.5558 24.102C21.5859 23.7982 21.8969 23.002 22.089 22.7071C22.2563 22.4502 21.648 21.9046 21.9271 21.6933C22.1659 21.5126 19.5604 14.1791 25.6629 12.6024C26.0073 12.5126 25.3239 6.9412 38.0613 7.04391C38.3356 7.04611 38.7248 7.39882 39.2644 6.22762C39.4365 5.87625 40.5669 1.26127 57.0463 4.25411C57.24 4.29865 58.5851 0.345659 62.7158 3.70998C62.9825 3.92599 62.8537 4.06513 63.2339 3.93955C63.4581 3.79056 66.0836 3.02563 67.3408 3.38605C68.9502 3.91466 68.0744 5.48138 68.329 5.47082C76.7353 5.12421 79.6576 13.1337 79.3843 14.7844C81.5822 16.0919 82.9793 23.1391 81.998 25.5929C82.0076 25.6507 83.5852 35.1994 82.7745 35.9198C78.4789 38.8014 78.3803 26.4044 69.82 28.8428C66.2343 30.0722 69.615 38.3212 67.8681 38.8536Z" stroke="url(#paint70_linear_2359_720)" stroke-width="1.7186"/>
<path d="M55.8601 17.896C53.7502 17.996 65.1645 8.87197 66.9915 8.07621C71.9455 5.91275 77.6362 13.2406 77.3405 15.4362C83.532 27.7326 73.4747 17.6441 66.9094 24.7919C63.7939 18.0967 57.567 17.8151 55.8601 17.896Z" fill="#402A1D"/>
<path d="M47.957 18.9142C43.6606 17.9055 37.8544 23.8161 34.5209 23.9111C32.8859 24.0073 29.3736 22.0211 25.9832 22.8352C24.3767 23.3439 24.2186 24.5867 24.2639 23.9956C24.1215 23.3939 24.2416 22.4336 24.5789 21.97C24.7786 21.6747 22.3792 16.0992 27.5433 14.6475C27.8437 14.5618 27.2414 9.64999 37.6308 9.84606C38.8133 9.90976 40.9073 8.7795 41.1581 8.25944C41.5401 7.21439 43.2883 4.7765 57.033 7.12322C57.2067 7.14296 58.9216 3.94492 60.5698 5.76509C60.7699 5.98487 61.3307 6.16547 62.0037 6.34778C62.238 6.39877 63.8677 5.83022 63.531 6.47001C63.122 6.92461 49.6198 19.26 47.957 18.9142Z" fill="#402A1D"/>
<path d="M44.3031 10.0195C45.7109 10.2149 51.19 12.0732 52.722 15.2756" stroke="#745F54" stroke-width="0.8593" stroke-linecap="round" stroke-linejoin="round"/>
<path d="M68.4415 16.9783C66.5382 16.2531 63.4006 16.3865 62.8563 16.4844" stroke="#745F54" stroke-width="0.8593" stroke-linecap="round" stroke-linejoin="round"/>
<path d="M70.2583 13.2526C67.4517 13.015 61.8847 13.1444 60.6104 14.2905C60.0947 14.7542 63.6572 11.0268 66.0609 10.2302" stroke="#745F54" stroke-width="0.8593" stroke-linecap="round" stroke-linejoin="round"/>
<path d="M58.1771 12.3414C57.8047 8.02385 53.9103 7.81585 53.4513 8.00726C52.9209 8.22849 55.1967 9.44311 54.5759 12.2003C54.4684 12.6835 51.4536 10.2536 48.2329 9.24835C47.8333 9.18597 51.8762 13.1205 52.7859 15.9207C52.9575 16.3241 55.7439 12.6217 55.9279 11.9932C56.2293 11.2659 58.2233 12.8772 58.1771 12.3414Z" fill="#745E53"/>
<path d="M44.9171 16.1637C46.3651 16.2849 50.6952 17.8547 50.3117 17.5142C43.1099 11.0707 33.9288 12.7432 35.1971 13.0301C39.1291 13.7797 42.5864 16.3613 41.871 16.2517C34.5085 15.0724 39.5469 18.5707 38.9909 18.4428C31.999 16.5876 26.1572 18.9358 28.8596 18.8032C34.9384 18.5908 41.9641 21.7574 41.2853 20.0518C40.9107 18.7263 41.6379 17.381 44.2495 17.8662C45.7514 18.207 43.3459 16.0322 44.9171 16.1637Z" fill="#745E53"/>
<path d="M71.2502 30.4669C72.4164 29.1678 74.0919 29.0804 74.4811 29.2134C78.2389 30.4651 77.8446 36.5162 75.743 39.317C75.3363 39.8589 74.0014 40.7288 73.3373 40.6398" fill="url(#paint71_linear_2359_720)"/>
<path d="M71.2502 30.4669C72.4164 29.1678 74.0919 29.0804 74.4811 29.2134C78.2389 30.4651 77.8446 36.5162 75.743 39.317C75.3363 39.8589 74.0014 40.7288 73.3373 40.6398" stroke="#A46F3B" stroke-width="1.7186" stroke-linecap="round" stroke-linejoin="round"/>
</g>
</g>
<defs>
<linearGradient id="paint0_linear_2359_720" x1="66.8654" y1="94.656" x2="70.8399" y2="99.3803" gradientUnits="userSpaceOnUse">
<stop stop-color="#BA8468"/>
<stop offset="0.5" stop-color="#AA765E"/>
<stop offset="1" stop-color="#9A6953"/>
</linearGradient>
<linearGradient id="paint1_linear_2359_720" x1="67.8316" y1="94.8171" x2="69.0137" y2="99.543" gradientUnits="userSpaceOnUse">
<stop stop-color="#8B5B45"/>
<stop offset="0.5" stop-color="#72422B"/>
<stop offset="1" stop-color="#592910"/>
</linearGradient>
<linearGradient id="paint2_linear_2359_720" x1="66.8668" y1="94.6588" x2="70.8414" y2="99.3832" gradientUnits="userSpaceOnUse">
<stop stop-color="#BA8468"/>
<stop offset="0.5" stop-color="#AA765E"/>
<stop offset="1" stop-color="#9A6953"/>
</linearGradient>
<radialGradient id="paint3_radial_2359_720" cx="0" cy="0" r="1" gradientUnits="userSpaceOnUse" gradientTransform="translate(65.7925 98.204) scale(11.5699 11.5752)">
<stop stop-color="#6E371D"/>
<stop offset="0.5" stop-color="#84543D"/>
<stop offset="1" stop-color="#9A705E"/>
</radialGradient>
<radialGradient id="paint4_radial_2359_720" cx="0" cy="0" r="1" gradientUnits="userSpaceOnUse" gradientTransform="translate(65.7909 98.2026) scale(11.5699 11.5752)">
<stop stop-color="#6E371D"/>
<stop offset="0.5" stop-color="#84543D"/>
<stop offset="1" stop-color="#9A705E"/>
</radialGradient>
<linearGradient id="paint5_linear_2359_720" x1="118.457" y1="61.9256" x2="99.4376" y2="62.1698" gradientUnits="userSpaceOnUse">
<stop stop-color="#656361"/>
<stop offset="0.5" stop-color="#464342"/>
<stop offset="1" stop-color="#262323"/>
</linearGradient>
<linearGradient id="paint6_linear_2359_720" x1="91.4819" y1="60.911" x2="91.5378" y2="69.5015" gradientUnits="userSpaceOnUse">
<stop stop-color="#656361"/>
<stop offset="0.5" stop-color="#464342" stop-opacity="0.5"/>
<stop offset="1" stop-color="#262323" stop-opacity="0"/>
</linearGradient>
<linearGradient id="paint7_linear_2359_720" x1="82.8496" y1="62.8386" x2="93.2421" y2="76.7244" gradientUnits="userSpaceOnUse">
<stop stop-color="#2E2E2E"/>
<stop offset="0.5" stop-color="#2A2929"/>
<stop offset="1" stop-color="#262323"/>
</linearGradient>
<linearGradient id="paint8_linear_2359_720" x1="98.5788" y1="75.7149" x2="80.7755" y2="79.3606" gradientUnits="userSpaceOnUse">
<stop stop-color="#656361"/>
<stop offset="0.5" stop-color="#464342"/>
<stop offset="1" stop-color="#262323"/>
</linearGradient>
<linearGradient id="paint9_linear_2359_720" x1="87.8964" y1="66.7268" x2="77.9723" y2="80.9513" gradientUnits="userSpaceOnUse">
<stop stop-color="#2E2E2E"/>
<stop offset="0.5" stop-color="#2A2929"/>
<stop offset="1" stop-color="#262323"/>
</linearGradient>
<linearGradient id="paint10_linear_2359_720" x1="40.5421" y1="55.892" x2="52.8454" y2="73.6275" gradientUnits="userSpaceOnUse">
<stop stop-color="#FFD0A0"/>
<stop offset="0.5" stop-color="#EAB784"/>
<stop offset="1" stop-color="#D59D67"/>
</linearGradient>
<linearGradient id="paint11_linear_2359_720" x1="41.7661" y1="59.4657" x2="47.0228" y2="66.6666" gradientUnits="userSpaceOnUse">
<stop stop-color="#FFE4C4"/>
<stop offset="0.5" stop-color="#FFDAB2"/>
<stop offset="1" stop-color="#FFD0A0"/>
</linearGradient>
<linearGradient id="paint12_linear_2359_720" x1="55.8352" y1="74.7723" x2="35.9733" y2="71.1593" gradientUnits="userSpaceOnUse">
<stop stop-color="#FFD0A0"/>
<stop offset="0.5" stop-color="#EAB784"/>
<stop offset="1" stop-color="#D59D67"/>
</linearGradient>
<linearGradient id="paint13_linear_2359_720" x1="38.9596" y1="78.5428" x2="37.5017" y2="74.6629" gradientUnits="userSpaceOnUse">
<stop stop-color="#FFD1A2"/>
<stop offset="0.5" stop-color="#EBB886" stop-opacity="0.5"/>
<stop offset="1" stop-color="#D69F69" stop-opacity="0"/>
</linearGradient>
<linearGradient id="paint14_linear_2359_720" x1="53.7007" y1="74.3165" x2="40.6527" y2="71.6523" gradientUnits="userSpaceOnUse">
<stop stop-color="#FFE4C4"/>
<stop offset="0.5" stop-color="#FFDAB2"/>
<stop offset="1" stop-color="#FFD0A0"/>
</linearGradient>
<linearGradient id="paint15_linear_2359_720" x1="57.7397" y1="53.9642" x2="56.1354" y2="75.2778" gradientUnits="userSpaceOnUse">
<stop stop-color="#FFD0A0"/>
<stop offset="0.5" stop-color="#EAB784"/>
<stop offset="1" stop-color="#D59D67"/>
</linearGradient>
<linearGradient id="paint16_linear_2359_720" x1="57.2093" y1="58.2975" x2="56.008" y2="72.3691" gradientUnits="userSpaceOnUse">
<stop stop-color="#FFE4C4"/>
<stop offset="0.5" stop-color="#FFDAB2"/>
<stop offset="1" stop-color="#FFD0A0"/>
</linearGradient>
<linearGradient id="paint17_linear_2359_720" x1="57.5847" y1="54.5614" x2="55.7232" y2="75.0981" gradientUnits="userSpaceOnUse">
<stop stop-color="#FFD0A0"/>
<stop offset="0.5" stop-color="#EAB784"/>
<stop offset="1" stop-color="#D59D67"/>
</linearGradient>
<linearGradient id="paint18_linear_2359_720" x1="50.1029" y1="57.1958" x2="49.2181" y2="71.3495" gradientUnits="userSpaceOnUse">
<stop stop-color="#FFE4C4"/>
<stop offset="0.5" stop-color="#FFDAB2"/>
<stop offset="1" stop-color="#FFD0A0"/>
</linearGradient>
<linearGradient id="paint19_linear_2359_720" x1="64.1543" y1="58.0854" x2="62.8137" y2="72.5222" gradientUnits="userSpaceOnUse">
<stop stop-color="#FFE4C4"/>
<stop offset="0.5" stop-color="#FFDAB2"/>
<stop offset="1" stop-color="#FFD0A0"/>
</linearGradient>
<linearGradient id="paint20_linear_2359_720" x1="41.5284" y1="97.8751" x2="45.503" y2="102.599" gradientUnits="userSpaceOnUse">
<stop stop-color="#BA8468"/>
<stop offset="0.5" stop-color="#AA765E"/>
<stop offset="1" stop-color="#9A6953"/>
</linearGradient>
<linearGradient id="paint21_linear_2359_720" x1="42.4947" y1="98.0362" x2="43.6767" y2="102.762" gradientUnits="userSpaceOnUse">
<stop stop-color="#8B5B45"/>
<stop offset="0.5" stop-color="#72422B"/>
<stop offset="1" stop-color="#592910"/>
</linearGradient>
<linearGradient id="paint22_linear_2359_720" x1="41.5268" y1="97.8752" x2="45.5014" y2="102.6" gradientUnits="userSpaceOnUse">
<stop stop-color="#BA8468"/>
<stop offset="0.5" stop-color="#AA765E"/>
<stop offset="1" stop-color="#9A6953"/>
</linearGradient>
<radialGradient id="paint23_radial_2359_720" cx="0" cy="0" r="1" gradientUnits="userSpaceOnUse" gradientTransform="translate(40.4541 101.42) scale(11.5699 11.5752)">
<stop stop-color="#6E371D"/>
<stop offset="0.5" stop-color="#84543D"/>
<stop offset="1" stop-color="#9A705E"/>
</radialGradient>
<radialGradient id="paint24_radial_2359_720" cx="0" cy="0" r="1" gradientUnits="userSpaceOnUse" gradientTransform="translate(40.4529 101.427) scale(11.5699 11.5752)">
<stop stop-color="#6E371D"/>
<stop offset="0.5" stop-color="#84543D"/>
<stop offset="1" stop-color="#9A705E"/>
</radialGradient>
<radialGradient id="paint25_radial_2359_720" cx="0" cy="0" r="1" gradientTransform="matrix(5.32994 -0.186362 0.286096 8.20313 42.8571 89.3195)" gradientUnits="userSpaceOnUse">
<stop stop-color="#656361"/>
<stop offset="0.5" stop-color="#464342"/>
<stop offset="1" stop-color="#262323"/>
</radialGradient>
<radialGradient id="paint26_radial_2359_720" cx="0" cy="0" r="1" gradientTransform="matrix(6.84016 -0.239167 0.36716 10.5274 61.2587 91.2359)" gradientUnits="userSpaceOnUse">
<stop stop-color="#656361"/>
<stop offset="0.5" stop-color="#464342" stop-opacity="0.5"/>
<stop offset="1" stop-color="#262323" stop-opacity="0"/>
</radialGradient>
<linearGradient id="paint27_linear_2359_720" x1="55.2915" y1="76.1034" x2="54.5487" y2="82.4285" gradientUnits="userSpaceOnUse">
<stop stop-color="#656361"/>
<stop offset="0.5" stop-color="#464342" stop-opacity="0.5"/>
<stop offset="1" stop-color="#262323" stop-opacity="0"/>
</linearGradient>
<linearGradient id="paint28_linear_2359_720" x1="48.128" y1="91.0266" x2="47.7026" y2="75.7798" gradientUnits="userSpaceOnUse">
<stop stop-color="#726F6D"/>
<stop offset="0.5" stop-color="#62605E"/>
<stop offset="1" stop-color="#53514F"/>
</linearGradient>
<linearGradient id="paint29_linear_2359_720" x1="66.4192" y1="90.2695" x2="65.6961" y2="75.7315" gradientUnits="userSpaceOnUse">
<stop stop-color="#726F6D"/>
<stop offset="0.5" stop-color="#62605E"/>
<stop offset="1" stop-color="#53514F"/>
</linearGradient>
<linearGradient id="paint30_linear_2359_720" x1="54.4665" y1="75.6414" x2="55.0648" y2="80.4566" gradientUnits="userSpaceOnUse">
<stop stop-color="#656361"/>
<stop offset="0.5" stop-color="#464342"/>
<stop offset="1" stop-color="#262323"/>
</linearGradient>
<linearGradient id="paint31_linear_2359_720" x1="45.1693" y1="75.4813" x2="62.1514" y2="84.8775" gradientUnits="userSpaceOnUse">
<stop stop-color="#656361"/>
<stop offset="0.5" stop-color="#464342"/>
<stop offset="1" stop-color="#262323"/>
</linearGradient>
<linearGradient id="paint32_linear_2359_720" x1="46.7958" y1="77.4765" x2="56.5108" y2="83.3673" gradientUnits="userSpaceOnUse">
<stop stop-color="#726F6D"/>
<stop offset="0.5" stop-color="#62605E" stop-opacity="0.5"/>
<stop offset="1" stop-color="#53514F" stop-opacity="0"/>
</linearGradient>
<linearGradient id="paint33_linear_2359_720" x1="63.9712" y1="90.6369" x2="64.4763" y2="102.012" gradientUnits="userSpaceOnUse">
<stop stop-color="#595654"/>
<stop offset="0.5" stop-color="#454442"/>
<stop offset="1" stop-color="#313131"/>
</linearGradient>
<linearGradient id="paint34_linear_2359_720" x1="59.0112" y1="93.2016" x2="58.8246" y2="94.0142" gradientUnits="userSpaceOnUse">
<stop stop-color="#111010"/>
<stop offset="0.5" stop-color="#181717"/>
<stop offset="1" stop-color="#201F1F"/>
</linearGradient>
<radialGradient id="paint35_radial_2359_720" cx="0" cy="0" r="1" gradientTransform="matrix(-8.3062 0.290315 0.289918 8.30948 61.5418 103.814)" gradientUnits="userSpaceOnUse">
<stop stop-color="#656361"/>
<stop offset="0.5" stop-color="#464342"/>
<stop offset="1" stop-color="#262323"/>
</radialGradient>
<linearGradient id="paint36_linear_2359_720" x1="62.8186" y1="91.973" x2="63.1157" y2="96.1795" gradientUnits="userSpaceOnUse">
<stop stop-color="#111010"/>
<stop offset="0.5" stop-color="#181717"/>
<stop offset="1" stop-color="#201F1F"/>
</linearGradient>
<linearGradient id="paint37_linear_2359_720" x1="64.7278" y1="91.578" x2="59.7608" y2="93.1744" gradientUnits="userSpaceOnUse">
<stop stop-color="#656361"/>
<stop offset="0.5" stop-color="#656361" stop-opacity="0.5"/>
<stop offset="1" stop-color="#656361" stop-opacity="0"/>
</linearGradient>
<linearGradient id="paint38_linear_2359_720" x1="41.0438" y1="88.1071" x2="44.2452" y2="99.0323" gradientUnits="userSpaceOnUse">
<stop stop-color="#595654"/>
<stop offset="0.5" stop-color="#454442"/>
<stop offset="1" stop-color="#313131"/>
</linearGradient>
<linearGradient id="paint39_linear_2359_720" x1="46.5665" y1="88.9291" x2="47.0058" y2="89.6375" gradientUnits="userSpaceOnUse">
<stop stop-color="#111010"/>
<stop offset="0.5" stop-color="#181717"/>
<stop offset="1" stop-color="#201F1F"/>
</linearGradient>
<radialGradient id="paint40_radial_2359_720" cx="0" cy="0" r="1" gradientTransform="matrix(7.63682 -2.31649 2.31347 7.63836 37.5632 97.075)" gradientUnits="userSpaceOnUse">
<stop stop-color="#656361"/>
<stop offset="0.5" stop-color="#464342"/>
<stop offset="1" stop-color="#262323"/>
</radialGradient>
<linearGradient id="paint41_linear_2359_720" x1="43.7058" y1="92.8097" x2="42.7716" y2="93.5593" gradientUnits="userSpaceOnUse">
<stop stop-color="#111010"/>
<stop offset="0.5" stop-color="#181717"/>
<stop offset="1" stop-color="#201F1F"/>
</linearGradient>
<linearGradient id="paint42_linear_2359_720" x1="40.6304" y1="89.2435" x2="45.8456" y2="89.1497" gradientUnits="userSpaceOnUse">
<stop stop-color="#656361"/>
<stop offset="0.5" stop-color="#656361" stop-opacity="0.5"/>
<stop offset="1" stop-color="#656361" stop-opacity="0"/>
</linearGradient>
<linearGradient id="paint43_linear_2359_720" x1="70.3273" y1="54.5311" x2="71.5979" y2="76.0827" gradientUnits="userSpaceOnUse">
<stop stop-color="#FFD0A0"/>
<stop offset="0.5" stop-color="#EAB784"/>
<stop offset="1" stop-color="#D59D67"/>
</linearGradient>
<linearGradient id="paint44_linear_2359_720" x1="70.9115" y1="57.9202" x2="71.8777" y2="67.0088" gradientUnits="userSpaceOnUse">
<stop stop-color="#FFE4C4"/>
<stop offset="0.5" stop-color="#FFDAB2"/>
<stop offset="1" stop-color="#FFD0A0"/>
</linearGradient>
<linearGradient id="paint45_linear_2359_720" x1="65.2823" y1="62.0392" x2="77.2266" y2="78.3184" gradientUnits="userSpaceOnUse">
<stop stop-color="#FFD0A0"/>
<stop offset="0.5" stop-color="#EAB784"/>
<stop offset="1" stop-color="#D59D67"/>
</linearGradient>
<linearGradient id="paint46_linear_2359_720" x1="62.4302" y1="63.3878" x2="77.2107" y2="77.1409" gradientUnits="userSpaceOnUse">
<stop stop-color="#FFD0A0"/>
<stop offset="0.5" stop-color="#EAB784"/>
<stop offset="1" stop-color="#D59D67"/>
</linearGradient>
<linearGradient id="paint47_linear_2359_720" x1="69.4997" y1="79.1747" x2="73.4796" y2="78.0237" gradientUnits="userSpaceOnUse">
<stop stop-color="#FFD1A2"/>
<stop offset="0.5" stop-color="#EBB886" stop-opacity="0.5"/>
<stop offset="1" stop-color="#D69F69" stop-opacity="0"/>
</linearGradient>
<linearGradient id="paint48_linear_2359_720" x1="65.2265" y1="64.4242" x2="75.1687" y2="73.2851" gradientUnits="userSpaceOnUse">
<stop stop-color="#FFE4C4"/>
<stop offset="0.5" stop-color="#FFDAB2"/>
<stop offset="1" stop-color="#FFD0A0"/>
</linearGradient>
<linearGradient id="paint49_linear_2359_720" x1="58.7254" y1="65.1365" x2="76.359" y2="74.9642" gradientUnits="userSpaceOnUse">
<stop stop-color="#FFD0A0"/>
<stop offset="0.5" stop-color="#EAB784"/>
<stop offset="1" stop-color="#D59D67"/>
</linearGradient>
<linearGradient id="paint50_linear_2359_720" x1="54.9296" y1="84.9145" x2="40.5133" y2="70.7804" gradientUnits="userSpaceOnUse">
<stop stop-color="#FFD0A0"/>
<stop offset="0.5" stop-color="#EAB784"/>
<stop offset="1" stop-color="#D59D67"/>
</linearGradient>
<linearGradient id="paint51_linear_2359_720" x1="38.8454" y1="78.5663" x2="39.8157" y2="74.5368" gradientUnits="userSpaceOnUse">
<stop stop-color="#FFD1A2"/>
<stop offset="0.5" stop-color="#EBB886" stop-opacity="0.5"/>
<stop offset="1" stop-color="#D69F69" stop-opacity="0"/>
</linearGradient>
<linearGradient id="paint52_linear_2359_720" x1="50.7604" y1="89.0266" x2="45.1405" y2="69.6359" gradientUnits="userSpaceOnUse">
<stop stop-color="#FFD0A0"/>
<stop offset="0.5" stop-color="#EAB784"/>
<stop offset="1" stop-color="#D59D67"/>
</linearGradient>
<linearGradient id="paint53_linear_2359_720" x1="45.1708" y1="75.4928" x2="62.1531" y2="84.8889" gradientUnits="userSpaceOnUse">
<stop stop-color="#656361"/>
<stop offset="0.5" stop-color="#464342"/>
<stop offset="1" stop-color="#262323"/>
</linearGradient>
<linearGradient id="paint54_linear_2359_720" x1="46.7949" y1="77.4763" x2="56.5098" y2="83.367" gradientUnits="userSpaceOnUse">
<stop stop-color="#726F6D"/>
<stop offset="0.5" stop-color="#62605E" stop-opacity="0.5"/>
<stop offset="1" stop-color="#53514F" stop-opacity="0"/>
</linearGradient>
<linearGradient id="paint55_linear_2359_720" x1="35.6552" y1="54.2168" x2="53.2675" y2="63.4447" gradientUnits="userSpaceOnUse">
<stop stop-color="#656361"/>
<stop offset="0.5" stop-color="#464342"/>
<stop offset="1" stop-color="#262323"/>
</linearGradient>
<linearGradient id="paint56_linear_2359_720" x1="52.0508" y1="51.4518" x2="53.2439" y2="67.5317" gradientUnits="userSpaceOnUse">
<stop stop-color="#2E2E2E"/>
<stop offset="0.5" stop-color="#2A2929"/>
<stop offset="1" stop-color="#262323"/>
</linearGradient>
<linearGradient id="paint57_linear_2359_720" x1="35.6562" y1="54.2129" x2="53.2686" y2="63.4409" gradientUnits="userSpaceOnUse">
<stop stop-color="#656361"/>
<stop offset="0.5" stop-color="#464342"/>
<stop offset="1" stop-color="#262323"/>
</linearGradient>
<linearGradient id="paint58_linear_2359_720" x1="52.0505" y1="51.4511" x2="53.2438" y2="67.5306" gradientUnits="userSpaceOnUse">
<stop stop-color="#2E2E2E"/>
<stop offset="0.5" stop-color="#2A2929"/>
<stop offset="1" stop-color="#262323"/>
</linearGradient>
<linearGradient id="paint59_linear_2359_720" x1="28.5492" y1="36.0642" x2="30.8354" y2="47.5459" gradientUnits="userSpaceOnUse">
<stop stop-color="#FFD0A0"/>
<stop offset="0.5" stop-color="#EAB784"/>
<stop offset="1" stop-color="#D59D67"/>
</linearGradient>
<linearGradient id="paint60_linear_2359_720" x1="50.3333" y1="18.8315" x2="56.984" y2="55.0629" gradientUnits="userSpaceOnUse">
<stop stop-color="#FFD0A0"/>
<stop offset="0.5" stop-color="#EAB784"/>
<stop offset="1" stop-color="#D59D67"/>
</linearGradient>
<linearGradient id="paint61_linear_2359_720" x1="51.6345" y1="24.0211" x2="57.1757" y2="53.248" gradientUnits="userSpaceOnUse">
<stop stop-color="#FFE4C4"/>
<stop offset="0.5" stop-color="#FFDAB2"/>
<stop offset="1" stop-color="#FFD0A0"/>
</linearGradient>
<linearGradient id="paint62_linear_2359_720" x1="37.3309" y1="52.4571" x2="38.1836" y2="56.6673" gradientUnits="userSpaceOnUse">
<stop stop-color="#845437"/>
<stop offset="0.5" stop-color="#5D3923"/>
<stop offset="1" stop-color="#361F10"/>
</linearGradient>
<radialGradient id="paint63_radial_2359_720" cx="0" cy="0" r="1" gradientTransform="matrix(1.18085 -0.22378 0.492617 2.60184 27.8714 40.5804)" gradientUnits="userSpaceOnUse">
<stop stop-color="#FFDEB8"/>
<stop offset="0.5" stop-color="#EEC395"/>
<stop offset="1" stop-color="#DDA772"/>
</radialGradient>
<radialGradient id="paint64_radial_2359_720" cx="0" cy="0" r="1" gradientTransform="matrix(1.14433 -0.216858 0.477251 2.52069 27.3574 45.2748)" gradientUnits="userSpaceOnUse">
<stop stop-color="white"/>
<stop offset="1"/>
</radialGradient>
<radialGradient id="paint65_radial_2359_720" cx="0" cy="0" r="1" gradientTransform="matrix(1.62454 -0.307862 0.677529 3.57849 26.2925 40.0696)" gradientUnits="userSpaceOnUse">
<stop stop-color="white"/>
<stop offset="1"/>
</radialGradient>
<radialGradient id="paint66_radial_2359_720" cx="0" cy="0" r="1" gradientTransform="matrix(3.31209 -0.627952 0.626945 3.31284 51.3883 37.451)" gradientUnits="userSpaceOnUse">
<stop stop-color="#FFDEB8"/>
<stop offset="0.5" stop-color="#EEC395"/>
<stop offset="1" stop-color="#DDA772"/>
</radialGradient>
<radialGradient id="paint67_radial_2359_720" cx="0" cy="0" r="1" gradientTransform="matrix(3.2077 -0.608032 0.607281 3.20825 48.6517 43.8284)" gradientUnits="userSpaceOnUse">
<stop stop-color="white"/>
<stop offset="1"/>
</radialGradient>
<radialGradient id="paint68_radial_2359_720" cx="0" cy="0" r="1" gradientTransform="matrix(4.55485 -0.863396 0.862324 4.55567 47.1829 37.221)" gradientUnits="userSpaceOnUse">
<stop stop-color="white"/>
<stop offset="1"/>
</radialGradient>
<linearGradient id="paint69_linear_2359_720" x1="46.913" y1="2.75538" x2="50.8393" y2="20.5962" gradientUnits="userSpaceOnUse">
<stop stop-color="#674B3A"/>
<stop offset="0.5" stop-color="#463225"/>
<stop offset="1" stop-color="#261911"/>
</linearGradient>
<linearGradient id="paint70_linear_2359_720" x1="52.893" y1="15.2878" x2="53.6926" y2="19.5091" gradientUnits="userSpaceOnUse">
<stop stop-color="#3E2617"/>
<stop offset="0.5" stop-color="#2B1A0F"/>
<stop offset="1" stop-color="#170D07"/>
</linearGradient>
<linearGradient id="paint71_linear_2359_720" x1="63.2243" y1="25.5577" x2="84.327" y2="21.5633" gradientUnits="userSpaceOnUse">
<stop stop-color="#FFD2A3"/>
<stop offset="0.5" stop-color="#FFD8AE"/>
<stop offset="1" stop-color="#FFDEB9"/>
</linearGradient>
<clipPath id="clip0_2359_720">
<rect width="109.94" height="109.99" fill="white" transform="translate(0.98764)"/>
</clipPath>
</defs>
</svg>
