<svg width="123" height="126" viewBox="0 0 123 126" fill="none" xmlns="http://www.w3.org/2000/svg">
<path d="M14.3642 62.9098C14.3642 62.9098 10.9129 61.1493 7.83887 61.5079C4.25869 61.9257 1.87169 62.9998 1.03643 62.0451C0.0650771 60.9347 18.7917 51.7548 24.3081 49.2159C31.4819 45.9142 39.3918 43.2079 41.4735 42.5326C42.9454 42.0553 47.3511 41.399 51.3788 41.8168C54.4267 42.1328 59.9941 43.996 59.9941 43.996C59.9941 43.996 44.8227 48.2338 34.9891 52.08C24.6405 56.1277 16.0907 61.8953 14.3642 62.9098Z" fill="#FF978C"/>
<path d="M14.3642 62.9098C14.3642 62.9098 10.9129 61.1493 7.83887 61.5079C4.25869 61.9257 1.87169 62.9998 1.03643 62.0451C0.0650771 60.9347 18.7917 51.7548 24.3081 49.2159C31.4819 45.9142 39.3918 43.2079 41.4735 42.5326C42.9454 42.0553 47.3511 41.399 51.3788 41.8168C54.4267 42.1328 59.9941 43.996 59.9941 43.996C59.9941 43.996 44.8227 48.2338 34.9891 52.08C24.6405 56.1277 16.0907 61.8953 14.3642 62.9098Z" stroke="#E53E3E" stroke-width="1.63583"/>
<path d="M107.88 62.9099C107.88 62.9099 111.482 62.0285 114.65 62.1643C118.827 62.3433 121.252 63.2518 121.989 62.7411C122.507 62.3832 104.12 52.8358 98.1209 49.892C90.8866 46.3419 82.2252 43.2387 80.1022 42.5324C78.9064 42.1345 74.4413 41.7567 70.3141 42.1745C67.1909 42.4905 60.7072 43.9647 60.7072 43.9647C60.7072 43.9647 75.8684 47.4055 85.8286 51.5429C97.4646 56.3761 106.111 61.8954 107.88 62.9099Z" fill="#FF978C"/>
<path d="M107.88 62.9099C107.88 62.9099 111.482 62.0285 114.65 62.1643C118.827 62.3433 121.252 63.2518 121.989 62.7411C122.507 62.3832 104.12 52.8358 98.1209 49.892C90.8866 46.3419 82.2252 43.2387 80.1022 42.5324C78.9064 42.1345 74.4413 41.7567 70.3141 42.1745C67.1909 42.4905 60.7072 43.9647 60.7072 43.9647C60.7072 43.9647 75.8684 47.4055 85.8286 51.5429C97.4646 56.3761 106.111 61.8954 107.88 62.9099Z" stroke="#E53E3E" stroke-width="1.63583"/>
<path d="M60.73 88.5517C54.9431 88.3044 27.061 76.0717 18.1977 71.3366C18.1977 71.3366 13.3465 67.9455 14.0872 63.5317C14.9306 58.5058 56.4951 43.9348 59.9935 43.9963C73.8542 44.2397 107.658 59.2157 108.22 63.5317C108.825 68.1778 106.709 69.0297 106.709 69.0297C96.8269 77.5616 73.144 89.0824 60.73 88.5517Z" fill="url(#paint0_linear_2481_987)"/>
<path d="M60.73 88.5517C54.9431 88.3044 27.061 76.0717 18.1977 71.3366C18.1977 71.3366 13.3465 67.9455 14.0872 63.5317C14.9306 58.5058 56.4951 43.9348 59.9935 43.9963C73.8542 44.2397 107.658 59.2157 108.22 63.5317C108.825 68.1778 106.709 69.0297 106.709 69.0297C96.8269 77.5616 73.144 89.0824 60.73 88.5517Z" stroke="#A80000" stroke-width="1.63616" stroke-miterlimit="10"/>
<g opacity="0.9">
<path d="M59.9109 45.8963C59.4224 54.2642 60.0463 72.0316 59.9792 78.9531C59.9688 80.0446 61.391 80.0151 61.44 78.9999C61.6327 75.0173 61.9004 50.456 61.5241 45.9924C61.3491 43.9169 60.0077 44.2382 59.9109 45.8963Z" fill="#A80617"/>
</g>
<path d="M18.1392 82.672C18.1392 82.672 32.7658 76.8278 41.597 73.6952C49.7382 70.8073 57.6258 66.6814 62.3514 68.2011C67.3793 65.9044 69.7922 71.3645 82.5314 74.4709C85.9944 75.3153 95.1816 80.4381 97.6877 81.8701C100.194 83.3021 76.8419 84.2257 60.7306 86.016C44.6193 87.8062 21.2718 89.0269 18.1392 82.672Z" fill="#FFC119"/>
<path d="M18.1392 82.672C18.1392 82.672 32.7658 76.8278 41.597 73.6952C49.7382 70.8073 57.6258 66.6814 62.3514 68.2011C67.3793 65.9044 69.7922 71.3645 82.5314 74.4709C85.9944 75.3153 95.1816 80.4381 97.6877 81.8701C100.194 83.3021 76.8419 84.2257 60.7306 86.016C44.6193 87.8062 21.2718 89.0269 18.1392 82.672Z" stroke="#DB7D0A" stroke-width="1.30867" stroke-miterlimit="10"/>
<path d="M35.4806 78.7417C38.2612 77.6633 45.3797 75.081 47.1241 73.9687C51.8795 70.9362 59.7475 67.5448 62.4695 69.2912C67.8697 72.7559 85.4958 76.1299 93.6059 82.295C93.7201 82.3817 97.0013 82.1534 95.8974 81.5282C85.68 75.7412 63.2282 67.5418 60.2252 67.6177C57.2224 67.6936 45.0499 73.4308 40.9263 74.7784C37.2522 75.9791 19.4321 83.1728 19.4321 83.1728C19.4321 83.1728 32.7 79.82 35.4806 78.7417Z" fill="#FFDE39"/>
<path d="M68.3614 70.8753C68.9467 72.4539 73.107 71.334 72.5079 69.6655C71.9089 67.9969 67.7761 69.2968 68.3614 70.8753Z" fill="#FFF36C"/>
<path d="M68.3614 70.8753C68.9467 72.4539 73.107 71.334 72.5079 69.6655C71.9089 67.9969 67.7761 69.2968 68.3614 70.8753Z" stroke="#FF9F00" stroke-width="0.817916" stroke-miterlimit="10"/>
<path d="M42.9802 72.7328C42.2238 74.2234 46.8005 75.6233 47.3786 74.1756C47.9567 72.7279 43.7366 71.2422 42.9802 72.7328Z" fill="#FFF36C"/>
<path d="M42.9802 72.7328C42.2238 74.2234 46.8005 75.6233 47.3786 74.1756C47.9567 72.7279 43.7366 71.2422 42.9802 72.7328Z" stroke="#FF9F00" stroke-width="0.817916" stroke-miterlimit="10"/>
<path d="M74.5063 72.8139C73.0157 70.9189 67.3132 70.493 65.9712 73.4577C65.7019 74.0525 67.9813 73.1767 69.6066 72.9362C71.5297 72.6516 74.9699 73.4031 74.5063 72.8139Z" fill="#FFDE39"/>
<path d="M62.8163 77.554C65.1228 75.061 69.5065 76.2895 70.3682 77.9365C70.6408 78.4573 67.727 77.7019 66.7537 77.5736C65.7804 77.4454 62.0248 78.4092 62.8163 77.554Z" fill="#FFDE39"/>
<path d="M53.2979 77.7413C49.61 79.6048 45.6638 73.1636 49.4141 70.786C53.0388 68.4883 56.9801 75.8807 53.2979 77.7413Z" fill="#FFCC39"/>
<path d="M53.2979 77.7413C49.61 79.6048 45.6638 73.1636 49.4141 70.786C53.0388 68.4883 56.9801 75.8807 53.2979 77.7413Z" stroke="#FF9F00" stroke-width="0.817916" stroke-miterlimit="10"/>
<path d="M54.5973 76.8792C51.4542 78.8186 46.8726 71.6936 50.7135 69.9243C54.5544 68.155 57.7404 74.9397 54.5973 76.8792Z" fill="#FFF36C"/>
<path d="M54.5973 76.8792C51.4542 78.8186 46.8726 71.6936 50.7135 69.9243C54.5544 68.155 57.7404 74.9397 54.5973 76.8792Z" stroke="#FF9F00" stroke-width="0.817916" stroke-miterlimit="10"/>
<path d="M50.8413 74.8532C50.7173 74.7194 52.7981 70.7502 53.0189 70.7227C53.1969 70.7008 55.225 74.9716 55.0713 75.1221C54.9175 75.2726 53.2061 74.7119 53.1809 74.527C53.1155 74.0477 52.9581 72.3815 52.9581 72.3815C52.9581 72.3815 52.4981 74.1989 52.3577 74.5224C52.2763 74.7096 50.9908 75.0148 50.8413 74.8532Z" fill="#FFC147"/>
<path d="M64.2642 73.25C65.1872 72.401 55.2083 69.2664 56.1839 72.1318C56.5009 73.0622 63.5346 73.921 64.2642 73.25Z" fill="#F58A00"/>
<path d="M65.3666 71.259C63.313 74.5111 56.1248 71.016 58.2213 67.779C59.3693 66.0064 66.6206 69.2728 65.3666 71.259Z" fill="#FFCC39"/>
<path d="M65.3666 71.259C63.313 74.5111 56.1248 71.016 58.2213 67.779C59.3693 66.0064 66.6206 69.2728 65.3666 71.259Z" stroke="#FF9F00" stroke-width="0.817916" stroke-miterlimit="10"/>
<path d="M65.5631 70.5334C64.2375 73.0372 57.1232 69.5303 58.6625 67.087C60.2019 64.6438 66.8888 68.0296 65.5631 70.5334Z" fill="#FFF36C"/>
<path d="M65.5631 70.5334C64.2375 73.0372 57.1232 69.5303 58.6625 67.087C60.2019 64.6438 66.8888 68.0296 65.5631 70.5334Z" stroke="#FF9F00" stroke-width="0.817916" stroke-miterlimit="10"/>
<path d="M61.8027 70.2526C61.6371 70.1999 60.5617 67.0415 60.6919 66.9623C60.797 66.8985 64.7962 69.1144 64.7871 69.2547C64.7779 69.3951 63.2903 69.505 63.1588 69.3918C62.8179 69.0984 61.68 68.0583 61.68 68.0583C61.68 68.0583 62.5005 69.3676 62.6075 69.6169C62.6693 69.7612 62.0026 70.3161 61.8027 70.2526Z" fill="#F8B332"/>
<path d="M38.7901 74.3715C41.4713 77.1511 35.3163 82.0383 32.8256 79.6248C31.3088 78.1552 37.1595 72.6807 38.7901 74.3715Z" fill="#FFCC39"/>
<path d="M38.7901 74.3715C41.4713 77.1511 35.3163 82.0383 32.8256 79.6248C31.3088 78.1552 37.1595 72.6807 38.7901 74.3715Z" stroke="#FF9F00" stroke-width="0.817916" stroke-miterlimit="10"/>
<path d="M38.1961 73.9109C40.0514 75.5928 34.0823 80.5402 32.3571 78.9509C30.0284 76.8053 35.8679 71.8003 38.1961 73.9109Z" fill="#FFF36C"/>
<path d="M38.1961 73.9109C40.0514 75.5928 34.0823 80.5402 32.3571 78.9509C30.0284 76.8053 35.8679 71.8003 38.1961 73.9109Z" stroke="#FF9F00" stroke-width="0.817916" stroke-miterlimit="10"/>
<path d="M73.6127 77.9658C71.2623 73.5592 77.4274 70.21 80.4226 72.9474C84.0656 76.2764 75.7176 81.9128 73.6127 77.9658Z" fill="#FFCC39"/>
<path d="M73.6127 77.9658C71.2623 73.5592 77.4274 70.21 80.4226 72.9474C84.0656 76.2764 75.7176 81.9128 73.6127 77.9658Z" stroke="#FF9F00" stroke-width="0.817916" stroke-miterlimit="10"/>
<path d="M74.7888 78.4616C72.1636 73.774 79.6067 70.7886 81.3295 73.9143C83.586 78.0085 76.4292 81.3911 74.7888 78.4616Z" fill="#FFF36C"/>
<path d="M74.7888 78.4616C72.1636 73.774 79.6067 70.7886 81.3295 73.9143C83.586 78.0085 76.4292 81.3911 74.7888 78.4616Z" stroke="#FF9F00" stroke-width="0.817916" stroke-miterlimit="10"/>
<path d="M76.3291 74.3665C76.4478 74.2272 80.7828 76.1676 80.8417 76.3992C80.8891 76.5857 76.8225 79.0015 76.6477 78.8487C76.473 78.6959 76.8045 76.8536 76.9893 76.815C77.4683 76.7153 79.1434 76.4417 79.1434 76.4417C79.1434 76.4417 77.2275 76.0734 76.8784 75.9458C76.6762 75.8718 76.1855 74.535 76.3291 74.3665Z" fill="#FFC23B"/>
<path d="M57.6553 76.6418C58.292 76.4373 55.9871 76.2201 54.1252 76.4282C50.7439 76.806 49.3744 79.1171 49.9168 79.251C52.0225 79.7708 56.3165 77.0717 57.6553 76.6418Z" fill="#FFDE39"/>
<path d="M60.5029 83.6503C62.9651 79.6341 57.1422 75.3901 53.6582 79.6808C50.7585 83.2515 58.1882 87.4255 60.5029 83.6503Z" fill="#FFCC39"/>
<path d="M60.5029 83.6503C62.9651 79.6341 57.1422 75.3901 53.6582 79.6808C50.7585 83.2515 58.1882 87.4255 60.5029 83.6503Z" stroke="#FF9F00" stroke-width="0.817916" stroke-miterlimit="10"/>
<path d="M59.5149 84.2581C61.628 80.1807 54.9499 76.4448 52.9444 81.029C51.8196 83.5996 58.6835 85.8619 59.5149 84.2581Z" fill="#FFF36C"/>
<path d="M59.5149 84.2581C61.628 80.1807 54.9499 76.4448 52.9444 81.029C51.8196 83.5996 58.6835 85.8619 59.5149 84.2581Z" stroke="#FF9F00" stroke-width="0.817916" stroke-miterlimit="10"/>
<path d="M82.2054 77.8685C82.2067 77.3551 78.812 76.5938 77.2253 76.7891C74.4653 77.1287 73.1193 78.8555 73.3523 79.22C73.9611 80.172 82.1988 80.455 82.2054 77.8685Z" fill="#FF9F00"/>
<path d="M72.5995 84.639C69.974 87.1356 63.9852 82.8651 66.7694 79.3769C69.4466 76.0228 75.5891 81.796 72.5995 84.639Z" fill="#FFCC39"/>
<path d="M72.5995 84.639C69.974 87.1356 63.9852 82.8651 66.7694 79.3769C69.4466 76.0228 75.5891 81.796 72.5995 84.639Z" stroke="#FF9F00" stroke-width="0.817916" stroke-miterlimit="10"/>
<path d="M73.6171 83.5119C71.0292 86.3144 64.6413 80.5229 67.7284 78.147C70.8156 75.7711 76.205 80.7094 73.6171 83.5119Z" fill="#FFF04E"/>
<path d="M73.6171 83.5119C71.0292 86.3144 64.6413 80.5229 67.7284 78.147C70.8156 75.7711 76.205 80.7094 73.6171 83.5119Z" stroke="#FF9F00" stroke-width="0.817916" stroke-miterlimit="10"/>
<path d="M60.8458 85.2698C59.5417 82.8111 53.1676 80.7814 51.2972 83.4704C50.6055 84.4649 61.3117 86.1482 60.8458 85.2698Z" fill="#FF9F00"/>
<path d="M61.064 82.6175C54.7634 82.6175 14.1699 64.6875 14.1699 64.6875C14.1699 64.6875 14.1572 100.56 16.0465 104.815C17.8728 108.929 57.4874 124.457 60.9727 124.393C74.7824 124.14 103.351 109.944 106.081 104.815C107.57 102.02 107.958 64.6875 107.958 64.6875C107.958 64.6875 67.3645 82.6175 61.064 82.6175Z" fill="url(#paint1_linear_2481_987)"/>
<path d="M61.0637 82.2663C54.7631 82.2663 14.1696 64.3359 14.1696 64.3359C14.1696 64.3359 13.9115 100.327 16.0463 104.464C20.7512 113.584 54.4651 123.964 60.9724 124.042" fill="#FF5B54"/>
<path d="M60.7283 84.4375C60.37 96.5135 60.7839 113.622 60.7345 123.611C60.7266 125.186 61.7696 125.144 61.8056 123.678C61.9469 117.931 62.1874 91.0178 61.9113 84.5762C61.783 81.5807 60.7992 82.0446 60.7283 84.4375Z" fill="#FFCECE"/>
<path d="M61.0636 82.6175C54.763 82.6175 14.1695 64.6875 14.1695 64.6875C14.1695 64.6875 13.7959 98.6811 16.0461 104.815C18.2964 110.95 53.6094 124.114 60.9723 124.393C68.3352 124.672 104.021 111.043 106.081 104.815C108.141 98.5881 107.958 64.6875 107.958 64.6875C107.958 64.6875 67.3641 82.6175 61.0636 82.6175Z" stroke="#CC0000" stroke-width="1.63583" stroke-linecap="round" stroke-linejoin="round"/>
<path d="M94.9887 113.328C94.5538 96.8649 96.0574 89.22 103.575 84.9922C100.187 86.0171 91.3663 89.7141 87.277 92.5693C80.07 97.6012 79.0894 108.876 80.1775 118.879C80.4054 120.975 95.0438 115.408 94.9887 113.328Z" fill="url(#paint2_linear_2481_987)"/>
<path d="M94.9887 113.328C94.5538 96.8649 96.0574 89.22 103.575 84.9922C100.187 86.0171 91.3663 89.7141 87.277 92.5693C80.07 97.6012 79.0894 108.876 80.1775 118.879C80.4054 120.975 95.0438 115.408 94.9887 113.328Z" stroke="url(#paint3_linear_2481_987)" stroke-width="1.63621" stroke-linecap="round" stroke-linejoin="round"/>
<path d="M94.043 108.664C94.043 108.664 93.7667 110.937 91.6785 112.292C90.139 113.29 86.5999 114.731 84.4171 115.028C82.72 115.258 81.4614 115.139 80.8085 114.926C80.4435 114.808 80.9075 118.424 80.9075 118.424C80.9075 118.424 83.4827 118.89 88.7933 116.362C91.081 115.273 94.0047 114.13 94.1429 113.169C94.281 112.209 94.043 108.664 94.043 108.664Z" fill="#F7BD00"/>
<path d="M102.178 94.8538C97.1628 87.4257 92.0091 90.3556 91.7265 90.0852C91.3789 89.7524 100.369 85.8963 103.318 85.038C109.619 83.2041 114.061 88.9009 113.649 89.4885C113.187 90.1488 102.406 95.1911 102.178 94.8538Z" fill="url(#paint4_linear_2481_987)"/>
<path d="M102.178 94.8538C97.1628 87.4257 92.0091 90.3556 91.7265 90.0852C91.3789 89.7524 100.369 85.8963 103.318 85.038C109.619 83.2041 114.061 88.9009 113.649 89.4885C113.187 90.1488 102.406 95.1911 102.178 94.8538Z" stroke="url(#paint5_linear_2481_987)" stroke-width="1.63621" stroke-miterlimit="10"/>
<g opacity="0.5">
<path d="M28.3568 81.0315C30.9139 79.5122 39.2534 82.4223 42.9166 85.6858C44.0081 86.6581 60.2447 82.4292 61.1398 83.2347C62.7465 84.6807 46.983 99.9623 47.0196 102.314C47.0543 104.551 46.4327 114.12 45.8526 119.277C43.0122 118.692 36.5277 117.209 31.7838 113.699C31.3389 113.37 26.9843 81.8471 28.3568 81.0315Z" fill="#E2141E"/>
</g>
<path d="M29.2929 114.732C29.3982 83.5264 21.9503 85.9111 21.8531 84.6008C21.7337 82.9892 33.494 86.9508 37.0693 89.4815C44.7073 94.8872 44.4633 118.908 43.5976 120.025C42.6252 121.279 29.288 116.148 29.2929 114.732Z" fill="url(#paint6_linear_2481_987)"/>
<path d="M29.2929 114.732C29.3982 83.5264 21.9503 85.9111 21.8531 84.6008C21.7337 82.9892 33.494 86.9508 37.0693 89.4815C44.7073 94.8872 44.4633 118.908 43.5976 120.025C42.6252 121.279 29.288 116.148 29.2929 114.732Z" stroke="url(#paint7_linear_2481_987)" stroke-width="1.63616" stroke-miterlimit="10"/>
<path d="M30.091 110.297C30.091 110.297 30.5441 112.178 31.8887 113.403C33.2334 114.627 37.3567 116.19 39.7375 116.39C42.0459 116.584 42.8537 116.083 43.07 116.406C43.438 116.955 42.9012 119.297 42.9012 119.297C42.9012 119.297 40.0934 119.253 35.7637 117.294C33.5422 116.289 30.4345 115.118 30.2699 114.654C30.0736 114.1 30.091 110.297 30.091 110.297Z" fill="#F7CC10"/>
<path d="M25.4723 92.8826C30.4488 86.4767 35.5621 89.0037 35.8425 88.7705C36.1873 88.4835 27.2674 85.1582 24.3409 84.4178C18.0891 82.8363 13.6819 87.749 14.0902 88.2558C14.5488 88.8251 25.2465 93.1735 25.4723 92.8826Z" fill="url(#paint8_linear_2481_987)"/>
<path d="M25.4723 92.8826C30.4488 86.4767 35.5621 89.0037 35.8425 88.7705C36.1873 88.4835 27.2674 85.1582 24.3409 84.4178C18.0891 82.8363 13.6819 87.749 14.0902 88.2558C14.5488 88.8251 25.2465 93.1735 25.4723 92.8826Z" stroke="url(#paint9_linear_2481_987)" stroke-width="1.63616" stroke-miterlimit="10"/>
<path d="M14.403 62.7031C14.403 62.7031 5.71672 70.1638 4.79607 71.3753C3.66244 72.8672 2.17056 74.7968 2.82686 76.1294C3.48315 77.4619 13.9139 82.5611 19.634 85.0999C27.0731 88.4017 45.3277 94.9912 47.6398 94.7268C49.0322 94.5678 52.4858 90.8054 54.7606 88.4812C57.0354 86.157 61.1537 82.6135 61.1537 82.6135C61.1537 82.6135 46.3488 77.7044 36.152 73.8582C25.4213 69.8105 16.1932 63.7177 14.403 62.7031Z" fill="url(#paint10_linear_2481_987)"/>
<path d="M14.403 62.7031C14.403 62.7031 5.71672 70.1638 4.79607 71.3753C3.66244 72.8672 2.17056 74.7968 2.82686 76.1294C3.48315 77.4619 13.9139 82.5611 19.634 85.0999C27.0731 88.4017 45.3277 94.9912 47.6398 94.7268C49.0322 94.5678 52.4858 90.8054 54.7606 88.4812C57.0353 86.157 61.1537 82.6135 61.1537 82.6135C61.1537 82.6135 46.3488 77.7044 36.152 73.8582C25.4213 69.8105 16.1932 63.7177 14.403 62.7031Z" stroke="#DB1717" stroke-width="1.63583" stroke-linecap="round" stroke-linejoin="round"/>
<path d="M108.177 63.4492C108.177 63.4492 116.295 70.6799 117.216 71.8914C118.35 73.3833 119.808 74.9655 118.857 76.7845C117.907 78.6036 108.86 82.7995 103.139 85.3383C95.7003 88.64 78.1315 97.4902 75.1481 96.655C72.0537 95.7886 70.288 91.0441 68.0132 88.7199C65.7384 86.3957 61.4038 82.5927 61.4038 82.5927C61.4038 82.5927 76.4175 77.6319 86.7042 73.4474C97.6407 68.9986 106.387 64.4638 108.177 63.4492Z" fill="url(#paint11_linear_2481_987)"/>
<path d="M108.177 63.4492C108.177 63.4492 116.295 70.6799 117.216 71.8914C118.35 73.3833 119.808 74.9655 118.857 76.7845C117.907 78.6036 108.86 82.7995 103.139 85.3383C95.7003 88.64 78.1315 97.4902 75.1481 96.655C72.0537 95.7886 70.288 91.0441 68.0132 88.7199C65.7384 86.3957 61.4038 82.5927 61.4038 82.5927C61.4038 82.5927 76.4175 77.6319 86.7042 73.4474C97.6407 68.9986 106.387 64.4638 108.177 63.4492Z" stroke="#DA1616" stroke-width="1.63583" stroke-linecap="round" stroke-linejoin="round"/>
<path d="M63.9647 3.1961L70.6971 16.8376C71.271 18.0004 72.3804 18.8062 73.6635 18.9927L88.7178 21.1801C91.9492 21.6496 93.2395 25.6207 90.9013 27.9001L80.0079 38.5186C79.0794 39.4235 78.6558 40.7276 78.875 42.0055L81.4465 56.9989C81.9984 60.2173 78.6204 62.6717 75.7302 61.1523L62.2654 54.0734C61.1177 53.4701 59.7462 53.4701 58.5985 54.0734L44.8644 61.2936C42.0841 62.7551 38.8351 60.3946 39.366 57.2989L40.4715 50.6332C41.0591 47.0913 43.293 44.0382 46.4914 42.4066L62.8101 34.0816C63.2197 33.8375 63.4929 33.403 63.4962 32.9264C63.4978 32.7029 63.4461 32.558 63.3159 32.3927C62.9819 31.9684 62.4365 31.7688 61.9019 31.8434L42.4601 34.5576C39.3327 34.994 36.1794 33.9602 33.9184 31.7561L29.9626 27.9001C27.6244 25.6207 28.9147 21.6496 32.1461 21.1801L47.2004 18.9927C48.4835 18.8062 49.5929 18.0004 50.1668 16.8376L56.8992 3.1961C58.3443 0.267966 62.5196 0.267966 63.9647 3.1961Z" fill="url(#paint12_linear_2481_987)"/>
<path d="M63.9647 3.1961L70.6971 16.8376C71.271 18.0004 72.3804 18.8062 73.6635 18.9927L88.7178 21.1801C91.9492 21.6496 93.2395 25.6207 90.9013 27.9001L80.0079 38.5186C79.0794 39.4235 78.6558 40.7276 78.875 42.0055L81.4465 56.9989C81.9984 60.2173 78.6204 62.6717 75.7302 61.1523L62.2654 54.0734C61.1177 53.4701 59.7462 53.4701 58.5985 54.0734L44.8644 61.2936C42.0841 62.7551 38.8351 60.3946 39.366 57.2989L40.4715 50.6332C41.0591 47.0913 43.293 44.0382 46.4914 42.4066L62.8101 34.0816C63.2197 33.8375 63.4929 33.403 63.4962 32.9264C63.4978 32.7029 63.4461 32.558 63.3159 32.3927C62.9819 31.9684 62.4365 31.7688 61.9019 31.8434L42.4601 34.5576C39.3327 34.994 36.1794 33.9602 33.9184 31.7561L29.9626 27.9001C27.6244 25.6207 28.9147 21.6496 32.1461 21.1801L47.2004 18.9927C48.4835 18.8062 49.5929 18.0004 50.1668 16.8376L56.8992 3.1961C58.3443 0.267966 62.5196 0.267966 63.9647 3.1961Z" stroke="#DB9500" stroke-width="1.63583"/>
<path d="M32.3098 29.1075C29.6744 26.4142 30.793 22.96 33.9456 22.4918L49.1268 20.2239C50.3785 20.0381 51.4608 19.2342 52.0205 18.0744L58.5887 4.46891C59.3703 2.84976 60.8472 2.14635 62.3587 2.3227C60.9744 1.36737 58.5936 1.50576 57.37 4.04882L50.9036 17.444C50.3523 18.5858 49.2867 19.3769 48.0543 19.5601L33.1002 21.7946C29.9964 22.2556 28.637 25.5616 31.4977 28.3066L32.3098 29.1075Z" fill="white"/>
<path d="M41.5535 58.3808L42.641 51.881C43.2191 48.4271 45.417 45.4505 48.5634 43.8595L64.6171 35.7422C65.6306 35.0587 64.3017 33.7088 64.1368 34.002C63.9513 34.3314 63.6955 34.6314 63.2986 34.8657L47.4929 42.8577C44.3953 44.4242 42.2314 47.3549 41.6625 50.7552L40.5913 57.1542C40.3528 58.5329 40.9031 59.7591 41.8296 60.5381C41.5352 59.9024 41.4174 59.1666 41.5535 58.3808Z" fill="white"/>
<defs>
<linearGradient id="paint0_linear_2481_987" x1="61.1612" y1="37.5864" x2="61.2214" y2="67.621" gradientUnits="userSpaceOnUse">
<stop stop-color="#BC0017"/>
<stop offset="0.5" stop-color="#C20A10"/>
<stop offset="1" stop-color="#C81409"/>
</linearGradient>
<linearGradient id="paint1_linear_2481_987" x1="13.8719" y1="93.3976" x2="104.485" y2="89.1765" gradientUnits="userSpaceOnUse">
<stop stop-color="#EA022E"/>
<stop offset="0.5" stop-color="#EC1827"/>
<stop offset="1" stop-color="#EF2F20"/>
</linearGradient>
<linearGradient id="paint2_linear_2481_987" x1="94.7639" y1="85.4873" x2="91.8409" y2="97.1746" gradientUnits="userSpaceOnUse">
<stop stop-color="#FFEC33"/>
<stop offset="0.5" stop-color="#FDC81A"/>
<stop offset="1" stop-color="#FBA400"/>
</linearGradient>
<linearGradient id="paint3_linear_2481_987" x1="83.8155" y1="95.4368" x2="101.711" y2="106.794" gradientUnits="userSpaceOnUse">
<stop stop-color="#FFD119"/>
<stop offset="0.4" stop-color="#F5A40C"/>
<stop offset="0.8" stop-color="#EA7800"/>
</linearGradient>
<linearGradient id="paint4_linear_2481_987" x1="103.929" y1="85.3756" x2="107.305" y2="96.3475" gradientUnits="userSpaceOnUse">
<stop stop-color="#F0B300"/>
<stop offset="0.5" stop-color="#F8D857"/>
<stop offset="1" stop-color="#FFFDAF"/>
</linearGradient>
<linearGradient id="paint5_linear_2481_987" x1="-2275.03" y1="-899.893" x2="-2278.29" y2="-871.403" gradientUnits="userSpaceOnUse">
<stop stop-color="#FFD119"/>
<stop offset="0.27" stop-color="#F5A40C"/>
<stop offset="0.54" stop-color="#EA7800"/>
</linearGradient>
<linearGradient id="paint6_linear_2481_987" x1="36.1398" y1="119.529" x2="32.4942" y2="95.0966" gradientUnits="userSpaceOnUse">
<stop stop-color="#FFEC33"/>
<stop offset="0.5" stop-color="#FDD11A"/>
<stop offset="1" stop-color="#FBB500"/>
</linearGradient>
<linearGradient id="paint7_linear_2481_987" x1="32.9284" y1="82.2835" x2="30.8787" y2="121.392" gradientUnits="userSpaceOnUse">
<stop stop-color="#FFD119"/>
<stop offset="0.4" stop-color="#F5A40C"/>
<stop offset="0.8" stop-color="#EA7800"/>
</linearGradient>
<linearGradient id="paint8_linear_2481_987" x1="20.4951" y1="88.8313" x2="25.8835" y2="84.7587" gradientUnits="userSpaceOnUse">
<stop stop-color="#FFD119"/>
<stop offset="0.5" stop-color="#FFE764"/>
<stop offset="1" stop-color="#FFFDAF"/>
</linearGradient>
<linearGradient id="paint9_linear_2481_987" x1="-1214.67" y1="989.346" x2="-1230.14" y2="949.58" gradientUnits="userSpaceOnUse">
<stop stop-color="#FFD119"/>
<stop offset="0.4" stop-color="#F5A40C"/>
<stop offset="0.8" stop-color="#EA7800"/>
</linearGradient>
<linearGradient id="paint10_linear_2481_987" x1="21.4773" y1="89.9767" x2="42.6112" y2="63.1926" gradientUnits="userSpaceOnUse">
<stop stop-color="#FFAA9F"/>
<stop offset="0.5" stop-color="#FE928D"/>
<stop offset="1" stop-color="#FC7A7A"/>
</linearGradient>
<linearGradient id="paint11_linear_2481_987" x1="120.64" y1="85.1786" x2="67.9982" y2="63.6292" gradientUnits="userSpaceOnUse">
<stop stop-color="#FFAA9F"/>
<stop offset="0.5" stop-color="#FE928D"/>
<stop offset="1" stop-color="#FC7A7A"/>
</linearGradient>
<linearGradient id="paint12_linear_2481_987" x1="44.5421" y1="58.5677" x2="74.9107" y2="10.8884" gradientUnits="userSpaceOnUse">
<stop stop-color="#FFC800"/>
<stop offset="0.5" stop-color="#FFDD24"/>
<stop offset="1" stop-color="#FFF248"/>
</linearGradient>
</defs>
</svg>
