<svg width="123" height="126" viewBox="0 0 123 126" fill="none" xmlns="http://www.w3.org/2000/svg">
<path d="M14.3642 62.9097C14.3642 62.9097 10.9129 61.1493 7.83885 61.5078C4.25868 61.9256 1.87169 62.9997 1.03643 62.045C0.0650803 60.9346 18.7917 51.7547 24.308 49.2159C31.4818 45.9142 39.3916 43.2079 41.4734 42.5326C42.9453 42.0553 47.3509 41.399 51.3786 41.8168C54.4265 42.1328 59.9939 43.996 59.9939 43.996C59.9939 43.996 44.8226 48.2338 34.989 52.0799C24.6404 56.1276 16.0906 61.8952 14.3642 62.9097Z" fill="#6ED2FF"/>
<path d="M14.3642 62.9097C14.3642 62.9097 10.9129 61.1493 7.83885 61.5078C4.25868 61.9256 1.87169 62.9997 1.03643 62.045C0.0650803 60.9346 18.7917 51.7547 24.308 49.2159C31.4818 45.9142 39.3916 43.2079 41.4734 42.5326C42.9453 42.0553 47.3509 41.399 51.3786 41.8168C54.4265 42.1328 59.9939 43.996 59.9939 43.996C59.9939 43.996 44.8226 48.2338 34.989 52.0799C24.6404 56.1276 16.0906 61.8952 14.3642 62.9097Z" stroke="#2D9CDE" stroke-width="1.63583"/>
<path d="M107.88 62.9098C107.88 62.9098 111.482 62.0285 114.65 62.1642C118.827 62.3432 121.252 63.2517 121.989 62.741C122.507 62.3831 104.12 52.8358 98.121 49.8919C90.8867 46.3419 82.2253 43.2387 80.1024 42.5324C78.9066 42.1345 74.4414 41.7567 70.3142 42.1745C67.1911 42.4905 60.7074 43.9647 60.7074 43.9647C60.7074 43.9647 75.8685 47.4055 85.8287 51.5428C97.4647 56.376 106.111 61.8953 107.88 62.9098Z" fill="#6ED2FF"/>
<path d="M107.88 62.9098C107.88 62.9098 111.482 62.0285 114.65 62.1642C118.827 62.3432 121.252 63.2517 121.989 62.741C122.507 62.3831 104.12 52.8358 98.121 49.8919C90.8867 46.3419 82.2253 43.2387 80.1024 42.5324C78.9066 42.1345 74.4414 41.7567 70.3142 42.1745C67.1911 42.4905 60.7074 43.9647 60.7074 43.9647C60.7074 43.9647 75.8685 47.4055 85.8287 51.5428C97.4647 56.376 106.111 61.8953 107.88 62.9098Z" stroke="#2D9CDE" stroke-width="1.63583"/>
<path d="M60.7307 88.5516C54.9438 88.3043 27.0618 76.0716 18.1986 71.3365C18.1986 71.3365 13.3474 67.9454 14.0881 63.5316C14.9315 58.5057 56.4959 43.9348 59.9942 43.9963C73.8549 44.2397 107.659 59.2157 108.221 63.5316C108.826 68.1777 106.709 69.0296 106.709 69.0296C96.8275 77.5615 73.1446 89.0822 60.7307 88.5516Z" fill="url(#paint0_linear_2481_834)"/>
<path d="M60.7307 88.5516C54.9438 88.3043 27.0618 76.0716 18.1986 71.3365C18.1986 71.3365 13.3474 67.9454 14.0881 63.5316C14.9315 58.5057 56.4959 43.9348 59.9942 43.9963C73.8549 44.2397 107.659 59.2157 108.221 63.5316C108.826 68.1777 106.709 69.0297 106.709 69.0297C96.8275 77.5615 73.1446 89.0822 60.7307 88.5516Z" stroke="#0078E5" stroke-width="1.63615" stroke-miterlimit="10"/>
<g opacity="0.9">
<path d="M59.9103 45.8962C59.4219 54.2641 60.0458 72.0315 59.9787 78.953C59.9682 80.0444 61.3904 80.015 61.4395 78.9998C61.6322 75.0172 61.8998 50.4559 61.5236 45.9924C61.3485 43.9169 60.0071 44.2382 59.9103 45.8962Z" fill="#006BCC"/>
</g>
<path d="M18.1391 82.672C18.1391 82.672 32.7657 76.8278 41.5968 73.6952C49.738 70.8073 57.6256 66.6814 62.3512 68.2011C67.3791 65.9044 69.7919 71.3645 82.5311 74.4709C85.9941 75.3153 95.1812 80.4381 97.6873 81.8701C100.193 83.3021 76.8417 84.2257 60.7304 86.0159C44.6192 87.8062 21.2717 89.0268 18.1391 82.672Z" fill="#FFC119"/>
<path d="M18.1391 82.672C18.1391 82.672 32.7657 76.8278 41.5968 73.6952C49.738 70.8073 57.6256 66.6814 62.3512 68.2011C67.3791 65.9044 69.7919 71.3645 82.5311 74.4709C85.9941 75.3153 95.1812 80.4381 97.6873 81.8701C100.193 83.3021 76.8417 84.2257 60.7304 86.0159C44.6192 87.8062 21.2717 89.0268 18.1391 82.672Z" stroke="#DB7D0A" stroke-width="1.30866" stroke-miterlimit="10"/>
<path d="M35.4806 78.7377C38.2612 77.6594 45.3796 75.0771 47.1241 73.9647C51.8794 70.9322 59.7474 67.5408 62.4694 69.2873C67.8696 72.7519 85.4957 76.126 93.6057 82.2911C93.7199 82.3778 97.0011 82.1494 95.8972 81.5242C85.6798 75.7373 63.2281 67.5379 60.2251 67.6138C57.2224 67.6897 45.0499 73.4269 40.9263 74.7745C37.2522 75.9752 19.4322 83.1689 19.4322 83.1689C19.4322 83.1689 32.7 79.8161 35.4806 78.7377Z" fill="#FFDE39"/>
<path d="M68.3617 70.8714C68.947 72.45 73.1073 71.3301 72.5082 69.6616C71.9092 67.993 67.7764 69.2928 68.3617 70.8714Z" fill="#FFF36C"/>
<path d="M68.3617 70.8714C68.947 72.45 73.1073 71.3301 72.5082 69.6616C71.9092 67.993 67.7764 69.2928 68.3617 70.8714Z" stroke="#FF9F00" stroke-width="0.817913" stroke-miterlimit="10"/>
<path d="M42.9803 72.7328C42.2239 74.2234 46.8006 75.6233 47.3787 74.1756C47.9568 72.7279 43.7367 71.2422 42.9803 72.7328Z" fill="#FFF36C"/>
<path d="M42.9803 72.7328C42.2239 74.2234 46.8006 75.6233 47.3787 74.1756C47.9568 72.7279 43.7367 71.2422 42.9803 72.7328Z" stroke="#FF9F00" stroke-width="0.817913" stroke-miterlimit="10"/>
<path d="M74.5062 72.8139C73.0157 70.9189 67.3132 70.493 65.9711 73.4577C65.7019 74.0525 67.9812 73.1767 69.6066 72.9362C71.5297 72.6516 74.9698 73.4031 74.5062 72.8139Z" fill="#FFDE39"/>
<path d="M62.8163 77.554C65.1228 75.061 69.5065 76.2895 70.3682 77.9365C70.6408 78.4573 67.727 77.7019 66.7537 77.5736C65.7804 77.4454 62.0249 78.4092 62.8163 77.554Z" fill="#FFDE39"/>
<path d="M53.2973 77.7412C49.6095 79.6048 45.6633 73.1635 49.4136 70.786C53.0382 68.4884 56.9796 75.8806 53.2973 77.7412Z" fill="#FFCC39"/>
<path d="M53.2973 77.7412C49.6095 79.6048 45.6633 73.1635 49.4136 70.786C53.0382 68.4884 56.9796 75.8806 53.2973 77.7412Z" stroke="#FF9F00" stroke-width="0.817913" stroke-miterlimit="10"/>
<path d="M54.5971 76.8791C51.454 78.8186 46.8724 71.6936 50.7133 69.9243C54.5543 68.155 57.7402 74.9397 54.5971 76.8791Z" fill="#FFF36C"/>
<path d="M54.5971 76.8791C51.454 78.8186 46.8724 71.6936 50.7133 69.9243C54.5543 68.155 57.7402 74.9397 54.5971 76.8791Z" stroke="#FF9F00" stroke-width="0.817913" stroke-miterlimit="10"/>
<path d="M50.8405 74.8493C50.7165 74.7155 52.7973 70.7463 53.0181 70.7188C53.1961 70.6969 55.2242 74.9677 55.0704 75.1182C54.9167 75.2687 53.2053 74.708 53.1801 74.5231C53.1147 74.0438 52.9573 72.3776 52.9573 72.3776C52.9573 72.3776 52.4973 74.195 52.3569 74.5185C52.2755 74.7057 50.99 75.0109 50.8405 74.8493Z" fill="#FFC147"/>
<path d="M64.2636 73.25C65.1865 72.401 55.2076 69.2665 56.1832 72.1318C56.5003 73.0622 63.534 73.921 64.2636 73.25Z" fill="#F58A00"/>
<path d="M65.3667 71.259C63.3131 74.511 56.1249 71.0159 58.2214 67.779C59.3694 66.0064 66.6207 69.2728 65.3667 71.259Z" fill="#FFCC39"/>
<path d="M65.3667 71.259C63.3131 74.511 56.1249 71.0159 58.2214 67.779C59.3694 66.0064 66.6207 69.2728 65.3667 71.259Z" stroke="#FF9F00" stroke-width="0.817913" stroke-miterlimit="10"/>
<path d="M65.5629 70.5295C64.2372 73.0333 57.123 69.5264 58.6624 67.0831C60.2017 64.6399 66.8886 68.0257 65.5629 70.5295Z" fill="#FFF36C"/>
<path d="M65.5629 70.5295C64.2372 73.0333 57.123 69.5264 58.6624 67.0831C60.2017 64.6399 66.8886 68.0257 65.5629 70.5295Z" stroke="#FF9F00" stroke-width="0.817913" stroke-miterlimit="10"/>
<path d="M61.803 70.2526C61.6375 70.1999 60.5621 67.0415 60.6923 66.9623C60.7973 66.8985 64.7966 69.1144 64.7874 69.2547C64.7783 69.3951 63.2906 69.505 63.1591 69.3918C62.8182 69.0983 61.6803 68.0583 61.6803 68.0583C61.6803 68.0583 62.5009 69.3676 62.6079 69.6169C62.6697 69.7612 62.0029 70.3161 61.803 70.2526Z" fill="#F8B332"/>
<path d="M38.7903 74.3676C41.4715 77.1472 35.3165 82.0344 32.8258 79.6209C31.3091 78.1512 37.1597 72.6768 38.7903 74.3676Z" fill="#FFCC39"/>
<path d="M38.7903 74.3676C41.4715 77.1472 35.3165 82.0344 32.8258 79.6209C31.3091 78.1512 37.1597 72.6768 38.7903 74.3676Z" stroke="#FF9F00" stroke-width="0.817913" stroke-miterlimit="10"/>
<path d="M38.1964 73.9109C40.0518 75.5928 34.0827 80.5402 32.3575 78.9508C30.0288 76.8053 35.8683 71.8003 38.1964 73.9109Z" fill="#FFF36C"/>
<path d="M38.1964 73.9109C40.0518 75.5928 34.0827 80.5402 32.3575 78.9508C30.0288 76.8053 35.8683 71.8003 38.1964 73.9109Z" stroke="#FF9F00" stroke-width="0.817913" stroke-miterlimit="10"/>
<path d="M73.612 77.9658C71.2617 73.5592 77.4268 70.21 80.422 72.9474C84.0649 76.2763 75.717 81.9127 73.612 77.9658Z" fill="#FFCC39"/>
<path d="M73.612 77.9658C71.2617 73.5592 77.4268 70.21 80.422 72.9474C84.0649 76.2763 75.717 81.9127 73.612 77.9658Z" stroke="#FF9F00" stroke-width="0.817913" stroke-miterlimit="10"/>
<path d="M74.7886 78.4616C72.1635 73.774 79.6065 70.7886 81.3293 73.9143C83.5858 78.0085 76.429 81.391 74.7886 78.4616Z" fill="#FFF36C"/>
<path d="M74.7886 78.4616C72.1635 73.774 79.6065 70.7886 81.3293 73.9143C83.5858 78.0085 76.429 81.391 74.7886 78.4616Z" stroke="#FF9F00" stroke-width="0.817913" stroke-miterlimit="10"/>
<path d="M76.3284 74.3665C76.4472 74.2272 80.7821 76.1676 80.841 76.3992C80.8885 76.5857 76.8218 79.0015 76.6471 78.8487C76.4724 78.6959 76.8038 76.8536 76.9887 76.815C77.4676 76.7152 79.1427 76.4417 79.1427 76.4417C79.1427 76.4417 77.2268 76.0733 76.8778 75.9458C76.6756 75.8718 76.1848 74.535 76.3284 74.3665Z" fill="#FFC23B"/>
<path d="M57.6554 76.6379C58.292 76.4334 55.9871 76.2162 54.1253 76.4243C50.744 76.8021 49.3745 79.1132 49.9169 79.247C52.0226 79.7669 56.3166 77.0678 57.6554 76.6379Z" fill="#FFDE39"/>
<path d="M60.5029 83.6464C62.9651 79.6301 57.1422 75.3862 53.6583 79.6769C50.7586 83.2476 58.1882 87.4216 60.5029 83.6464Z" fill="#FFCC39"/>
<path d="M60.5029 83.6464C62.9651 79.6301 57.1422 75.3862 53.6583 79.6769C50.7586 83.2476 58.1882 87.4216 60.5029 83.6464Z" stroke="#FF9F00" stroke-width="0.817913" stroke-miterlimit="10"/>
<path d="M59.5154 84.2581C61.6285 80.1807 54.9504 76.4448 52.9449 81.029C51.8201 83.5995 58.6841 85.8619 59.5154 84.2581Z" fill="#FFF36C"/>
<path d="M59.5154 84.2581C61.6285 80.1807 54.9504 76.4448 52.9449 81.029C51.8201 83.5995 58.6841 85.8619 59.5154 84.2581Z" stroke="#FF9F00" stroke-width="0.817913" stroke-miterlimit="10"/>
<path d="M82.2051 77.8646C82.2064 77.3512 78.8117 76.5899 77.225 76.7852C74.465 77.1248 73.1191 78.8516 73.352 79.2161C73.9609 80.1681 82.1986 80.4511 82.2051 77.8646Z" fill="#FF9F00"/>
<path d="M72.5991 84.639C69.9736 87.1356 63.9848 82.8651 66.769 79.3769C69.4462 76.0228 75.5887 81.796 72.5991 84.639Z" fill="#FFCC39"/>
<path d="M72.5991 84.639C69.9736 87.1356 63.9848 82.8651 66.769 79.3769C69.4462 76.0228 75.5887 81.796 72.5991 84.639Z" stroke="#FF9F00" stroke-width="0.817913" stroke-miterlimit="10"/>
<path d="M73.617 83.5119C71.0291 86.3144 64.6412 80.5229 67.7283 78.147C70.8155 75.7711 76.2048 80.7094 73.617 83.5119Z" fill="#FFF04E"/>
<path d="M73.617 83.5119C71.0291 86.3144 64.6412 80.5229 67.7283 78.147C70.8155 75.7711 76.2048 80.7094 73.617 83.5119Z" stroke="#FF9F00" stroke-width="0.817913" stroke-miterlimit="10"/>
<path d="M60.8455 85.2698C59.5414 82.8111 53.1672 80.7814 51.2968 83.4704C50.6052 84.4649 61.3114 86.1482 60.8455 85.2698Z" fill="#FF9F00"/>
<path d="M61.0632 82.6175C54.7626 82.6175 14.1693 64.6875 14.1693 64.6875C14.1693 64.6875 14.1566 100.56 16.0459 104.815C17.8722 108.929 57.4866 124.457 60.9719 124.393C74.7815 124.14 103.35 109.944 106.08 104.815C107.569 102.02 107.957 64.6875 107.957 64.6875C107.957 64.6875 67.3637 82.6175 61.0632 82.6175Z" fill="url(#paint1_linear_2481_834)"/>
<path d="M61.0631 82.2662C54.7625 82.2662 14.1692 64.3359 14.1692 64.3359C14.1692 64.3359 13.9111 100.326 16.0458 104.464C20.7508 113.583 54.4645 123.963 60.9718 124.042" fill="#6ED2FF"/>
<path d="M60.728 84.4375C60.3698 96.5135 60.7837 113.622 60.7343 123.611C60.7264 125.186 61.7694 125.143 61.8054 123.678C61.9467 117.931 62.1872 91.0178 61.9111 84.5762C61.7828 81.5807 60.799 82.0446 60.728 84.4375Z" fill="#CEF1FF"/>
<path d="M61.0631 82.6175C54.7626 82.6175 14.1693 64.6875 14.1693 64.6875C14.1693 64.6875 13.7956 98.6809 16.0459 104.815C18.2961 110.95 53.609 124.114 60.9719 124.393C68.3347 124.672 104.02 111.043 106.08 104.815C108.141 98.588 107.957 64.6875 107.957 64.6875C107.957 64.6875 67.3637 82.6175 61.0631 82.6175Z" stroke="#0078E5" stroke-width="1.63583" stroke-linecap="round" stroke-linejoin="round"/>
<path d="M94.9892 113.332C94.5543 96.8688 96.0579 89.2239 103.575 84.9961C100.187 86.021 91.3668 89.718 87.2775 92.5732C80.0706 97.6051 79.09 108.88 80.1781 118.883C80.4059 120.979 95.0443 115.412 94.9892 113.332Z" fill="url(#paint2_linear_2481_834)"/>
<path d="M94.9892 113.332C94.5543 96.8688 96.0579 89.2239 103.575 84.9961C100.187 86.021 91.3668 89.718 87.2775 92.5732C80.0706 97.6051 79.09 108.88 80.1781 118.883C80.4059 120.979 95.0443 115.412 94.9892 113.332Z" stroke="url(#paint3_linear_2481_834)" stroke-width="1.6362" stroke-linecap="round" stroke-linejoin="round"/>
<path d="M94.0432 108.664C94.0432 108.664 93.7669 110.937 91.6787 112.292C90.1392 113.29 86.6002 114.731 84.4174 115.028C82.7203 115.258 81.4617 115.139 80.8089 114.926C80.4438 114.808 80.9078 118.424 80.9078 118.424C80.9078 118.424 83.483 118.89 88.7936 116.362C91.0813 115.273 94.005 114.13 94.1431 113.169C94.2813 112.209 94.0432 108.664 94.0432 108.664Z" fill="#F7BD00"/>
<path d="M102.178 94.8538C97.1625 87.4257 92.0088 90.3556 91.7262 90.0852C91.3787 89.7524 100.368 85.8963 103.318 85.038C109.619 83.2041 114.06 88.9009 113.649 89.4885C113.187 90.1488 102.406 95.1911 102.178 94.8538Z" fill="url(#paint4_linear_2481_834)"/>
<path d="M102.178 94.8538C97.1625 87.4257 92.0088 90.3556 91.7262 90.0852C91.3787 89.7524 100.368 85.8963 103.318 85.038C109.619 83.2041 114.06 88.9009 113.649 89.4885C113.187 90.1488 102.406 95.1911 102.178 94.8538Z" stroke="url(#paint5_linear_2481_834)" stroke-width="1.6362" stroke-miterlimit="10"/>
<g opacity="0.5">
<path d="M28.3564 81.0315C30.9135 79.5122 39.253 82.4223 42.9163 85.6858C44.0077 86.6581 60.2442 82.4292 61.1393 83.2347C62.7461 84.6807 46.9826 99.9623 47.0192 102.314C47.0539 104.55 46.4323 114.12 45.8522 119.277C43.0118 118.692 36.5274 117.209 31.7835 113.699C31.3385 113.369 26.984 81.8471 28.3564 81.0315Z" fill="#0095F2"/>
</g>
<path d="M29.2922 114.735C29.3976 83.5303 21.9497 85.915 21.8525 84.6047C21.7331 82.9931 33.4934 86.9547 37.0686 89.4854C44.7066 94.8911 44.4625 118.912 43.5969 120.029C42.6245 121.283 29.2873 116.152 29.2922 114.735Z" fill="url(#paint6_linear_2481_834)"/>
<path d="M29.2922 114.735C29.3976 83.5303 21.9497 85.915 21.8525 84.6047C21.7331 82.9931 33.4934 86.9547 37.0686 89.4854C44.7066 94.8911 44.4625 118.912 43.5969 120.029C42.6245 121.283 29.2873 116.152 29.2922 114.735Z" stroke="url(#paint7_linear_2481_834)" stroke-width="1.63615" stroke-miterlimit="10"/>
<path d="M30.0916 110.297C30.0916 110.297 30.5447 112.178 31.8894 113.403C33.234 114.627 37.3573 116.19 39.7381 116.39C42.0465 116.584 42.8543 116.083 43.0706 116.406C43.4386 116.955 42.9018 119.297 42.9018 119.297C42.9018 119.297 40.094 119.253 35.7643 117.294C33.5429 116.289 30.4351 115.118 30.2706 114.654C30.0743 114.1 30.0916 110.297 30.0916 110.297Z" fill="#F7CC10"/>
<path d="M25.4722 92.8826C30.4487 86.4767 35.562 89.0037 35.8424 88.7704C36.1872 88.4835 27.2674 85.1582 24.3409 84.4178C18.0891 82.8363 13.6819 87.749 14.0902 88.2558C14.5488 88.8251 25.2465 93.1734 25.4722 92.8826Z" fill="url(#paint8_linear_2481_834)"/>
<path d="M25.4722 92.8826C30.4487 86.4767 35.562 89.0037 35.8424 88.7704C36.1872 88.4835 27.2674 85.1582 24.3409 84.4178C18.0891 82.8363 13.6819 87.749 14.0902 88.2558C14.5488 88.8251 25.2465 93.1734 25.4722 92.8826Z" stroke="url(#paint9_linear_2481_834)" stroke-width="1.63615" stroke-miterlimit="10"/>
<path d="M14.4019 62.6992C14.4019 62.6992 5.71567 70.1599 4.79502 71.3714C3.6614 72.8633 2.16952 74.7929 2.82582 76.1254C3.48211 77.458 13.9128 82.5572 19.6329 85.096C27.072 88.3977 45.3265 94.9871 47.6386 94.7228C49.031 94.5638 52.4846 90.8014 54.7593 88.4772C57.0341 86.153 61.1525 82.6095 61.1525 82.6095C61.1525 82.6095 46.3476 77.7004 36.1508 73.8542C25.4202 69.8066 16.1921 63.7138 14.4019 62.6992Z" fill="url(#paint10_linear_2481_834)"/>
<path d="M14.4019 62.6992C14.4019 62.6992 5.71567 70.1599 4.79502 71.3714C3.6614 72.8633 2.16952 74.7929 2.82582 76.1254C3.48211 77.458 13.9128 82.5572 19.6329 85.096C27.072 88.3977 45.3265 94.9871 47.6386 94.7228C49.031 94.5638 52.4846 90.8014 54.7593 88.4772C57.0341 86.153 61.1525 82.6095 61.1525 82.6095C61.1525 82.6095 46.3476 77.7004 36.1508 73.8542C25.4202 69.8066 16.1921 63.7138 14.4019 62.6992Z" stroke="#2D9CDE" stroke-width="1.63583" stroke-linecap="round" stroke-linejoin="round"/>
<path d="M108.176 63.4453C108.176 63.4453 116.294 70.676 117.215 71.8875C118.349 73.3794 119.806 74.9615 118.856 76.7806C117.906 78.5996 108.859 82.7955 103.138 85.3343C95.6993 88.636 78.1305 97.4862 75.1471 96.6509C72.0528 95.7846 70.2871 91.0401 68.0123 88.7159C65.7375 86.3917 61.4029 82.5887 61.4029 82.5887C61.4029 82.5887 76.4165 77.6279 86.7032 73.4435C97.6397 68.9947 106.386 64.4599 108.176 63.4453Z" fill="url(#paint11_linear_2481_834)"/>
<path d="M108.176 63.4453C108.176 63.4453 116.294 70.676 117.215 71.8875C118.349 73.3794 119.806 74.9615 118.856 76.7806C117.906 78.5996 108.859 82.7955 103.138 85.3343C95.6993 88.636 78.1305 97.4862 75.1471 96.6509C72.0528 95.7846 70.2871 91.04 68.0123 88.7159C65.7375 86.3917 61.4029 82.5887 61.4029 82.5887C61.4029 82.5887 76.4165 77.6279 86.7032 73.4435C97.6397 68.9947 106.386 64.4599 108.176 63.4453Z" stroke="#2D9CDE" stroke-width="1.63583" stroke-linecap="round" stroke-linejoin="round"/>
<g opacity="0.01">
<path d="M79.8262 120.401C80.5042 118.575 86.735 119.499 86.1393 121.325C85.5436 123.151 79.1482 122.227 79.8262 120.401Z" fill="#F9FF38"/>
<path d="M79.8262 120.401C80.5042 118.575 86.735 119.499 86.1393 121.325C85.5436 123.151 79.1482 122.227 79.8262 120.401Z" stroke="#F6AF00" stroke-width="1.21771" stroke-miterlimit="10"/>
</g>
<path d="M63.9642 3.19609L70.6966 16.8376C71.2705 18.0003 72.3799 18.8061 73.663 18.9926L88.7172 21.18C91.9486 21.6495 93.239 25.6206 90.9007 27.9L80.0074 38.5185C79.0789 39.4234 78.6552 40.7275 78.8744 42.0054L81.446 56.9987C81.9979 60.217 78.6199 62.6714 75.7297 61.1521L62.2649 54.0732C61.1172 53.4699 59.7458 53.4699 58.5981 54.0732L44.864 61.2934C42.0838 62.7549 38.8347 60.3944 39.3657 57.2987L40.4712 50.6331C41.0587 47.0912 43.2926 44.0381 46.491 42.4065L62.8097 34.0815C63.2193 33.8374 63.4925 33.4029 63.4957 32.9262C63.4974 32.7028 63.4457 32.5578 63.3155 32.3926C62.9814 31.9683 62.436 31.7687 61.9015 31.8433L42.4597 34.5575C39.3323 34.9939 36.1791 33.9601 33.918 31.756L29.9623 27.9C27.624 25.6206 28.9144 21.6495 32.1458 21.18L47.2 18.9926C48.4831 18.8061 49.5925 18.0003 50.1664 16.8376L56.8988 3.19609C58.3439 0.267968 62.5191 0.267968 63.9642 3.19609Z" fill="url(#paint12_linear_2481_834)"/>
<path d="M63.9642 3.19609L70.6966 16.8376C71.2705 18.0003 72.3799 18.8061 73.663 18.9926L88.7172 21.18C91.9486 21.6495 93.239 25.6206 90.9007 27.9L80.0074 38.5185C79.0789 39.4234 78.6552 40.7275 78.8744 42.0054L81.446 56.9987C81.9979 60.217 78.6199 62.6714 75.7297 61.1521L62.2649 54.0732C61.1172 53.4699 59.7458 53.4699 58.5981 54.0732L44.864 61.2934C42.0838 62.7549 38.8347 60.3944 39.3657 57.2987L40.4712 50.6331C41.0587 47.0912 43.2926 44.0381 46.491 42.4065L62.8097 34.0815C63.2193 33.8374 63.4925 33.4029 63.4957 32.9262C63.4974 32.7028 63.4457 32.5578 63.3155 32.3926C62.9814 31.9683 62.436 31.7687 61.9015 31.8433L42.4597 34.5575C39.3323 34.9939 36.1791 33.9601 33.918 31.756L29.9623 27.9C27.624 25.6206 28.9144 21.6495 32.1458 21.18L47.2 18.9926C48.4831 18.8061 49.5925 18.0003 50.1664 16.8376L56.8988 3.19609C58.3439 0.267968 62.5191 0.267968 63.9642 3.19609Z" stroke="#DB9500" stroke-width="1.63583"/>
<g opacity="0.01">
<path d="M48.9348 18.4254C48.485 18.0982 48.4032 18.957 46.522 19.0797C45.5519 19.1429 29.9593 19.7341 29.1413 23.5782C28.8534 24.9317 45.5405 33.1069 46.7674 33.7613C47.9942 34.4156 62.9944 30.397 63.4528 32.8616C63.7799 34.6201 54.7829 37.401 55.4781 38.1371C56.1734 38.8732 80.5472 52.1643 80.3018 50.733C80.0564 49.3016 78.8295 40.918 79.4021 39.4049C79.9746 37.8917 82.9499 36.7107 81.8967 36.215C77.0301 33.9248 51.9052 20.5857 48.9348 18.4254Z" fill="white"/>
</g>
<path d="M32.3095 29.1074C29.6742 26.4141 30.7928 22.9599 33.9454 22.4918L49.1265 20.2239C50.3782 20.038 51.4605 19.2342 52.0203 18.0744L58.5884 4.4689C59.37 2.84976 60.8468 2.14635 62.3583 2.32269C60.9741 1.36737 58.5933 1.50576 57.3697 4.04882L50.9033 17.4439C50.352 18.5857 49.2865 19.3768 48.054 19.56L33.1 21.7946C29.9962 22.2556 28.6368 25.5616 31.4975 28.3065L32.3095 29.1074Z" fill="white"/>
<path d="M41.5533 58.3807L42.6408 51.8809C43.2189 48.427 45.4168 45.4505 48.5631 43.8595L64.6168 35.7422C65.6303 35.0587 64.3014 33.7088 64.1365 34.002C63.951 34.3314 63.6952 34.6314 63.2983 34.8657L47.4926 42.8577C44.395 44.4241 42.2312 47.3549 41.6622 50.7551L40.5911 57.1541C40.3526 58.5328 40.9029 59.759 41.8294 60.538C41.535 59.9023 41.4172 59.1665 41.5533 58.3807Z" fill="white"/>
<defs>
<linearGradient id="paint0_linear_2481_834" x1="60.0826" y1="44.1716" x2="61.6281" y2="67.5247" gradientUnits="userSpaceOnUse">
<stop stop-color="#14A8F2"/>
<stop offset="0.5" stop-color="#178EE4"/>
<stop offset="1" stop-color="#1A74D6"/>
</linearGradient>
<linearGradient id="paint1_linear_2481_834" x1="-17.8647" y1="90.1373" x2="104.485" y2="89.1765" gradientUnits="userSpaceOnUse">
<stop stop-color="#49C3F5"/>
<stop offset="0.5" stop-color="#3AADFA"/>
<stop offset="1" stop-color="#2C97FF"/>
</linearGradient>
<linearGradient id="paint2_linear_2481_834" x1="94.7644" y1="85.4912" x2="91.8414" y2="97.1785" gradientUnits="userSpaceOnUse">
<stop stop-color="#FFEC33"/>
<stop offset="0.5" stop-color="#FDC81A"/>
<stop offset="1" stop-color="#FBA400"/>
</linearGradient>
<linearGradient id="paint3_linear_2481_834" x1="83.816" y1="95.4407" x2="101.711" y2="106.798" gradientUnits="userSpaceOnUse">
<stop stop-color="#FFD119"/>
<stop offset="0.4" stop-color="#F5A40C"/>
<stop offset="0.8" stop-color="#EA7800"/>
</linearGradient>
<linearGradient id="paint4_linear_2481_834" x1="103.929" y1="85.3756" x2="107.305" y2="96.3475" gradientUnits="userSpaceOnUse">
<stop stop-color="#F0B300"/>
<stop offset="0.5" stop-color="#F8D857"/>
<stop offset="1" stop-color="#FFFDAF"/>
</linearGradient>
<linearGradient id="paint5_linear_2481_834" x1="-2275.02" y1="-899.889" x2="-2278.28" y2="-871.4" gradientUnits="userSpaceOnUse">
<stop stop-color="#FFD119"/>
<stop offset="0.27" stop-color="#F5A40C"/>
<stop offset="0.54" stop-color="#EA7800"/>
</linearGradient>
<linearGradient id="paint6_linear_2481_834" x1="36.1391" y1="119.533" x2="32.4935" y2="95.1005" gradientUnits="userSpaceOnUse">
<stop stop-color="#FFEC33"/>
<stop offset="0.5" stop-color="#FDD11A"/>
<stop offset="1" stop-color="#FBB500"/>
</linearGradient>
<linearGradient id="paint7_linear_2481_834" x1="32.9277" y1="82.2874" x2="30.878" y2="121.395" gradientUnits="userSpaceOnUse">
<stop stop-color="#FFD119"/>
<stop offset="0.4" stop-color="#F5A40C"/>
<stop offset="0.8" stop-color="#EA7800"/>
</linearGradient>
<linearGradient id="paint8_linear_2481_834" x1="20.4951" y1="88.8313" x2="25.8835" y2="84.7587" gradientUnits="userSpaceOnUse">
<stop stop-color="#FFD119"/>
<stop offset="0.5" stop-color="#FFE764"/>
<stop offset="1" stop-color="#FFFDAF"/>
</linearGradient>
<linearGradient id="paint9_linear_2481_834" x1="-1214.67" y1="989.343" x2="-1230.14" y2="949.578" gradientUnits="userSpaceOnUse">
<stop stop-color="#FFD119"/>
<stop offset="0.4" stop-color="#F5A40C"/>
<stop offset="0.8" stop-color="#EA7800"/>
</linearGradient>
<linearGradient id="paint10_linear_2481_834" x1="21.4762" y1="89.9727" x2="42.6101" y2="63.1887" gradientUnits="userSpaceOnUse">
<stop stop-color="#73EFFF"/>
<stop offset="0.5" stop-color="#8CE2FF"/>
<stop offset="1" stop-color="#A5D5FF"/>
</linearGradient>
<linearGradient id="paint11_linear_2481_834" x1="120.639" y1="85.1746" x2="67.9972" y2="63.6253" gradientUnits="userSpaceOnUse">
<stop stop-color="#73EFFF"/>
<stop offset="0.5" stop-color="#8CE2FF"/>
<stop offset="1" stop-color="#A5D5FF"/>
</linearGradient>
<linearGradient id="paint12_linear_2481_834" x1="44.5417" y1="58.5675" x2="74.9102" y2="10.8884" gradientUnits="userSpaceOnUse">
<stop stop-color="#FFC800"/>
<stop offset="0.5" stop-color="#FFDD24"/>
<stop offset="1" stop-color="#FFF248"/>
</linearGradient>
</defs>
</svg>
