<svg width="123" height="126" viewBox="0 0 123 126" fill="none" xmlns="http://www.w3.org/2000/svg">
<path d="M14.3638 62.9094C14.3638 62.9094 10.9125 61.1489 7.83849 61.5075C4.25832 61.9253 1.87132 62.9994 1.03607 62.0447C0.0647133 60.9343 18.7913 51.7546 24.3077 49.2158C31.4814 45.9141 39.3913 43.2078 41.4731 42.5326C42.945 42.0552 47.3506 41.399 51.3783 41.8168C54.4262 42.1328 59.9936 43.996 59.9936 43.996C59.9936 43.996 44.8222 48.2337 34.9886 52.0797C24.6401 56.1274 16.0903 61.8949 14.3638 62.9094Z" fill="#B7F04A"/>
<path d="M14.3638 62.9094C14.3638 62.9094 10.9125 61.1489 7.83849 61.5075C4.25832 61.9253 1.87132 62.9994 1.03607 62.0447C0.0647133 60.9343 18.7913 51.7546 24.3077 49.2158C31.4814 45.9141 39.3913 43.2078 41.4731 42.5326C42.945 42.0552 47.3506 41.399 51.3783 41.8168C54.4262 42.1328 59.9936 43.996 59.9936 43.996C59.9936 43.996 44.8222 48.2337 34.9886 52.0797C24.6401 56.1274 16.0903 61.8949 14.3638 62.9094Z" stroke="#5CC61B" stroke-width="1.63581"/>
<path d="M107.88 62.9095C107.88 62.9095 111.482 62.0281 114.649 62.1639C118.826 62.3429 121.251 63.2514 121.989 62.7407C122.506 62.3828 104.12 52.8356 98.1208 49.8918C90.8865 46.3418 82.2251 43.2387 80.1021 42.5324C78.9063 42.1345 74.4412 41.7567 70.314 42.1744C67.1909 42.4905 60.7071 43.9647 60.7071 43.9647C60.7071 43.9647 75.8683 47.4054 85.8285 51.5427C97.4645 56.3758 106.111 61.895 107.88 62.9095Z" fill="#B7F04A"/>
<path d="M107.88 62.9095C107.88 62.9095 111.482 62.0281 114.649 62.1639C118.826 62.3429 121.251 63.2514 121.989 62.7407C122.506 62.3828 104.12 52.8356 98.1208 49.8918C90.8865 46.3418 82.2251 43.2387 80.1021 42.5324C78.9063 42.1345 74.4412 41.7567 70.314 42.1744C67.1909 42.4905 60.7071 43.9647 60.7071 43.9647C60.7071 43.9647 75.8683 47.4054 85.8285 51.5427C97.4645 56.3758 106.111 61.895 107.88 62.9095Z" stroke="#5CC61B" stroke-width="1.63581"/>
<path d="M60.7307 88.5469C54.9438 88.2996 27.0618 76.0671 18.1985 71.3321C18.1985 71.3321 13.3473 67.9411 14.088 63.5274C14.9315 58.5016 56.4959 43.9309 59.9942 43.9924C73.8549 44.2358 107.659 59.2115 108.221 63.5274C108.826 68.1734 106.71 69.0253 106.71 69.0253C96.8275 77.557 73.1447 89.0776 60.7307 88.5469Z" fill="url(#paint0_linear_2481_356)"/>
<path d="M60.7307 88.5469C54.9438 88.2996 27.0618 76.0671 18.1985 71.3321C18.1985 71.3321 13.3473 67.9411 14.088 63.5274C14.9315 58.5016 56.4959 43.9309 59.9942 43.9924C73.8549 44.2358 107.659 59.2115 108.221 63.5274C108.826 68.1734 106.71 69.0253 106.71 69.0253C96.8275 77.557 73.1447 89.0776 60.7307 88.5469Z" stroke="#0B8B00" stroke-width="1.63614" stroke-miterlimit="10"/>
<g opacity="0.9">
<path d="M59.911 45.8923C59.4226 54.2601 60.0465 72.0271 59.9794 78.9485C59.9689 80.0399 61.3911 80.0105 61.4402 78.9953C61.6329 75.0128 61.9005 50.4519 61.5243 45.9885C61.3492 43.913 60.0079 44.2343 59.911 45.8923Z" fill="#01860C"/>
</g>
<path d="M18.1389 82.6717C18.1389 82.6717 32.7655 76.8276 41.5967 73.6951C49.7379 70.8073 57.6255 66.6814 62.3511 68.2011C67.379 65.9044 69.7918 71.3644 82.531 74.4708C85.994 75.3152 95.1812 80.4379 97.6872 81.8698C100.193 83.3018 76.8416 84.2254 60.7303 86.0156C44.6191 87.8058 21.2716 89.0265 18.1389 82.6717Z" fill="#FFC119"/>
<path d="M18.1389 82.6717C18.1389 82.6717 32.7655 76.8276 41.5967 73.6951C49.7379 70.8073 57.6255 66.6814 62.3511 68.2011C67.379 65.9044 69.7918 71.3644 82.531 74.4708C85.994 75.3152 95.1812 80.4379 97.6872 81.8698C100.193 83.3018 76.8416 84.2254 60.7303 86.0156C44.6191 87.8058 21.2716 89.0265 18.1389 82.6717Z" stroke="#DB7D0A" stroke-width="1.30865" stroke-miterlimit="10"/>
<path d="M35.4803 78.7415C38.2609 77.6631 45.3793 75.0809 47.1238 73.9685C51.8791 70.9361 59.7471 67.5448 62.4691 69.2911C67.8693 72.7558 85.4954 76.1298 93.6055 82.2947C93.7196 82.3814 97.0008 82.1531 95.8969 81.5279C85.6796 75.7411 63.2278 67.5418 60.2248 67.6177C57.2221 67.6936 45.0495 73.4307 40.9259 74.7783C37.2519 75.9789 19.4318 83.1725 19.4318 83.1725C19.4318 83.1725 32.6997 79.8198 35.4803 78.7415Z" fill="#FFDE39"/>
<path d="M68.3614 70.8753C68.9467 72.4538 73.1069 71.334 72.5078 69.6655C71.9088 67.9969 67.7761 69.2967 68.3614 70.8753Z" fill="#FFF36C"/>
<path d="M68.3614 70.8753C68.9467 72.4538 73.1069 71.334 72.5078 69.6655C71.9088 67.9969 67.7761 69.2967 68.3614 70.8753Z" stroke="#FF9F00" stroke-width="0.817906" stroke-miterlimit="10"/>
<path d="M42.9804 72.7328C42.224 74.2233 46.8007 75.6232 47.3788 74.1756C47.9569 72.7279 43.7368 71.2422 42.9804 72.7328Z" fill="#FFF36C"/>
<path d="M42.9804 72.7328C42.224 74.2233 46.8007 75.6232 47.3788 74.1756C47.9569 72.7279 43.7368 71.2422 42.9804 72.7328Z" stroke="#FF9F00" stroke-width="0.817906" stroke-miterlimit="10"/>
<path d="M74.5062 72.8178C73.0156 70.9229 67.3131 70.4969 65.9711 73.4616C65.7018 74.0564 67.9812 73.1806 69.6066 72.9401C71.5296 72.6555 74.9698 73.407 74.5062 72.8178Z" fill="#FFDE39"/>
<path d="M62.8163 77.554C65.1228 75.061 69.5065 76.2895 70.3682 77.9364C70.6407 78.4573 67.727 77.7019 66.7537 77.5736C65.7804 77.4454 62.0248 78.4092 62.8163 77.554Z" fill="#FFDE39"/>
<path d="M53.2975 77.7411C49.6096 79.6046 45.6634 73.1635 49.4137 70.786C53.0383 68.4884 56.9797 75.8806 53.2975 77.7411Z" fill="#FFCC39"/>
<path d="M53.2975 77.7411C49.6096 79.6046 45.6634 73.1635 49.4137 70.786C53.0383 68.4884 56.9797 75.8806 53.2975 77.7411Z" stroke="#FF9F00" stroke-width="0.817906" stroke-miterlimit="10"/>
<path d="M54.5969 76.879C51.4538 78.8184 46.8722 71.6935 50.7131 69.9243C54.554 68.155 57.74 74.9396 54.5969 76.879Z" fill="#FFF36C"/>
<path d="M54.5969 76.879C51.4538 78.8184 46.8722 71.6935 50.7131 69.9243C54.554 68.155 57.74 74.9396 54.5969 76.879Z" stroke="#FF9F00" stroke-width="0.817906" stroke-miterlimit="10"/>
<path d="M50.8408 74.8492C50.7168 74.7154 52.7976 70.7463 53.0184 70.7188C53.1964 70.6969 55.2245 74.9677 55.0707 75.1182C54.917 75.2686 53.2056 74.7079 53.1804 74.523C53.1149 74.0438 52.9576 72.3775 52.9576 72.3775C52.9576 72.3775 52.4976 74.1949 52.3572 74.5185C52.2758 74.7056 50.9903 75.0108 50.8408 74.8492Z" fill="#FFC147"/>
<path d="M64.2641 73.25C65.187 72.401 55.2081 69.2665 56.1837 72.1317C56.5008 73.0622 63.5345 73.921 64.2641 73.25Z" fill="#F58A00"/>
<path d="M65.3663 71.259C63.3127 74.5109 56.1246 71.0159 58.221 67.779C59.3691 66.0064 66.6203 69.2728 65.3663 71.259Z" fill="#FFCC39"/>
<path d="M65.3663 71.259C63.3127 74.5109 56.1246 71.0159 58.221 67.779C59.3691 66.0064 66.6203 69.2728 65.3663 71.259Z" stroke="#FF9F00" stroke-width="0.817906" stroke-miterlimit="10"/>
<path d="M65.5628 70.5294C64.2372 73.0332 57.123 69.5263 58.6623 67.0831C60.2016 64.6399 66.8885 68.0257 65.5628 70.5294Z" fill="#FFF36C"/>
<path d="M65.5628 70.5294C64.2372 73.0332 57.123 69.5263 58.6623 67.0831C60.2016 64.6399 66.8885 68.0257 65.5628 70.5294Z" stroke="#FF9F00" stroke-width="0.817906" stroke-miterlimit="10"/>
<path d="M61.8025 70.2525C61.6369 70.1999 60.5615 67.0415 60.6918 66.9623C60.7968 66.8985 64.796 69.1143 64.7869 69.2547C64.7777 69.395 63.2901 69.505 63.1586 69.3918C62.8177 69.0983 61.6798 68.0583 61.6798 68.0583C61.6798 68.0583 62.5003 69.3676 62.6073 69.6169C62.6691 69.7611 62.0024 70.316 61.8025 70.2525Z" fill="#F8B332"/>
<path d="M38.7897 74.3715C41.4708 77.151 35.3159 82.0381 32.8251 79.6247C31.3084 78.1551 37.1591 72.6807 38.7897 74.3715Z" fill="#FFCC39"/>
<path d="M38.7897 74.3715C41.4708 77.151 35.3159 82.0381 32.8251 79.6247C31.3084 78.1551 37.1591 72.6807 38.7897 74.3715Z" stroke="#FF9F00" stroke-width="0.817906" stroke-miterlimit="10"/>
<path d="M38.1962 73.9109C40.0516 75.5928 34.0824 80.5401 32.3573 78.9508C30.0285 76.8052 35.8681 71.8004 38.1962 73.9109Z" fill="#FFF36C"/>
<path d="M38.1962 73.9109C40.0516 75.5928 34.0824 80.5401 32.3573 78.9508C30.0285 76.8052 35.8681 71.8004 38.1962 73.9109Z" stroke="#FF9F00" stroke-width="0.817906" stroke-miterlimit="10"/>
<path d="M73.6124 77.9657C71.262 73.5592 77.4271 70.2101 80.4223 72.9474C84.0653 76.2763 75.7173 81.9126 73.6124 77.9657Z" fill="#FFCC39"/>
<path d="M73.6124 77.9657C71.262 73.5592 77.4271 70.2101 80.4223 72.9474C84.0653 76.2763 75.7173 81.9126 73.6124 77.9657Z" stroke="#FF9F00" stroke-width="0.817906" stroke-miterlimit="10"/>
<path d="M74.7889 78.4654C72.1637 73.7779 79.6067 70.7925 81.3296 73.9182C83.5861 78.0123 76.4293 81.3948 74.7889 78.4654Z" fill="#FFF36C"/>
<path d="M74.7889 78.4654C72.1637 73.7779 79.6067 70.7925 81.3296 73.9182C83.5861 78.0123 76.4293 81.3948 74.7889 78.4654Z" stroke="#FF9F00" stroke-width="0.817906" stroke-miterlimit="10"/>
<path d="M76.3286 74.3704C76.4473 74.2311 80.7823 76.1714 80.8412 76.4031C80.8886 76.5896 76.8219 79.0053 76.6472 78.8525C76.4725 78.6997 76.8039 76.8575 76.9888 76.8189C77.4678 76.7191 79.1428 76.4456 79.1428 76.4456C79.1428 76.4456 77.227 76.0772 76.8779 75.9496C76.6757 75.8757 76.1849 74.5389 76.3286 74.3704Z" fill="#FFC23B"/>
<path d="M57.6551 76.6379C58.2918 76.4334 55.9869 76.2162 54.125 76.4243C50.7438 76.8021 49.3742 79.1132 49.9167 79.247C52.0223 79.7668 56.3164 77.0678 57.6551 76.6379Z" fill="#FFDE39"/>
<path d="M60.5023 83.6502C62.9645 79.634 57.1416 75.3901 53.6576 79.6808C50.758 83.2514 58.1876 87.4253 60.5023 83.6502Z" fill="#FFCC39"/>
<path d="M60.5023 83.6502C62.9645 79.634 57.1416 75.3901 53.6576 79.6808C50.758 83.2514 58.1876 87.4253 60.5023 83.6502Z" stroke="#FF9F00" stroke-width="0.817906" stroke-miterlimit="10"/>
<path d="M59.515 84.258C61.6282 80.1806 54.9501 76.4448 52.9445 81.029C51.8198 83.5995 58.6837 85.8618 59.515 84.258Z" fill="#FFF36C"/>
<path d="M59.515 84.258C61.6282 80.1806 54.9501 76.4448 52.9445 81.029C51.8198 83.5995 58.6837 85.8618 59.515 84.258Z" stroke="#FF9F00" stroke-width="0.817906" stroke-miterlimit="10"/>
<path d="M82.2049 77.8684C82.2062 77.3551 78.8116 76.5938 77.2248 76.7891C74.4648 77.1287 73.1189 78.8555 73.3518 79.2199C73.9607 80.172 82.1984 80.455 82.2049 77.8684Z" fill="#FF9F00"/>
<path d="M72.5989 84.6389C69.9734 87.1355 63.9846 82.8651 66.7688 79.3769C69.446 76.0228 75.5885 81.7959 72.5989 84.6389Z" fill="#FFCC39"/>
<path d="M72.5989 84.6389C69.9734 87.1355 63.9846 82.8651 66.7688 79.3769C69.446 76.0228 75.5885 81.7959 72.5989 84.6389Z" stroke="#FF9F00" stroke-width="0.817906" stroke-miterlimit="10"/>
<path d="M73.6169 83.5118C71.029 86.3142 64.6411 80.5228 67.7282 78.147C70.8154 75.7712 76.2048 80.7093 73.6169 83.5118Z" fill="#FFF04E"/>
<path d="M73.6169 83.5118C71.029 86.3142 64.6411 80.5228 67.7282 78.147C70.8154 75.7712 76.2048 80.7093 73.6169 83.5118Z" stroke="#FF9F00" stroke-width="0.817906" stroke-miterlimit="10"/>
<path d="M60.8453 85.2697C59.5412 82.8111 53.167 80.7814 51.2966 83.4703C50.605 84.4649 61.3112 86.1481 60.8453 85.2697Z" fill="#FF9F00"/>
<path d="M61.0634 82.6133C54.7628 82.6133 14.1695 64.6836 14.1695 64.6836C14.1695 64.6836 14.1567 100.555 16.0461 104.811C17.8723 108.924 57.4868 124.452 60.9721 124.388C74.7818 124.135 103.35 109.94 106.081 104.811C107.569 102.015 107.957 64.6836 107.957 64.6836C107.957 64.6836 67.3639 82.6133 61.0634 82.6133Z" fill="url(#paint1_linear_2481_356)"/>
<path d="M61.0634 82.262C54.7629 82.262 14.1695 64.332 14.1695 64.332C14.1695 64.332 13.9114 100.322 16.0461 104.459C20.7511 113.579 54.4648 123.959 60.9721 124.037" fill="#9CDE1D"/>
<path d="M60.7282 84.4336C60.3699 96.5094 60.7838 113.617 60.7344 123.606C60.7265 125.181 61.7695 125.139 61.8055 123.674C61.9468 117.927 62.1873 91.0137 61.9112 84.5723C61.7829 81.5768 60.7992 82.0407 60.7282 84.4336Z" fill="#E5FFBF"/>
<path d="M61.0632 82.6133C54.7626 82.6133 14.1692 64.6836 14.1692 64.6836C14.1692 64.6836 13.7956 98.6765 16.0458 104.811C18.2961 110.945 53.609 124.109 60.9719 124.388C68.3347 124.667 104.02 111.038 106.08 104.811C108.141 98.5836 107.957 64.6836 107.957 64.6836C107.957 64.6836 67.3637 82.6133 61.0632 82.6133Z" stroke="#1A8B00" stroke-width="1.63581" stroke-linecap="round" stroke-linejoin="round"/>
<path d="M94.9876 113.328C94.5527 96.8647 96.0563 89.2199 103.573 84.9922C100.186 86.0171 91.3652 89.714 87.2759 92.5691C80.069 97.601 79.0884 108.876 80.1765 118.879C80.4043 120.974 95.0427 115.407 94.9876 113.328Z" fill="url(#paint2_linear_2481_356)"/>
<path d="M94.9876 113.328C94.5527 96.8647 96.0563 89.2199 103.573 84.9922C100.186 86.0171 91.3652 89.714 87.2759 92.5691C80.069 97.601 79.0884 108.876 80.1765 118.879C80.4043 120.974 95.0427 115.407 94.9876 113.328Z" stroke="url(#paint3_linear_2481_356)" stroke-width="1.63619" stroke-linecap="round" stroke-linejoin="round"/>
<path d="M94.0432 108.664C94.0432 108.664 93.7668 110.937 91.6787 112.292C90.1391 113.29 86.6001 114.731 84.4173 115.028C82.7202 115.258 81.4616 115.139 80.8088 114.926C80.4438 114.807 80.9077 118.424 80.9077 118.424C80.9077 118.424 83.4829 118.89 88.7935 116.362C91.0812 115.273 94.0049 114.13 94.1431 113.169C94.2812 112.209 94.0432 108.664 94.0432 108.664Z" fill="#F7BD00"/>
<path d="M102.178 94.8497C97.1627 87.4218 92.009 90.3516 91.7264 90.0812C91.3789 89.7484 100.369 85.8924 103.318 85.0341C109.619 83.2002 114.061 88.8969 113.649 89.4845C113.187 90.1448 102.406 95.187 102.178 94.8497Z" fill="url(#paint4_linear_2481_356)"/>
<path d="M102.178 94.8497C97.1627 87.4218 92.009 90.3516 91.7264 90.0812C91.3789 89.7484 100.369 85.8924 103.318 85.0341C109.619 83.2002 114.061 88.8969 113.649 89.4845C113.187 90.1448 102.406 95.187 102.178 94.8497Z" stroke="url(#paint5_linear_2481_356)" stroke-width="1.63619" stroke-miterlimit="10"/>
<g opacity="0.5">
<path d="M28.3562 81.0276C30.9133 79.5083 39.2528 82.4184 42.9161 85.6818C44.0075 86.6541 60.244 82.4252 61.1392 83.2307C62.7459 84.6767 46.9824 99.9581 47.019 102.31C47.0537 104.546 46.4321 114.116 45.852 119.272C43.0116 118.688 36.5272 117.205 31.7833 113.694C31.3383 113.365 26.9838 81.8432 28.3562 81.0276Z" fill="#16A411"/>
</g>
<path d="M29.2928 114.735C29.3981 83.5303 21.9502 85.915 21.853 84.6047C21.7336 82.9931 33.4939 86.9547 37.0692 89.4853C44.7072 94.8909 44.4631 118.911 43.5974 120.028C42.6251 121.282 29.2878 116.151 29.2928 114.735Z" fill="url(#paint6_linear_2481_356)"/>
<path d="M29.2928 114.735C29.3981 83.5303 21.9502 85.915 21.853 84.6047C21.7336 82.9931 33.4939 86.9547 37.0692 89.4853C44.7072 94.8909 44.4631 118.911 43.5974 120.028C42.6251 121.282 29.2878 116.151 29.2928 114.735Z" stroke="url(#paint7_linear_2481_356)" stroke-width="1.63614" stroke-miterlimit="10"/>
<path d="M30.0911 110.297C30.0911 110.297 30.5442 112.178 31.8889 113.403C33.2335 114.627 37.3568 116.19 39.7376 116.39C42.0461 116.584 42.8538 116.083 43.0701 116.406C43.4381 116.955 42.9013 119.297 42.9013 119.297C42.9013 119.297 40.0935 119.253 35.7638 117.294C33.5424 116.289 30.4346 115.118 30.2701 114.654C30.0738 114.1 30.0911 110.297 30.0911 110.297Z" fill="#F7CC10"/>
<path d="M25.4725 92.8824C30.449 86.4766 35.5623 89.0036 35.8427 88.7704C36.1875 88.4834 27.2677 85.1582 24.3412 84.4178C18.0894 82.8363 13.6821 87.749 14.0904 88.2557C14.5491 88.825 25.2468 93.1733 25.4725 92.8824Z" fill="url(#paint8_linear_2481_356)"/>
<path d="M25.4725 92.8824C30.449 86.4766 35.5623 89.0036 35.8427 88.7704C36.1875 88.4834 27.2677 85.1582 24.3412 84.4178C18.0894 82.8363 13.6821 87.749 14.0904 88.2557C14.5491 88.825 25.2468 93.1733 25.4725 92.8824Z" stroke="url(#paint9_linear_2481_356)" stroke-width="1.63614" stroke-miterlimit="10"/>
<path d="M14.4021 62.6992C14.4021 62.6992 5.71582 70.1598 4.79518 71.3712C3.66155 72.8631 2.16968 74.7927 2.82597 76.1252C3.48226 77.4577 13.9129 82.5568 19.6331 85.0956C27.0722 88.3973 45.3267 94.9866 47.6388 94.7223C49.0312 94.5633 52.4848 90.8009 54.7595 88.4768C57.0343 86.1526 61.1527 82.6092 61.1527 82.6092C61.1527 82.6092 46.3478 77.7001 36.151 73.8541C25.4203 69.8064 16.1923 63.7137 14.4021 62.6992Z" fill="url(#paint10_linear_2481_356)"/>
<path d="M14.4021 62.6992C14.4021 62.6992 5.71582 70.1598 4.79518 71.3712C3.66155 72.8631 2.16968 74.7927 2.82597 76.1252C3.48226 77.4577 13.9129 82.5568 19.6331 85.0956C27.0722 88.3973 45.3267 94.9866 47.6388 94.7223C49.0312 94.5633 52.4848 90.8009 54.7595 88.4768C57.0343 86.1526 61.1527 82.6092 61.1527 82.6092C61.1527 82.6092 46.3478 77.7001 36.151 73.8541C25.4203 69.8064 16.1923 63.7137 14.4021 62.6992Z" stroke="#009E08" stroke-width="1.63581" stroke-linecap="round" stroke-linejoin="round"/>
<path d="M108.176 63.4453C108.176 63.4453 116.294 70.6759 117.215 71.8873C118.349 73.3792 119.806 74.9613 118.856 76.7803C117.906 78.5993 108.858 82.7952 103.138 85.3339C95.6993 88.6356 78.1305 97.4856 75.147 96.6504C72.0527 95.7841 70.287 91.0396 68.0122 88.7155C65.7374 86.3913 61.4028 82.5884 61.4028 82.5884C61.4028 82.5884 76.4165 77.6277 86.7032 73.4433C97.6397 68.9946 106.386 64.4598 108.176 63.4453Z" fill="url(#paint11_linear_2481_356)"/>
<path d="M108.176 63.4453C108.176 63.4453 116.294 70.6759 117.215 71.8873C118.349 73.3792 119.806 74.9613 118.856 76.7803C117.906 78.5993 108.858 82.7952 103.138 85.3339C95.6992 88.6356 78.1305 97.4856 75.147 96.6504C72.0527 95.7841 70.287 91.0396 68.0122 88.7155C65.7374 86.3913 61.4028 82.5884 61.4028 82.5884C61.4028 82.5884 76.4165 77.6277 86.7032 73.4433C97.6397 68.9946 106.386 64.4598 108.176 63.4453Z" stroke="#019F09" stroke-width="1.63581" stroke-linecap="round" stroke-linejoin="round"/>
<g opacity="0.01">
<path d="M79.8256 120.401C80.5036 118.575 86.7343 119.499 86.1386 121.325C85.5429 123.15 79.1476 122.227 79.8256 120.401Z" fill="#F9FF38"/>
<path d="M79.8256 120.401C80.5036 118.575 86.7343 119.499 86.1386 121.325C85.5429 123.15 79.1476 122.227 79.8256 120.401Z" stroke="#F6AF00" stroke-width="1.2177" stroke-miterlimit="10"/>
</g>
<path d="M63.9645 3.19608L70.6969 16.8374C71.2707 18.0002 72.3801 18.806 73.6632 18.9925L88.7173 21.1799C91.9487 21.6494 93.239 25.6205 90.9008 27.8998L80.0076 38.5182C79.0791 39.4231 78.6554 40.7272 78.8746 42.0051L81.4461 56.9983C81.998 60.2166 78.6201 62.671 75.7299 61.1516L62.2652 54.0728C61.1175 53.4695 59.7461 53.4695 58.5984 54.0728L44.8644 61.2929C42.0842 62.7544 38.8352 60.3939 39.3661 57.2983L40.4716 50.6327C41.0592 47.0908 43.2931 44.0377 46.4914 42.4062L62.81 34.0812C63.2196 33.8371 63.4927 33.4027 63.496 32.926C63.4977 32.7025 63.446 32.5576 63.3157 32.3924C62.9817 31.9681 62.4363 31.7685 61.9018 31.8431L42.4601 34.5572C39.3328 34.9937 36.1796 33.9598 33.9186 31.7557L29.9628 27.8998C27.6246 25.6205 28.9149 21.6494 32.1463 21.1799L47.2004 18.9925C48.4835 18.806 49.5929 18.0002 50.1668 16.8374L56.8991 3.19608C58.3442 0.267974 62.5194 0.267974 63.9645 3.19608Z" fill="url(#paint12_linear_2481_356)"/>
<path d="M63.9645 3.19608L70.6969 16.8374C71.2707 18.0002 72.3801 18.806 73.6632 18.9925L88.7173 21.1799C91.9487 21.6494 93.239 25.6205 90.9008 27.8998L80.0076 38.5182C79.0791 39.4231 78.6554 40.7272 78.8746 42.0051L81.4461 56.9983C81.998 60.2166 78.6201 62.671 75.7299 61.1516L62.2652 54.0728C61.1175 53.4695 59.7461 53.4695 58.5984 54.0728L44.8644 61.293C42.0842 62.7544 38.8352 60.3939 39.3661 57.2983L40.4716 50.6327C41.0592 47.0908 43.2931 44.0377 46.4914 42.4062L62.81 34.0812C63.2196 33.8371 63.4927 33.4027 63.496 32.926C63.4977 32.7025 63.446 32.5576 63.3157 32.3924C62.9817 31.9681 62.4363 31.7685 61.9018 31.8431L42.4601 34.5572C39.3328 34.9937 36.1796 33.9598 33.9186 31.7557L29.9628 27.8998C27.6246 25.6205 28.9149 21.6494 32.1463 21.1799L47.2004 18.9925C48.4835 18.806 49.5929 18.0002 50.1668 16.8374L56.8991 3.19608C58.3442 0.267974 62.5194 0.267974 63.9645 3.19608Z" stroke="#DB9500" stroke-width="1.63581"/>
<g opacity="0.01">
<path d="M48.9353 18.4215C48.4854 18.0943 48.4036 18.9531 46.5225 19.0758C45.5524 19.139 29.9598 19.7301 29.1419 23.5743C28.854 24.9278 45.541 33.1029 46.7678 33.7572C47.9947 34.4116 62.9948 30.393 63.4531 32.8575C63.7803 34.616 54.7833 37.3969 55.4785 38.133C56.1737 38.8692 80.5474 52.1601 80.302 50.7288C80.0566 49.2975 78.8298 40.9139 79.4023 39.4008C79.9748 37.8877 82.95 36.7066 81.8969 36.211C77.0304 33.9208 51.9056 20.5817 48.9353 18.4215Z" fill="white"/>
</g>
<path d="M32.3104 29.1033C29.6751 26.41 30.7936 22.9559 33.9462 22.4877L49.1272 20.2198C50.3789 20.034 51.4611 19.2301 52.0209 18.0704L58.589 4.46497C59.3706 2.84584 60.8474 2.14244 62.3589 2.31878C60.9747 1.36347 58.5939 1.50186 57.3704 4.04489L50.904 17.4399C50.3527 18.5817 49.2872 19.3728 48.0547 19.556L33.1008 21.7905C29.997 22.2515 28.6376 25.5575 31.4983 28.3024L32.3104 29.1033Z" fill="white"/>
<path d="M41.5539 58.3805L42.6413 51.8808C43.2194 48.4269 45.4173 45.4504 48.5636 43.8594L64.6172 35.7422C65.6307 35.0587 64.3018 33.7088 64.1369 34.002C63.9514 34.3314 63.6956 34.6314 63.2987 34.8657L47.4932 42.8576C44.3956 44.4241 42.2317 47.3548 41.6628 50.755L40.5917 57.154C40.3532 58.5326 40.9035 59.7588 41.83 60.5378C41.5355 59.9021 41.4178 59.1663 41.5539 58.3805Z" fill="white"/>
<defs>
<linearGradient id="paint0_linear_2481_356" x1="61.1619" y1="37.5827" x2="61.2221" y2="67.6166" gradientUnits="userSpaceOnUse">
<stop stop-color="#009B24"/>
<stop offset="0.5" stop-color="#3BA212"/>
<stop offset="1" stop-color="#77A800"/>
</linearGradient>
<linearGradient id="paint1_linear_2481_356" x1="13.8714" y1="93.3932" x2="104.485" y2="89.172" gradientUnits="userSpaceOnUse">
<stop stop-color="#00B61F"/>
<stop offset="0.5" stop-color="#2EB610"/>
<stop offset="1" stop-color="#5CB600"/>
</linearGradient>
<linearGradient id="paint2_linear_2481_356" x1="94.7628" y1="85.4873" x2="91.8399" y2="97.1744" gradientUnits="userSpaceOnUse">
<stop stop-color="#FFEC33"/>
<stop offset="0.5" stop-color="#FDC81A"/>
<stop offset="1" stop-color="#FBA400"/>
</linearGradient>
<linearGradient id="paint3_linear_2481_356" x1="83.8144" y1="95.4366" x2="101.709" y2="106.794" gradientUnits="userSpaceOnUse">
<stop stop-color="#FFD119"/>
<stop offset="0.4" stop-color="#F5A40C"/>
<stop offset="0.8" stop-color="#EA7800"/>
</linearGradient>
<linearGradient id="paint4_linear_2481_356" x1="103.929" y1="85.3717" x2="107.305" y2="96.3434" gradientUnits="userSpaceOnUse">
<stop stop-color="#F0B300"/>
<stop offset="0.5" stop-color="#F8D857"/>
<stop offset="1" stop-color="#FFFDAF"/>
</linearGradient>
<linearGradient id="paint5_linear_2481_356" x1="-2275.03" y1="-899.877" x2="-2278.28" y2="-871.388" gradientUnits="userSpaceOnUse">
<stop stop-color="#FFD119"/>
<stop offset="0.27" stop-color="#F5A40C"/>
<stop offset="0.54" stop-color="#EA7800"/>
</linearGradient>
<linearGradient id="paint6_linear_2481_356" x1="36.1397" y1="119.533" x2="32.4942" y2="95.1003" gradientUnits="userSpaceOnUse">
<stop stop-color="#FFEC33"/>
<stop offset="0.5" stop-color="#FDD11A"/>
<stop offset="1" stop-color="#FBB500"/>
</linearGradient>
<linearGradient id="paint7_linear_2481_356" x1="32.9282" y1="82.2874" x2="30.8786" y2="121.395" gradientUnits="userSpaceOnUse">
<stop stop-color="#FFD119"/>
<stop offset="0.4" stop-color="#F5A40C"/>
<stop offset="0.8" stop-color="#EA7800"/>
</linearGradient>
<linearGradient id="paint8_linear_2481_356" x1="20.4954" y1="88.8312" x2="25.8837" y2="84.7586" gradientUnits="userSpaceOnUse">
<stop stop-color="#FFD119"/>
<stop offset="0.5" stop-color="#FFE764"/>
<stop offset="1" stop-color="#FFFDAF"/>
</linearGradient>
<linearGradient id="paint9_linear_2481_356" x1="-1214.67" y1="989.328" x2="-1230.14" y2="949.563" gradientUnits="userSpaceOnUse">
<stop stop-color="#FFD119"/>
<stop offset="0.4" stop-color="#F5A40C"/>
<stop offset="0.8" stop-color="#EA7800"/>
</linearGradient>
<linearGradient id="paint10_linear_2481_356" x1="21.4764" y1="89.9722" x2="42.6098" y2="63.1883" gradientUnits="userSpaceOnUse">
<stop stop-color="#B7F04A"/>
<stop offset="0.5" stop-color="#B7F04A"/>
<stop offset="1" stop-color="#B7F04A"/>
</linearGradient>
<linearGradient id="paint11_linear_2481_356" x1="120.639" y1="85.1743" x2="67.9974" y2="63.6246" gradientUnits="userSpaceOnUse">
<stop stop-color="#B7F04A"/>
<stop offset="0.5" stop-color="#B7F04A"/>
<stop offset="1" stop-color="#B7F04A"/>
</linearGradient>
<linearGradient id="paint12_linear_2481_356" x1="44.5422" y1="58.567" x2="74.9104" y2="10.8883" gradientUnits="userSpaceOnUse">
<stop stop-color="#FFC800"/>
<stop offset="0.5" stop-color="#FFDD24"/>
<stop offset="1" stop-color="#FFF248"/>
</linearGradient>
</defs>
</svg>
