<svg width="1905" height="208" viewBox="0 0 1905 208" fill="none" xmlns="http://www.w3.org/2000/svg">
<mask id="path-1-inside-1_4110_2" fill="white">
<path d="M1905 119H1390.04C1363.61 171.771 1309.04 208 1246 208H660C596.963 208 542.39 171.771 515.96 119H0V0H1905V119Z"/>
</mask>
<path d="M1905 119H1390.04C1363.61 171.771 1309.04 208 1246 208H660C596.963 208 542.39 171.771 515.96 119H0V0H1905V119Z" fill="#151B29"/>
<path d="M1905 119V120H1906V119H1905ZM1390.04 119V118H1389.42L1389.15 118.552L1390.04 119ZM1246 208V209V208ZM660 208V209V208ZM515.96 119L516.854 118.552L516.578 118H515.96V119ZM0 119H-1V120H0V119ZM0 0V-1H-1V0H0ZM1905 0H1906V-1H1905V0ZM1905 119V118H1390.04V119V120H1905V119ZM1390.04 119L1389.15 118.552C1362.88 170.998 1308.64 207 1246 207V208V209C1309.43 209 1364.34 172.544 1390.93 119.448L1390.04 119ZM1246 208V207H660V208V209H1246V208ZM660 208V207C597.356 207 543.121 170.998 516.854 118.552L515.96 119L515.066 119.448C541.658 172.544 596.57 209 660 209V208ZM515.96 119V118H0V119V120H515.96V119ZM0 119H1V0H0H-1V119H0ZM0 0V1H1905V0V-1H0V0ZM1905 0H1904V119H1905H1906V0H1905Z" fill="url(#paint0_linear_4110_2)" mask="url(#path-1-inside-1_4110_2)"/>
<line x1="669" y1="118" x2="1237" y2="118" stroke="url(#paint1_linear_4110_2)" stroke-width="2"/>
<defs>
<linearGradient id="paint0_linear_4110_2" x1="960" y1="208" x2="960" y2="3.83294e-06" gradientUnits="userSpaceOnUse">
<stop stop-color="#CDDBFD"/>
<stop offset="0.5" stop-color="#0D1B2A" stop-opacity="0"/>
<stop offset="1" stop-color="#0D1B2A" stop-opacity="0"/>
</linearGradient>
<linearGradient id="paint1_linear_4110_2" x1="669" y1="119.5" x2="1237" y2="119.5" gradientUnits="userSpaceOnUse">
<stop stop-color="#171718" stop-opacity="0"/>
<stop offset="0.504808" stop-color="#CDDBFD"/>
<stop offset="1" stop-color="#171718" stop-opacity="0"/>
</linearGradient>
</defs>
</svg>
