<svg width="176" height="46" viewBox="0 0 176 46" fill="none" xmlns="http://www.w3.org/2000/svg">
<path d="M31.8769 25.3116V25.8647C31.8769 27.854 28.2919 29.9989 22.5019 29.9989C16.7119 29.9989 13.1269 27.8521 13.1269 25.8647V25.3116C13.1269 22.5086 16.8938 20.6244 22.5019 20.6244C28.11 20.6244 31.8769 22.5086 31.8769 25.3116ZM22.5019 37.4985C28.5919 37.4985 31.8769 35.5674 31.8769 33.7487V31.5944C29.5669 32.9556 26.3213 33.7487 22.5019 33.7487C18.6825 33.7487 15.4369 32.9556 13.1269 31.5944V33.7487C13.1269 35.5674 16.4119 37.4985 22.5019 37.4985ZM22.5019 41.2483C18.6131 41.2483 15.4031 40.5434 13.1269 39.2984V40.4871C13.1269 42.5682 15.5831 45 22.5019 45C29.4206 45 31.8769 42.5701 31.8769 40.4871V39.2984C29.6006 40.5452 26.3906 41.2483 22.5019 41.2483ZM33.7031 9.64116C33.0806 9.51742 32.5725 9.12931 32.3119 8.57434C29.4019 2.43965 22.6688 -0.98768 15.9338 0.251632C9.79875 1.37658 4.98937 6.27383 3.96375 12.4404C3.66 14.2609 3.6825 16.0833 4.02562 17.8589C4.13812 18.4382 3.88875 19.0832 3.37687 19.5482C1.23 21.4999 0 24.2804 0 27.179C0 32.5469 4.12687 36.9679 9.375 37.4441V25.0323L9.38062 25.036C9.54 21.2075 13.0406 16.8745 22.5 16.8745C31.9594 16.8745 35.46 21.2093 35.6194 25.036L35.625 25.0323V36.6717C41.0775 34.7349 45 29.5395 45 23.4311C45 16.7471 40.2487 10.948 33.7012 9.64303L33.7031 9.64116Z" fill="white"/>
<path d="M63.832 26.128C64.28 26.9387 64.7813 27.6427 65.336 28.24C65.912 28.8373 66.5307 29.296 67.192 29.616C67.8747 29.936 68.5893 30.096 69.336 30.096C70.1253 30.096 70.776 29.904 71.288 29.52C71.8 29.1147 72.056 28.5707 72.056 27.888C72.056 27.312 71.9067 26.8533 71.608 26.512C71.3093 26.1493 70.8293 25.808 70.168 25.488C69.5067 25.168 68.632 24.8053 67.544 24.4C67.0107 24.208 66.392 23.9413 65.688 23.6C65.0053 23.2587 64.3547 22.8213 63.736 22.288C63.1173 21.7333 62.6053 21.072 62.2 20.304C61.7947 19.5147 61.592 18.5653 61.592 17.456C61.592 16.1333 61.9333 14.992 62.616 14.032C63.32 13.072 64.2587 12.3467 65.432 11.856C66.6267 11.344 67.9493 11.088 69.4 11.088C70.8933 11.088 72.184 11.3333 73.272 11.824C74.3813 12.3147 75.2987 12.9333 76.024 13.68C76.7493 14.4267 77.304 15.184 77.688 15.952L73.56 18.256C73.24 17.7227 72.8667 17.264 72.44 16.88C72.0347 16.4747 71.576 16.1653 71.064 15.952C70.5733 15.7173 70.04 15.6 69.464 15.6C68.696 15.6 68.1093 15.7707 67.704 16.112C67.2987 16.432 67.096 16.8373 67.096 17.328C67.096 17.84 67.288 18.288 67.672 18.672C68.0773 19.056 68.6427 19.408 69.368 19.728C70.1147 20.048 71.0107 20.3893 72.056 20.752C72.8453 21.0507 73.5813 21.4027 74.264 21.808C74.9467 22.192 75.544 22.6613 76.056 23.216C76.5893 23.7707 77.0053 24.4107 77.304 25.136C77.6027 25.8613 77.752 26.6933 77.752 27.632C77.752 28.7627 77.5173 29.776 77.048 30.672C76.6 31.5467 75.9813 32.2827 75.192 32.88C74.424 33.4773 73.5387 33.9253 72.536 34.224C71.5547 34.544 70.5413 34.704 69.496 34.704C68.0453 34.704 66.6907 34.448 65.432 33.936C64.1947 33.4027 63.1173 32.688 62.2 31.792C61.2827 30.896 60.568 29.9147 60.056 28.848L63.832 26.128ZM82.776 9.04H87.416V34H82.776V9.04ZM92.76 19.28H98.552L92.248 25.36L99.192 34H93.496L86.456 25.36L92.76 19.28ZM118.738 19.28L109.138 41.04H104.274L107.858 32.816L101.49 19.28H106.802L111.57 31.088L109.074 31.056L113.778 19.28H118.738ZM119.544 16.432V11.6H137.272V16.432H131.096V34H125.688V16.432H119.544ZM137.11 26.64C137.11 25.0827 137.473 23.728 138.198 22.576C138.924 21.424 139.926 20.528 141.206 19.888C142.486 19.248 143.926 18.928 145.526 18.928C147.126 18.928 148.556 19.248 149.814 19.888C151.094 20.528 152.097 21.424 152.822 22.576C153.569 23.728 153.942 25.0827 153.942 26.64C153.942 28.176 153.569 29.52 152.822 30.672C152.097 31.824 151.094 32.72 149.814 33.36C148.556 34 147.126 34.32 145.526 34.32C143.926 34.32 142.486 34 141.206 33.36C139.926 32.72 138.924 31.824 138.198 30.672C137.473 29.52 137.11 28.176 137.11 26.64ZM142.07 26.64C142.07 27.408 142.23 28.0693 142.55 28.624C142.87 29.1573 143.286 29.5733 143.798 29.872C144.31 30.1707 144.886 30.32 145.526 30.32C146.145 30.32 146.71 30.1707 147.222 29.872C147.756 29.5733 148.172 29.1573 148.47 28.624C148.79 28.0693 148.95 27.408 148.95 26.64C148.95 25.872 148.79 25.2107 148.47 24.656C148.172 24.1013 147.756 23.6747 147.222 23.376C146.71 23.0773 146.145 22.928 145.526 22.928C144.886 22.928 144.31 23.0773 143.798 23.376C143.286 23.6747 142.87 24.1013 142.55 24.656C142.23 25.2107 142.07 25.872 142.07 26.64ZM168.337 25.04C168.337 24.1653 168.167 23.4933 167.825 23.024C167.505 22.5547 166.961 22.32 166.193 22.32C165.681 22.32 165.233 22.4267 164.849 22.64C164.465 22.8533 164.167 23.1627 163.953 23.568C163.74 23.9733 163.633 24.464 163.633 25.04V34H158.769V19.28H163.633V21.488C164.06 20.6773 164.636 20.048 165.361 19.6C166.108 19.152 167.025 18.928 168.113 18.928C169.948 18.928 171.281 19.4187 172.113 20.4C172.945 21.3813 173.361 22.7573 173.361 24.528V34H168.337V25.04Z" fill="white"/>
</svg>
