<svg width="17" height="17" viewBox="0 0 17 17" fill="none" xmlns="http://www.w3.org/2000/svg">
<path d="M6.76273 2.76115C5.70479 2.76238 4.69053 3.18149 3.94245 3.92656C3.19437 4.67162 2.77355 5.68179 2.77232 6.73547C2.77232 6.84477 2.81592 6.9496 2.89352 7.02688C2.97111 7.10417 3.07636 7.14759 3.1861 7.14759C3.29585 7.14759 3.40109 7.10417 3.47869 7.02688C3.55629 6.9496 3.59989 6.84477 3.59989 6.73547C3.60071 5.90081 3.93398 5.10057 4.52656 4.51038C5.11914 3.92019 5.92262 3.58826 6.76066 3.58744C6.8704 3.58744 6.97565 3.54402 7.05325 3.46673C7.13085 3.38945 7.17444 3.28462 7.17444 3.17532C7.17444 3.06602 7.13085 2.9612 7.05325 2.88391C6.97565 2.80663 6.8704 2.76321 6.76066 2.76321L6.76273 2.76115Z" fill="#8893AC"/>
<path d="M16.8787 16.2945L11.7933 11.2301C12.9092 9.99664 13.5263 8.39481 13.525 6.73446C13.525 3.02131 10.4914 0 6.76275 0C4.96974 0.00190905 3.25072 0.712152 1.98288 1.97489C0.715034 3.23762 0.00191677 4.94971 0 6.73549C0 10.4492 3.03354 13.4705 6.76275 13.4705C8.396 13.4718 9.97409 12.882 11.2031 11.8107L16.2911 16.8786C16.3689 16.9563 16.4744 16.9999 16.5845 17C16.6946 17.0001 16.8002 16.9566 16.8782 16.8792C16.9561 16.8017 16.9999 16.6966 17 16.5869C17.0001 16.4773 16.9565 16.3721 16.8787 16.2945ZM0.829633 6.73549C0.829633 5.56676 1.1776 4.42428 1.82954 3.45251C2.48148 2.48075 3.40811 1.72335 4.49224 1.2761C5.57638 0.828847 6.76933 0.711825 7.92024 0.939832C9.07115 1.16784 10.1283 1.73064 10.9581 2.55705C11.7879 3.38347 12.3529 4.43639 12.5819 5.58266C12.8108 6.72893 12.6933 7.91708 12.2442 8.99684C11.7952 10.0766 11.0347 10.9995 10.059 11.6488C9.08331 12.2981 7.93621 12.6447 6.76275 12.6447C5.18969 12.6431 3.68153 12.02 2.56922 10.9121C1.4569 9.80429 0.831276 8.30221 0.829633 6.73549Z" fill="#8893AC"/>
</svg>
