<svg width="20" height="18" viewBox="0 0 20 18" fill="none" xmlns="http://www.w3.org/2000/svg">
<path d="M6.56564 5.04721L8.97028 0.574645C9.24793 0.0590773 9.92122 -0.147335 10.4696 0.111837C10.6838 0.213655 10.8563 0.378414 10.9654 0.582049L13.2391 4.89634C13.4236 5.25085 13.7875 5.48873 14.2049 5.53501L18.9587 6.06817C19.27 6.10475 19.5532 6.25463 19.7468 6.48519C19.9403 6.71575 20.0284 7.00832 19.9919 7.29923C19.9572 7.54823 19.8373 7.77963 19.6449 7.95457L15.8847 11.4164C15.8094 11.4854 15.7522 11.5698 15.7176 11.663C15.683 11.7561 15.672 11.8555 15.6854 11.9532L16.3131 16.6257C16.3564 16.9465 16.2617 17.2702 16.0498 17.5259C15.8379 17.7816 15.5261 17.9485 15.1827 17.9901C14.9129 18.0226 14.6391 17.9747 14.4003 17.8531L10.4289 15.826C10.2876 15.7533 10.1292 15.7143 9.96783 15.7123C9.80646 15.7104 9.64707 15.7456 9.50376 15.8149L5.38563 17.7864C4.80753 18.0641 4.10052 17.8457 3.80403 17.3024C3.69286 17.1003 3.65196 16.8709 3.68702 16.6461L4.01425 14.4996C4.09375 13.9834 4.30447 13.4925 4.62879 13.0678C4.95311 12.6432 5.3816 12.2972 5.87846 12.0587L10.4478 9.88077C10.5001 9.85567 10.5413 9.81411 10.564 9.76344C10.5868 9.71277 10.5896 9.65622 10.5721 9.60378C10.5546 9.55133 10.5177 9.50635 10.4682 9.47676C10.4186 9.44717 10.3594 9.43487 10.301 9.44203L4.70936 10.1927C4.2864 10.2482 3.85571 10.2213 3.44442 10.1138C3.03313 10.0063 2.65015 9.8204 2.3196 9.56792L0.45935 8.15173C0.203774 7.95624 0.0411482 7.67452 0.00679996 7.36776C-0.0275483 7.061 0.0691551 6.75398 0.275904 6.51339C0.478191 6.28198 0.767739 6.13111 1.08307 6.09223L5.85565 5.52113C6.00644 5.50222 6.14999 5.44915 6.27374 5.36654C6.3975 5.28393 6.49772 5.1743 6.56564 5.04721Z" fill="url(#paint0_linear_2485_1186)"/>
<defs>
<linearGradient id="paint0_linear_2485_1186" x1="10" y1="0" x2="10" y2="18" gradientUnits="userSpaceOnUse">
<stop stop-color="#FDCE66"/>
<stop offset="1" stop-color="#D4962B"/>
</linearGradient>
</defs>
</svg>
