<svg width="18" height="17" viewBox="0 0 18 17" fill="none" xmlns="http://www.w3.org/2000/svg">
<path d="M5.90908 4.76681L8.07325 0.54272C8.32313 0.0557952 8.9291 -0.139149 9.42262 0.105624C9.61539 0.201785 9.77067 0.357391 9.86884 0.549713L11.9152 4.62432C12.0812 4.95914 12.4087 5.1838 12.7845 5.22751L17.0628 5.73105C17.343 5.76559 17.5979 5.90715 17.7721 6.1249C17.9462 6.34265 18.0256 6.61897 17.9927 6.89372C17.9615 7.12888 17.8535 7.34743 17.6804 7.51265L14.2963 10.7821C14.2284 10.8473 14.1769 10.9271 14.1458 11.015C14.1147 11.103 14.1048 11.1968 14.1169 11.2892L14.6818 15.7021C14.7207 16.005 14.6355 16.3107 14.4448 16.5522C14.2541 16.7937 13.9735 16.9514 13.6644 16.9906C13.4216 17.0214 13.1752 16.9761 12.9603 16.8613L9.38603 14.9468C9.25882 14.8781 9.11628 14.8412 8.97105 14.8394C8.82581 14.8376 8.68236 14.8709 8.55338 14.9363L4.84707 16.7983C4.32678 17.0606 3.69046 16.8543 3.42362 16.3411C3.32358 16.1503 3.28677 15.9336 3.31832 15.7213L3.61282 13.6941C3.68438 13.2065 3.87403 12.7429 4.16591 12.3418C4.4578 11.9408 4.84344 11.614 5.29061 11.3888L9.40299 9.33184C9.45011 9.30813 9.48717 9.26888 9.50764 9.22103C9.52811 9.17317 9.53068 9.11977 9.51489 9.07023C9.4991 9.0207 9.46597 8.97822 9.42134 8.95027C9.3767 8.92233 9.32343 8.91071 9.27091 8.91747L4.23842 9.62644C3.85776 9.67884 3.47014 9.65347 3.09998 9.55191C2.72982 9.45035 2.38514 9.27482 2.08764 9.03636L0.413415 7.69885C0.183396 7.51423 0.0370334 7.24816 0.00611997 6.95844C-0.0247934 6.66872 0.0622396 6.37876 0.248314 6.15153C0.430372 5.93298 0.690965 5.79049 0.974762 5.75378L5.27009 5.2144C5.4058 5.19654 5.53499 5.14642 5.64637 5.0684C5.75775 4.99038 5.84795 4.88684 5.90908 4.76681Z" fill="#8893AC"/>
</svg>
