<svg width="12" height="14" viewBox="0 0 12 14" fill="none" xmlns="http://www.w3.org/2000/svg">
<path d="M11.9139 8.63212C11.679 7.56914 10.894 6.71091 9.96071 6.49741C9.25513 6.33566 8.57009 6.54116 7.99465 6.7629L7.63102 6.9039C7.26831 7.0499 6.89337 7.20115 6.5242 7.28639C6.36638 7.32239 6.2134 7.33739 6.05558 7.33189C5.59527 7.31889 5.1262 7.14265 4.61697 6.9514C4.04476 6.73916 3.45293 6.51941 2.76351 6.47466C2.17261 6.43691 1.62485 6.57366 1.18069 6.87265C0.494266 7.33539 0.0544921 8.19637 0.00442344 9.1766C-0.0301863 9.88509 0.139171 10.6076 0.481807 11.2116C1.06694 12.2413 2.0374 12.7908 2.91002 13.1928C4.12644 13.751 5.08836 14 6.02951 14C6.07842 14 6.12734 13.9997 6.16495 13.9975C7.32737 13.9672 8.46188 13.4865 9.21429 13.1273C11.3047 12.1293 12.3139 10.4488 11.9139 8.63212Z" fill="#E0E5EC"/>
<path d="M5.99894 5.99987C7.52569 5.99987 8.76772 4.65415 8.76772 2.99994C8.76772 1.34572 7.52569 0 5.99894 0C4.47219 0 3.23017 1.34572 3.23017 2.99994C3.23017 4.65415 4.47219 5.99987 5.99894 5.99987Z" fill="#E0E5EC"/>
</svg>
